<svg width="60" height="61" viewBox="0 0 60 61" fill="none" xmlns="http://www.w3.org/2000/svg">
<g clip-path="url(#clip0_1_690)">
<path d="M27.6635 56.67C27.1714 58.7079 24.9228 60.5001 21.8306 60.5001C20.5658 60.5001 19.3363 60.1485 18.2821 59.5163C17.6146 59.0947 16.7714 58.8837 15.9282 58.8837C15.0498 58.8837 14.2418 59.0947 13.5744 59.5163C12.5202 60.1485 11.173 60.5001 9.87293 60.5001C6.81644 60.5001 4.56745 58.6727 4.07581 56.67C3.65421 54.9836 4.35688 53.2271 5.938 52.1024C7.2028 51.1891 7.94071 50.2402 8.22178 49.2565C9.17027 45.4973 12.4144 42.78 15.9282 42.78C19.4416 42.78 22.5685 45.4973 23.517 49.2565C23.7986 50.2402 24.5365 51.1891 25.8013 52.1028C27.3471 53.2271 28.0851 54.9836 27.6635 56.67Z" fill="#68544F"/>
<path d="M3.51379 46.2933C1.57654 46.2933 0 44.7168 0 42.78C0 40.7471 1.60767 37.5098 3.51379 37.5098C5.41946 37.5098 7.02713 40.7471 7.02713 42.78C7.02713 44.7168 5.45059 46.2933 3.51379 46.2933Z" fill="#68544F"/>
<path d="M28.2257 46.2933C26.2889 46.2933 24.7119 44.7168 24.7119 42.78C24.7119 40.7471 26.3196 37.5098 28.2257 37.5098C30.1318 37.5098 31.739 40.7471 31.739 42.78C31.739 44.7168 30.1625 46.2933 28.2257 46.2933Z" fill="#53433F"/>
<path d="M21.1986 39.2661C19.2618 39.2661 17.6848 37.6896 17.6848 35.7528C17.6848 33.7198 19.2925 30.4825 21.1986 30.4825C23.1047 30.4825 24.7119 33.7198 24.7119 35.7528C24.7119 37.6896 23.1354 39.2661 21.1986 39.2661Z" fill="#53433F"/>
<path d="M10.5409 39.2661C8.60364 39.2661 7.0271 37.6896 7.0271 35.7528C7.0271 33.7198 8.63477 30.4825 10.5409 30.4825C12.4466 30.4825 14.1714 33.7198 14.1714 35.7528C14.1714 37.6896 12.4777 39.2661 10.5409 39.2661Z" fill="#68544F"/>
<path d="M55.8892 26.6877C55.3971 28.7257 53.0314 30.5174 49.9392 30.5174C48.6744 30.5174 47.4448 30.1663 46.3906 29.5337C45.7232 29.1121 44.88 28.901 44.0368 28.901C43.1584 28.901 42.3504 29.1121 41.683 29.5337C40.6287 30.1663 39.3987 30.5174 38.0987 30.5174C35.0422 30.5174 32.7932 28.6905 32.3011 26.6877C31.8795 25.0013 32.5826 23.2444 34.1638 22.1202C35.4286 21.2065 36.1665 20.1408 36.4475 19.1571C37.396 15.3975 40.523 12.7974 44.0368 12.7974C47.5501 12.7974 50.6776 15.3975 51.6261 19.1571C51.9071 20.1408 52.7622 21.2065 54.027 22.1202C55.5729 23.2444 56.3108 25.0013 55.8892 26.6877Z" fill="#68544F"/>
<path d="M31.7389 16.3111C29.8021 16.3111 28.2256 14.7346 28.2256 12.7973C28.2256 10.7644 29.8333 7.5271 31.7389 7.5271C33.6451 7.5271 35.2527 10.7644 35.2527 12.7973C35.2527 14.7346 33.6762 16.3111 31.7389 16.3111Z" fill="#68544F"/>
<path d="M56.4513 16.3111C54.514 16.3111 52.8203 14.7346 52.8203 12.7973C52.8203 10.7644 54.5452 7.5271 56.4513 7.5271C58.357 7.5271 59.9646 10.7644 59.9646 12.7973C59.9646 14.7346 58.3881 16.3111 56.4513 16.3111Z" fill="#53433F"/>
<path d="M49.307 9.28403C47.3702 9.28403 45.7932 7.70749 45.7932 5.77023C45.7932 3.7373 47.4009 0.5 49.307 0.5C51.2131 0.5 52.8203 3.7373 52.8203 5.77023C52.8203 7.70749 51.2438 9.28403 49.307 9.28403Z" fill="#53433F"/>
<path d="M38.7663 9.28403C36.8295 9.28403 35.2529 7.70749 35.2529 5.77023C35.2529 3.7373 36.8606 0.5 38.7663 0.5C40.6724 0.5 42.2801 3.7373 42.2801 5.77023C42.2801 7.70749 40.7035 9.28403 38.7663 9.28403Z" fill="#68544F"/>
<path d="M27.6635 56.67C27.1714 58.7079 24.9228 60.5001 21.8306 60.5001C20.5658 60.5001 19.3363 60.1485 18.282 59.5163C17.6146 59.0947 16.7714 58.8837 15.9282 58.8837V42.78C19.4416 42.78 22.569 45.4973 23.5175 49.2565C23.7986 50.2402 24.5365 51.1891 25.8013 52.1028C27.3471 53.2271 28.0851 54.9836 27.6635 56.67Z" fill="#53433F"/>
<path d="M55.8893 26.6877C55.3972 28.7257 53.0315 30.5174 49.9393 30.5174C48.6745 30.5174 47.4449 30.1663 46.3907 29.5337C45.7233 29.1121 44.8801 28.901 44.0369 28.901V12.7974C47.5502 12.7974 50.6776 15.3975 51.6261 19.1571C51.9072 20.1408 52.7623 21.2065 54.0271 22.1202C55.573 23.2444 56.3109 25.0013 55.8893 26.6877Z" fill="#53433F"/>
</g>
<defs>
<clipPath id="clip0_1_690">
<rect width="60" height="60" fill="white" transform="translate(0 0.5)"/>
</clipPath>
</defs>
</svg>
