<svg width="60" height="61" viewBox="0 0 60 61" fill="none" xmlns="http://www.w3.org/2000/svg">
<g clip-path="url(#clip0_1_2)">
<path d="M51.7228 21.6052C48.453 22.8361 42.8985 28.1444 30.0665 28.7422C30.0665 28.7422 30.0317 28.7422 29.996 28.7422C29.9607 28.7422 29.9259 28.7422 29.9259 28.7422C17.0587 28.1448 11.6094 22.8714 8.26959 21.6052C7.42593 21.2889 6.96862 20.3752 7.2149 19.4963C7.39068 18.828 7.95327 18.3359 8.62115 18.2306C11.0821 17.879 21.4884 14.2929 27.7461 18.828C28.6955 19.4958 29.3986 20.34 29.996 21.2537C30.5938 20.34 31.2969 19.4958 32.2459 18.828C38.4335 14.3629 48.4882 17.8085 51.3712 18.2306C52.0391 18.3359 52.6013 18.828 52.777 19.4963C53.0233 20.3752 52.5665 21.2889 51.7228 21.6052Z" fill="#90E36A"/>
<path d="M51.7227 21.6052C48.4529 22.8361 42.8984 28.1443 30.0663 28.7422C30.0663 28.7422 30.0316 28.7422 29.9958 28.7422V21.2541C30.5937 20.3399 31.2968 19.4963 32.2462 18.8279C38.4333 14.3634 48.4881 17.8085 51.3711 18.2306C52.039 18.3358 52.6016 18.8279 52.7774 19.4963C53.0232 20.3752 52.5663 21.2889 51.7227 21.6052Z" fill="#70DA40"/>
<path d="M51.7228 35.7849C48.453 37.0158 42.8985 42.3241 30.0665 42.9219C30.0665 42.9219 30.0317 42.9219 29.996 42.9219C29.9607 42.9219 29.9259 42.9219 29.9259 42.9219C17.0587 42.3245 11.6094 37.0511 8.26959 35.7849C7.42593 35.4686 6.96862 34.5549 7.2149 33.676C7.39068 33.0077 7.95327 32.5156 8.62115 32.4103C11.0821 32.0587 21.4884 28.4726 27.7461 33.0077C28.6955 33.6755 29.3986 34.5196 29.996 35.4333C30.5938 34.5196 31.2969 33.6755 32.2459 33.0077C38.4335 28.5426 48.4882 31.9882 51.3712 32.4103C52.0391 32.5156 52.6013 33.0077 52.777 33.676C53.0233 34.5549 52.5665 35.4686 51.7228 35.7849Z" fill="#90E36A"/>
<path d="M51.7227 35.7849C48.4529 37.0158 42.8984 42.324 30.0663 42.9219C30.0663 42.9219 30.0316 42.9219 29.9958 42.9219V35.4338C30.5937 34.5196 31.2968 33.676 32.2462 33.0076C38.4333 28.543 48.4881 31.9882 51.3711 32.4102C52.039 32.5155 52.6016 33.0076 52.7774 33.676C53.0232 34.5549 52.5663 35.4686 51.7227 35.7849Z" fill="#70DA40"/>
<path d="M51.7228 49.8474C48.453 51.0783 42.8985 56.3866 30.0665 56.9844C30.0665 56.9844 30.0317 56.9844 29.996 56.9844C29.9607 56.9844 29.9259 56.9844 29.9259 56.9844C17.0587 56.387 11.6094 51.1136 8.26959 49.8474C7.42593 49.5311 6.96862 48.6174 7.2149 47.7385C7.39068 47.0702 7.95327 46.5781 8.62115 46.4728C11.0821 46.1212 21.4884 42.5351 27.7461 47.0702C28.6955 47.738 29.3986 48.5821 29.996 49.4958C30.5938 48.5821 31.2969 47.738 32.2459 47.0702C38.4335 42.6051 48.4882 46.0507 51.3712 46.4728C52.0391 46.5781 52.6013 47.0702 52.777 47.7385C53.0233 48.6174 52.5665 49.5311 51.7228 49.8474Z" fill="#90E36A"/>
<path d="M51.7227 49.8474C48.4529 51.0783 42.8984 56.3865 30.0663 56.9844C30.0663 56.9844 30.0316 56.9844 29.9958 56.9844V49.4963C30.5937 48.5821 31.2968 47.7385 32.2462 47.0701C38.4333 42.6055 48.4881 46.0507 51.3711 46.4727C52.039 46.578 52.6016 47.0701 52.7774 47.7385C53.0232 48.6174 52.5663 49.5311 51.7227 49.8474Z" fill="#70DA40"/>
<path d="M51.7228 7.42553C48.453 8.65646 42.8985 14.0823 30.0665 14.6797C30.0665 14.6797 30.0317 14.6797 29.996 14.6797C29.9607 14.6797 29.9259 14.6797 29.9259 14.6797C17.0587 14.0823 11.6094 8.69171 8.26959 7.42553C7.42593 7.10922 6.96862 6.19552 7.2149 5.31662C7.39068 4.64828 7.95327 4.15619 8.62115 4.0509C11.0821 3.69934 21.4884 0.113216 27.7461 4.64828C28.6955 5.31616 29.3986 6.16027 29.996 7.07397C30.5938 6.16027 31.2969 5.31616 32.2459 4.64828C38.4335 0.183254 48.4882 3.62884 51.3712 4.0509C52.0391 4.15619 52.6013 4.64828 52.777 5.31662C53.0233 6.19552 52.5665 7.10922 51.7228 7.42553Z" fill="#90E36A"/>
<path d="M51.7227 7.4255C48.4529 8.65642 42.8984 14.0823 30.0663 14.6797C30.0663 14.6797 30.0316 14.6797 29.9958 14.6797V7.07439C30.5937 6.16024 31.2968 5.31658 32.2462 4.64824C38.4333 0.183675 48.4881 3.6288 51.3711 4.05086C52.039 4.15615 52.6016 4.64824 52.7774 5.31658C53.0232 6.19549 52.5663 7.10918 51.7227 7.4255Z" fill="#70DA40"/>
<path d="M31.7537 2.25781V58.7422C31.7537 59.7268 30.9805 60.5 29.9958 60.5C29.0117 60.5 28.238 59.7268 28.238 58.7422V2.25781C28.238 1.27316 29.0117 0.5 29.9958 0.5C30.9805 0.5 31.7537 1.27316 31.7537 2.25781Z" fill="#70DA40"/>
<path d="M31.7537 2.25781V58.7422C31.7537 59.7268 30.9805 60.5 29.9958 60.5V0.5C30.9805 0.5 31.7537 1.27316 31.7537 2.25781Z" fill="#56C225"/>
</g>
<defs>
<clipPath id="clip0_1_2">
<rect width="60" height="60" fill="white" transform="translate(0 0.5)"/>
</clipPath>
</defs>
</svg>
