<svg width="60" height="61" viewBox="0 0 60 61" fill="none" xmlns="http://www.w3.org/2000/svg">
<g clip-path="url(#clip0_1_125)">
<path d="M47.5232 30.5994L35.2734 37.112V44.5625C35.2734 45.5339 36.0599 46.3203 37.0312 46.3203C41.9801 46.3203 46.2753 42.8505 47.4719 38.0495L48.8022 32.7293C49.0388 31.7886 48.4657 30.8342 47.5232 30.5994Z" fill="#3E322E"/>
<path d="M22.9688 35.3542L12.4769 30.5994C11.5343 30.8342 10.9612 31.7886 11.1979 32.7293L12.5268 38.0495C13.7247 42.8505 18.0199 46.3203 22.9688 46.3203C23.9402 46.3203 24.7266 45.5339 24.7266 44.5625V37.112C24.7266 36.1406 23.9402 35.3542 22.9688 35.3542Z" fill="#53433F"/>
<path d="M52.8516 55.2265C52.8516 58.1443 50.4964 60.4999 47.5781 60.4999H15.9375C14.9529 60.4999 14.1797 59.7263 14.1797 58.7421C14.1797 57.7575 14.9529 56.9843 15.9375 56.9843H47.5781C48.5628 56.9843 49.3359 56.2107 49.3359 55.2265C49.3359 54.2419 48.5628 53.4687 47.5781 53.4687H37.0312C34.1483 53.4687 31.6173 52.0977 30 49.9531C28.9101 48.5116 28.2422 46.5313 28.2422 44.5624V38.2224C28.2422 37.2382 29.0154 36.4646 30 36.4646C30.9846 36.4646 31.7578 37.2382 31.7578 38.2224V44.5624C31.7578 47.4802 34.113 49.9531 37.0312 49.9531H47.5781C50.4964 49.9531 52.8516 52.3083 52.8516 55.2265Z" fill="#725D57"/>
<path d="M52.8516 55.2265C52.8516 58.1443 50.4964 60.4999 47.5781 60.4999H30V56.9843H47.5781C48.5628 56.9843 49.3359 56.2107 49.3359 55.2265C49.3359 54.2419 48.5628 53.4687 47.5781 53.4687H37.0312C34.1483 53.4687 31.6173 52.0977 30 49.9531V36.4646C30.9846 36.4646 31.7578 37.2382 31.7578 38.2224V44.5624C31.7578 47.4802 34.113 49.9531 37.0312 49.9531H47.5781C50.4964 49.9531 52.8516 52.3083 52.8516 55.2265Z" fill="#68544F"/>
<path d="M60 12.8047C60 22.1564 54.6799 30.5586 46.3477 34.7421L41.0742 37.3436C37.6291 39.1014 33.7971 39.9455 30 39.9455C26.2029 39.9455 22.3714 39.1014 18.9258 37.3436L13.6523 34.7421C5.32013 30.5586 0 22.1564 0 12.8047C0 11.8201 0.773163 11.0469 1.75781 11.0469H9.50363C10.9103 11.0469 12.2461 10.4843 13.2303 9.50012L15.7265 7.00394L23.2498 5.84351C25.3944 6.75766 27.6796 7.21451 30 7.21451C32.3199 7.21451 34.6056 6.75766 36.7497 5.84351L44.2731 7.00394L46.7697 9.50012C47.7539 10.4843 49.0897 11.0469 50.4964 11.0469H58.2422C59.2268 11.0469 60 11.8201 60 12.8047Z" fill="#725D57"/>
<path d="M60 12.8046C60 22.1563 54.6799 30.5585 46.3477 34.742L41.0742 37.3435C37.6291 39.1013 33.7971 39.9454 30 39.9454V7.21487C32.3204 7.21487 34.6056 6.75757 36.7497 5.84387L44.2735 7.00385L46.7697 9.50003C47.7539 10.4842 49.0897 11.0468 50.4964 11.0468H58.2422C59.2268 11.0468 60 11.82 60 12.8046Z" fill="#68544F"/>
<path d="M19.4531 11.0469C16.5454 11.0469 14.1797 8.68115 14.1797 5.77344C14.1797 2.86572 16.5454 0.5 19.4531 0.5C22.3608 0.5 24.7266 2.86572 24.7266 5.77344C24.7266 8.68115 22.3608 11.0469 19.4531 11.0469Z" fill="#68544F"/>
<path d="M40.5469 11.0469C37.6392 11.0469 35.2734 8.68115 35.2734 5.77344C35.2734 2.86572 37.6392 0.5 40.5469 0.5C43.4546 0.5 45.8203 2.86572 45.8203 5.77344C45.8203 8.68115 43.4546 11.0469 40.5469 11.0469Z" fill="#53433F"/>
<path d="M31.7578 19.8359V30.3828C31.7578 31.367 30.9846 32.1406 30 32.1406C29.0154 32.1406 28.2422 31.367 28.2422 30.3828V19.8359C28.2422 18.8513 29.0154 18.0781 30 18.0781C30.9846 18.0781 31.7578 18.8513 31.7578 19.8359Z" fill="#53433F"/>
<path d="M37.0312 28.625C36.0599 28.625 35.2734 27.8386 35.2734 26.8672V16.3203C35.2734 15.3489 36.0599 14.5625 37.0312 14.5625C38.0026 14.5625 38.7891 15.3489 38.7891 16.3203V26.8672C38.7891 27.8386 38.0026 28.625 37.0312 28.625Z" fill="#3E322E"/>
<path d="M22.9688 28.625C21.9974 28.625 21.2109 27.8386 21.2109 26.8672V16.3203C21.2109 15.3489 21.9974 14.5625 22.9688 14.5625C23.9401 14.5625 24.7266 15.3489 24.7266 16.3203V26.8672C24.7266 27.8386 23.9401 28.625 22.9688 28.625Z" fill="#53433F"/>
<path d="M30 32.1406V18.0781C30.9846 18.0781 31.7578 18.8513 31.7578 19.8359V30.3828C31.7578 31.367 30.9846 32.1406 30 32.1406Z" fill="#3E322E"/>
</g>
<defs>
<clipPath id="clip0_1_125">
<rect width="60" height="60" fill="white" transform="translate(0 0.5)"/>
</clipPath>
</defs>
</svg>
