<svg width="60" height="61" viewBox="0 0 60 61" fill="none" xmlns="http://www.w3.org/2000/svg">
<g clip-path="url(#clip0_1_138)">
<path d="M49.3359 2.25781V42.3126C49.3359 43.2968 48.5628 44.0704 47.5781 44.0704L12.4219 49.8359C11.4372 49.8359 10.6641 49.0628 10.6641 48.0781V2.25781C10.6641 1.27316 11.4372 0.5 12.4219 0.5H47.5781C48.5628 0.5 49.3359 1.27316 49.3359 2.25781Z" fill="#73BCFF"/>
<path d="M49.3359 2.25781V42.3126C49.3359 43.2968 48.5628 44.0704 47.5781 44.0704L30 46.9529V0.5H47.5781C48.5628 0.5 49.3359 1.27316 49.3359 2.25781Z" fill="#3AAAFF"/>
<path d="M52.3714 47.305C50.4378 40.5548 44.0977 35.7734 37.0312 35.7734C34.5703 35.7734 32.1799 36.336 30 37.4255C28.7695 38.0586 27.5743 38.867 26.5196 39.8164C20.7541 38.0586 14.426 41.0116 11.8945 46.3203C5.35538 46.6018 0 52.133 0 58.7422C0 59.7268 0.773163 60.5 1.75781 60.5H58.2422C59.2268 60.5 60 59.7268 60 58.7422C60 53.715 56.9765 49.1681 52.3714 47.305Z" fill="#A8EBFA"/>
<path d="M60 58.7422C60 59.7268 59.2268 60.5 58.2422 60.5H30V37.4255C32.1799 36.336 34.5703 35.7734 37.0312 35.7734C44.0977 35.7734 50.4378 40.5548 52.3714 47.305C56.9765 49.1681 60 53.715 60 58.7422Z" fill="#76E2F8"/>
<path d="M33.5156 25.2266C32.5443 25.2266 31.7578 24.4401 31.7578 23.4688V12.8047C31.7578 11.8333 32.5443 11.0469 33.5156 11.0469C34.487 11.0469 35.2734 11.8333 35.2734 12.8047V23.4688C35.2734 24.4401 34.487 25.2266 33.5156 25.2266Z" fill="#0095FF"/>
<path d="M35.2734 30.5C35.2734 31.4709 34.4865 32.2578 33.5156 32.2578C32.5447 32.2578 31.7578 31.4709 31.7578 30.5C31.7578 29.5291 32.5447 28.7422 33.5156 28.7422C34.4865 28.7422 35.2734 29.5291 35.2734 30.5Z" fill="#0095FF"/>
<path d="M26.4844 18.1953C25.513 18.1953 24.7266 17.4089 24.7266 16.4375V9.28906C24.7266 8.31769 25.513 7.53125 26.4844 7.53125C27.4557 7.53125 28.2422 8.31769 28.2422 9.28906V16.4375C28.2422 17.4089 27.4557 18.1953 26.4844 18.1953Z" fill="#3AAAFF"/>
<path d="M28.2422 23.4688C28.2422 24.4397 27.4553 25.2266 26.4844 25.2266C25.5135 25.2266 24.7266 24.4397 24.7266 23.4688C24.7266 22.4978 25.5135 21.7109 26.4844 21.7109C27.4553 21.7109 28.2422 22.4978 28.2422 23.4688Z" fill="#3AAAFF"/>
<path d="M19.4531 28.7422C18.4818 28.7422 17.6953 27.9557 17.6953 26.9844V19.9531C17.6953 18.9818 18.4818 18.1953 19.4531 18.1953C20.4245 18.1953 21.2109 18.9818 21.2109 19.9531V26.9844C21.2109 27.9557 20.4245 28.7422 19.4531 28.7422Z" fill="#3AAAFF"/>
<path d="M21.2109 34.0156C21.2109 34.9865 20.424 35.7734 19.4531 35.7734C18.4822 35.7734 17.6953 34.9865 17.6953 34.0156C17.6953 33.0447 18.4822 32.2578 19.4531 32.2578C20.424 32.2578 21.2109 33.0447 21.2109 34.0156Z" fill="#3AAAFF"/>
<path d="M40.5469 18.1953C39.5755 18.1953 38.7891 17.4089 38.7891 16.4375V9.28906C38.7891 8.31769 39.5755 7.53125 40.5469 7.53125C41.5182 7.53125 42.3047 8.31769 42.3047 9.28906V16.4375C42.3047 17.4089 41.5182 18.1953 40.5469 18.1953Z" fill="#0095FF"/>
<path d="M42.3047 23.4688C42.3047 24.4397 41.5178 25.2266 40.5469 25.2266C39.576 25.2266 38.7891 24.4397 38.7891 23.4688C38.7891 22.4978 39.576 21.7109 40.5469 21.7109C41.5178 21.7109 42.3047 22.4978 42.3047 23.4688Z" fill="#0095FF"/>
<path d="M60 44.5625C60 45.5334 59.2131 46.3203 58.2422 46.3203C57.2713 46.3203 56.4844 45.5334 56.4844 44.5625C56.4844 43.5916 57.2713 42.8047 58.2422 42.8047C59.2131 42.8047 60 43.5916 60 44.5625Z" fill="#73BCFF"/>
<path d="M3.51562 44.5625C3.51562 45.5334 2.72873 46.3203 1.75781 46.3203C0.786896 46.3203 0 45.5334 0 44.5625C0 43.5916 0.786896 42.8047 1.75781 42.8047C2.72873 42.8047 3.51562 43.5916 3.51562 44.5625Z" fill="#9ED0FF"/>
<path d="M56.4844 37.5312C56.4844 38.5022 55.6975 39.2891 54.7266 39.2891C53.7556 39.2891 52.9688 38.5022 52.9688 37.5312C52.9688 36.5603 53.7556 35.7734 54.7266 35.7734C55.6975 35.7734 56.4844 36.5603 56.4844 37.5312Z" fill="#73BCFF"/>
<path d="M7.14844 37.5312C7.14844 38.5022 6.24435 39.2891 5.27344 39.2891C4.30252 39.2891 3.51562 38.5022 3.51562 37.5312C3.51562 36.5603 4.30252 35.7734 5.27344 35.7734C6.24435 35.7734 7.14844 36.5603 7.14844 37.5312Z" fill="#9ED0FF"/>
<path d="M42.3047 48.0781C42.3047 49.049 41.5178 49.8359 40.5469 49.8359C39.576 49.8359 38.7891 49.049 38.7891 48.0781C38.7891 47.1072 39.576 46.3203 40.5469 46.3203C41.5178 46.3203 42.3047 47.1072 42.3047 48.0781Z" fill="#3AAAFF"/>
<path d="M31.7578 51.5938C31.7578 52.5784 30.9846 53.3516 30 53.3516C29.0154 53.3516 28.2422 52.5784 28.2422 51.5938C28.2422 50.6091 29.0154 49.8359 30 49.8359C30.9846 49.8359 31.7578 50.6091 31.7578 51.5938Z" fill="#73BCFF"/>
<path d="M24.7266 48.0781C24.7266 49.049 23.9397 49.8359 22.9688 49.8359C21.9978 49.8359 21.2109 49.049 21.2109 48.0781C21.2109 47.1072 21.9978 46.3203 22.9688 46.3203C23.9397 46.3203 24.7266 47.1072 24.7266 48.0781Z" fill="#73BCFF"/>
<path d="M31.7578 51.5938C31.7578 52.5784 30.9846 53.3516 30 53.3516V49.8359C30.9846 49.8359 31.7578 50.6091 31.7578 51.5938Z" fill="#3AAAFF"/>
</g>
<defs>
<clipPath id="clip0_1_138">
<rect width="60" height="60" fill="white" transform="translate(0 0.5)"/>
</clipPath>
</defs>
</svg>
