<svg width="60" height="61" viewBox="0 0 60 61" fill="none" xmlns="http://www.w3.org/2000/svg">
<g clip-path="url(#clip0_1_520)">
<path d="M28.2477 39.2844H31.7642V56.9838H28.2477V39.2844Z" fill="#B35F49"/>
<path d="M30.0059 39.2844H31.7642V56.9838H30.0059V39.2844Z" fill="#99503D"/>
<path d="M49.3464 48.0753C49.3464 52.5765 46.8846 56.597 43.2628 58.7416H16.7492C13.1273 56.597 10.666 52.5765 10.666 48.0753C10.666 47.0906 11.4391 46.317 12.4238 46.317H19.4568C23.958 46.317 27.8609 48.7789 30.006 52.4002C32.151 48.7789 36.0539 46.317 40.5551 46.317H47.5882C48.5728 46.317 49.3464 47.0906 49.3464 48.0753Z" fill="#70DA40"/>
<path d="M49.3464 48.0753C49.3464 52.5765 46.8845 56.597 43.2627 58.7416H30.0059V52.4002C32.151 48.7789 36.0539 46.317 40.5551 46.317H47.5881C48.5728 46.317 49.3464 47.0906 49.3464 48.0753Z" fill="#56C225"/>
<path d="M51.0342 23.3552C50.8579 23.1441 50.6474 22.9684 50.4363 22.7573C50.6474 22.5463 50.8584 22.3705 51.0342 22.1595C52.1946 20.6475 52.5814 18.7135 52.0536 16.7442C51.5615 14.9511 50.2958 13.4739 48.5375 12.7708C48.256 12.6655 47.9745 12.595 47.6934 12.5245C47.7987 12.2782 47.8692 11.9972 47.9045 11.7161C48.1503 9.8173 47.5529 7.98853 46.1109 6.54704C44.7747 5.21083 42.9464 4.57729 41.0476 4.85881C40.7661 4.89406 40.5198 4.96455 40.2388 5.06984C40.1683 4.78877 40.0982 4.50725 39.9925 4.22618C39.2894 2.46792 37.8122 1.23699 35.8786 0.709649C34.0498 0.217097 32.151 0.604364 30.6038 1.76433C30.3927 1.94057 30.217 2.1516 30.0059 2.36263C29.7949 2.1516 29.6191 1.94057 29.4086 1.76433C27.8966 0.604364 25.9621 0.217097 24.028 0.744897C22.1997 1.23699 20.723 2.46792 20.0194 4.22618C19.9141 4.50771 19.8436 4.78877 19.7736 5.06984C19.492 4.96455 19.2462 4.89406 18.9647 4.85927C17.0659 4.61299 15.2371 5.21083 13.7956 6.65232C12.4594 7.98853 11.8616 9.8173 12.1079 11.7161C12.1427 11.9976 12.2132 12.2434 12.3189 12.5245C12.0374 12.595 11.7563 12.6655 11.4748 12.7708C9.71651 13.4744 8.4508 14.9511 7.923 16.8852C7.43091 18.7135 7.81772 20.6475 8.97814 22.1595C9.15392 22.371 9.36495 22.5463 9.57598 22.7573C9.36495 22.9684 9.15392 23.1441 8.97814 23.3552C7.81772 24.8672 7.43091 26.8012 7.95825 28.7353C8.4508 30.5636 9.71651 32.0408 11.4748 32.7439C11.7563 32.8496 12.0374 32.9197 12.2836 32.9902C12.2132 33.2717 12.1427 33.5175 12.1079 33.799C11.8616 35.6978 12.4594 37.6438 13.9009 39.0853C15.0261 40.2105 16.5386 40.8435 18.1206 40.8435C18.4021 40.8435 18.6836 40.8083 18.9647 40.773C19.2462 40.7378 19.492 40.6678 19.7736 40.562C19.8436 40.8435 19.9141 41.1246 20.0194 41.4061C20.723 43.1639 22.1997 44.4301 24.1338 44.9575C24.6611 45.0984 25.1889 45.1685 25.681 45.1685C27.0172 45.1685 28.3182 44.7464 29.4086 43.9028C29.6196 43.7265 29.7954 43.516 30.0059 43.3049C30.217 43.516 30.3927 43.727 30.6038 43.9028C31.6937 44.7112 32.9599 45.1685 34.2961 45.1685C34.8587 45.1685 35.4213 45.0984 36.0191 44.9222C37.8126 44.4301 39.2894 43.1639 39.9929 41.4061C40.0982 41.1246 40.1687 40.8435 40.2388 40.562C40.485 40.6678 40.7661 40.7378 41.0476 40.773C41.3287 40.8083 41.6102 40.8435 41.856 40.8435C43.4738 40.8435 44.9858 40.2105 46.2167 38.9795C47.5529 37.6438 48.1507 35.6978 47.9045 33.799C47.8697 33.5175 47.7992 33.2712 47.6934 32.9902C47.9749 32.9197 48.256 32.8496 48.5375 32.7439C50.2958 32.0408 51.5615 30.5636 52.0893 28.63C52.5814 26.8008 52.1946 24.8672 51.0342 23.3552Z" fill="#FDBF00"/>
<path d="M52.0893 28.6295C51.5615 30.5636 50.2958 32.0408 48.5375 32.7439C48.256 32.8492 47.9749 32.9197 47.6934 32.9897C47.7992 33.2712 47.8697 33.5175 47.9044 33.7986C48.1507 35.6974 47.5529 37.6433 46.2167 38.9795C44.9857 40.21 43.4738 40.8431 41.856 40.8431C41.6102 40.8431 41.3287 40.8078 41.0476 40.7726C40.7661 40.7373 40.485 40.6673 40.2387 40.5616C40.1687 40.8431 40.0982 41.1246 39.9929 41.4057C39.2893 43.1639 37.8126 44.4301 36.0191 44.9222C35.4213 45.098 34.8587 45.168 34.2961 45.168C32.9599 45.168 31.6937 44.7112 30.6038 43.9023C30.3927 43.7265 30.2169 43.5155 30.0059 43.3045V2.36172C30.2169 2.15114 30.3927 1.94012 30.6038 1.76388C32.151 0.603906 34.0498 0.216639 35.8786 0.709192C37.8126 1.23653 39.2893 2.46746 39.9925 4.22572C40.0982 4.50679 40.1687 4.78832 40.2387 5.06938C40.5198 4.9641 40.7661 4.8936 41.0476 4.85835C42.9464 4.57683 44.7747 5.21037 46.1109 6.54658C47.5529 7.98808 48.1507 9.81684 47.9044 11.7156C47.8692 11.9967 47.7987 12.2778 47.6934 12.524C47.9745 12.5945 48.256 12.665 48.5375 12.7703C50.2958 13.4734 51.5615 14.9506 52.0536 16.7437C52.5814 18.713 52.1946 20.647 51.0342 22.159C50.8579 22.3701 50.6474 22.5458 50.4363 22.7569C50.6474 22.9679 50.8584 23.1437 51.0342 23.3547C52.1946 24.8672 52.5814 26.8008 52.0893 28.6295Z" fill="#FF9F00"/>
<path d="M30.006 10.4499C23.2192 10.4499 17.6985 15.9705 17.6985 22.7573C17.6985 29.5437 23.2192 35.0647 30.006 35.0647C36.7927 35.0647 42.3134 29.5437 42.3134 22.7573C42.3134 15.9705 36.7927 10.4499 30.006 10.4499Z" fill="#99503D"/>
<path d="M42.3133 22.7573C42.3133 29.5437 36.7927 35.0647 30.0059 35.0647V10.4499C36.7927 10.4499 42.3133 15.9705 42.3133 22.7573Z" fill="#804231"/>
<path d="M56.379 58.7416C56.379 59.7263 55.6054 60.4999 54.6208 60.4999H5.39114C4.40649 60.4999 3.63287 59.7263 3.63287 58.7416C3.63287 57.757 4.40649 56.9838 5.39114 56.9838H54.6208C55.6054 56.9838 56.379 57.757 56.379 58.7416Z" fill="#B35F49"/>
<path d="M56.379 58.7416C56.379 59.7263 55.6054 60.4999 54.6207 60.4999H30.0059V56.9838H54.6207C55.6054 56.9838 56.379 57.757 56.379 58.7416Z" fill="#99503D"/>
</g>
<defs>
<clipPath id="clip0_1_520">
<rect width="60" height="60" fill="white" transform="translate(0 0.5)"/>
</clipPath>
</defs>
</svg>
