<svg width="60" height="61" viewBox="0 0 60 61" fill="none" xmlns="http://www.w3.org/2000/svg">
<g clip-path="url(#clip0_1_224)">
<path d="M30 7.53125C27.0918 7.53125 24.7266 5.16553 24.7266 2.25781C24.7266 1.28644 25.5125 0.5 26.4844 0.5C27.4557 0.5 28.2422 1.28644 28.2422 2.25781C28.2422 3.22781 29.03 4.01562 30 4.01562C30.9695 4.01562 31.7578 3.22781 31.7578 2.25781C31.7578 1.28644 32.5438 0.5 33.5156 0.5C34.487 0.5 35.2734 1.28644 35.2734 2.25781C35.2734 5.16553 32.9077 7.53125 30 7.53125Z" fill="#68544F"/>
<path d="M37.0312 11.1641V13.625C37.0312 14.6092 36.2576 15.3828 35.2734 15.3828H24.7266C23.7419 15.3828 22.9688 14.6092 22.9688 13.625V11.1641C22.9688 7.29688 26.1328 4.01562 30 4.01562C33.8672 4.01562 37.0312 7.29688 37.0312 11.1641Z" fill="#68544F"/>
<path d="M37.0312 11.1641V13.625C37.0312 14.6092 36.2576 15.3828 35.2734 15.3828H30V4.01562C33.8672 4.01562 37.0312 7.29688 37.0312 11.1641Z" fill="#3E322E"/>
<path d="M5.39062 60.5001C4.94064 60.5001 4.49112 60.3284 4.14779 59.9851C3.46115 59.2984 3.46115 58.1861 4.14779 57.4994L7.14844 54.3816V51.5938C7.14844 51.1269 7.33383 50.6806 7.66342 50.351L11.0536 46.9608C11.7403 46.2741 12.8526 46.2741 13.5393 46.9608C14.2259 47.6474 14.2259 48.7598 13.5393 49.4464L10.6641 52.3217V55.1094C10.6641 55.5764 10.4787 56.1399 10.1491 56.4695L6.63345 59.9851C6.29013 60.3284 5.84015 60.5001 5.39062 60.5001Z" fill="#68544F"/>
<path d="M13.716 23.0055C13.2664 23.0055 12.8165 22.8334 12.4731 22.4901L7.66342 17.6803C7.33383 17.3507 7.14844 16.9044 7.14844 16.4375V13.6497L4.14779 10.6491C3.46115 9.96243 3.46115 8.85007 4.14779 8.16342C4.83444 7.47678 5.94681 7.47678 6.63345 8.16342L10.1491 11.679C10.4787 12.0086 10.6641 12.455 10.6641 12.9219V15.7097L14.9588 20.0044C15.6454 20.691 15.6454 21.8034 14.9588 22.4901C14.6155 22.8334 14.166 23.0055 13.716 23.0055Z" fill="#68544F"/>
<path d="M0.514973 38.7741C-0.171673 38.0874 -0.171673 36.9751 0.514973 36.2884L4.0306 32.7728C4.36019 32.4432 4.92369 32.2578 5.39061 32.2578H8.96804C9.93941 32.2578 10.7258 33.0443 10.7258 34.0156C10.7258 34.987 9.93941 35.7734 8.96804 35.7734H6.11846L3.00063 38.7741C2.31398 39.4607 1.20162 39.4607 0.514973 38.7741Z" fill="#68544F"/>
<path d="M53.3665 59.9851L49.8509 56.4695C49.5213 56.1399 49.3359 55.5764 49.3359 55.1094V52.3217L46.4607 49.4464C45.7741 48.7598 45.7741 47.6474 46.4607 46.9608C47.1469 46.2741 48.2597 46.2741 48.9464 46.9608L52.3366 50.351C52.6662 50.6806 52.8516 51.1269 52.8516 51.5938V54.3816L55.8522 57.4994C56.5388 58.1861 56.5388 59.2984 55.8522 59.9851C55.1656 60.6717 54.0532 60.6717 53.3665 59.9851Z" fill="#3E322E"/>
<path d="M46.2836 23.0055C45.834 23.0055 45.3841 22.8334 45.0407 22.4901C44.3545 21.8034 44.3545 20.691 45.0407 20.0044L49.3359 15.7097V12.9219C49.3359 12.455 49.5213 12.0086 49.8509 11.679L53.3665 8.16342C54.0532 7.47678 55.1656 7.47678 55.8522 8.16342C56.5388 8.85007 56.5388 9.96243 55.8522 10.6491L52.8516 13.6497V16.4375C52.8516 16.9044 52.6662 17.3507 52.3366 17.6803L47.5264 22.4901C47.1831 22.8334 46.7335 23.0055 46.2836 23.0055Z" fill="#3E322E"/>
<path d="M56.9994 38.7741L53.8815 35.7734H51.032C50.0601 35.7734 49.2741 34.987 49.2741 34.0156C49.2741 33.0443 50.0601 32.2578 51.032 32.2578H54.6094C55.0763 32.2578 55.6398 32.4432 55.9694 32.7728L59.485 36.2884C60.1717 36.9751 60.1717 38.0874 59.485 38.7741C58.7984 39.4607 57.686 39.4607 56.9994 38.7741Z" fill="#3E322E"/>
<path d="M52.8516 35.7734C52.8516 49.3438 42.5858 60.5 30 60.5C17.4138 60.5 7.14844 49.3438 7.14844 35.7734C7.14844 32.4336 7.78107 29.2343 8.90625 26.3165L17.2032 15.3828C20.8594 12.7108 25.2539 11.1641 30 11.1641C34.7461 11.1641 39.1406 12.7108 42.7968 15.3828L51.0938 26.3165C52.2185 29.2343 52.8516 32.4336 52.8516 35.7734Z" fill="#FF6C6C"/>
<path d="M52.8516 35.7734C52.8516 49.3438 42.5858 60.5 30 60.5V11.1641C34.7461 11.1641 39.1406 12.7108 42.7968 15.3828L51.0938 26.3165C52.2185 29.2343 52.8516 32.4336 52.8516 35.7734Z" fill="#FF193D"/>
<path d="M14.1797 28.7422C18.0574 28.7422 21.2109 25.5887 21.2109 21.711C21.2109 18.9218 19.5667 16.5282 17.2078 15.3925C13.5416 18.0695 10.6366 21.8643 8.90854 26.3161C10.1985 27.7905 12.0708 28.7422 14.1797 28.7422Z" fill="#725D57"/>
<path d="M38.7891 21.711C38.7891 25.5887 41.9426 28.7422 45.8203 28.7422C47.9292 28.7422 49.8015 27.7905 51.091 26.3161C49.3634 21.8639 46.458 18.0695 42.7922 15.3925C40.4329 16.5282 38.7891 18.9218 38.7891 21.711Z" fill="#53433F"/>
<path d="M40.5469 48.0781C37.5893 48.0781 35.2734 44.9901 35.2734 41.0469C35.2734 37.1037 37.5893 34.0156 40.5469 34.0156C43.5045 34.0156 45.8203 37.1037 45.8203 41.0469C45.8203 44.9901 43.5045 48.0781 40.5469 48.0781Z" fill="#53433F"/>
<path d="M19.4531 48.0781C16.4955 48.0781 14.1797 44.9901 14.1797 41.0469C14.1797 37.1037 16.4955 34.0156 19.4531 34.0156C22.4107 34.0156 24.7266 37.1037 24.7266 41.0469C24.7266 44.9901 22.4107 48.0781 19.4531 48.0781Z" fill="#725D57"/>
<path d="M30 23.4688C26.0623 23.4688 22.9688 25.7892 22.9688 28.7422C22.9688 31.6952 26.0623 34.0156 30 34.0156C33.9372 34.0156 37.0312 31.6952 37.0312 28.7422C37.0312 25.7892 33.9372 23.4688 30 23.4688Z" fill="#725D57"/>
<path d="M37.0312 28.7422C37.0312 31.6952 33.9372 34.0156 30 34.0156V23.4688C33.9372 23.4688 37.0312 25.7892 37.0312 28.7422Z" fill="#53433F"/>
</g>
<defs>
<clipPath id="clip0_1_224">
<rect width="60" height="60" fill="white" transform="translate(0 0.5)"/>
</clipPath>
</defs>
</svg>
