<svg width="60" height="61" viewBox="0 0 60 61" fill="none" xmlns="http://www.w3.org/2000/svg">
<g clip-path="url(#clip0_1_185)">
<path d="M28.3594 58.5664H10.6641L14.1797 19.6601C14.2854 18.7107 15.1291 17.9723 16.1133 18.0781H22.793C23.7772 17.9723 24.738 18.7107 24.8438 19.6601L28.3594 58.5664Z" fill="#FED2A4"/>
<path d="M28.3594 58.5664H19.4531V18.0781H22.793C23.7772 17.9723 24.738 18.7107 24.8438 19.6601L28.3594 58.5664Z" fill="#FFBD86"/>
<path d="M38.3089 14.9846C36.0938 6.47656 28.2774 0.5 19.4531 0.5C10.6288 0.5 2.8125 6.47656 0.597382 14.9846C0.21103 16.5666 0.562592 18.2539 1.54678 19.5549C2.56622 20.8554 4.07822 21.5938 5.73029 21.5938H33.176C34.828 21.5938 36.34 20.8554 37.3595 19.5544C38.3437 18.2539 38.6952 16.5666 38.3089 14.9846Z" fill="#FF8597"/>
<path d="M37.3595 19.5544C36.34 20.8554 34.828 21.5938 33.176 21.5938H19.4531V0.5C28.2774 0.5 36.0938 6.47656 38.3089 14.9846C38.6952 16.5666 38.3437 18.2539 37.3595 19.5544Z" fill="#FF4949"/>
<path d="M52.9335 58.3906H35.4259L38.9415 40.5781C39.1173 39.6287 40.0663 38.996 41.0157 39.2071H47.3438C48.328 38.996 49.2421 39.6287 49.4179 40.5781L52.9335 58.3906Z" fill="#FED2A4"/>
<path d="M52.9335 58.3906H44.1797V39.2071H47.3438C48.3279 38.996 49.2421 39.6287 49.4179 40.5781L52.9335 58.3906Z" fill="#FFBD86"/>
<path d="M21.2109 9.28906C21.2109 10.2733 20.4378 11.0469 19.4531 11.0469C18.4685 11.0469 17.6953 10.2733 17.6953 9.28906C17.6953 8.30441 18.4685 7.53125 19.4531 7.53125C20.4378 7.53125 21.2109 8.30441 21.2109 9.28906Z" fill="#FED2A4"/>
<path d="M28.3594 12.8047C28.3594 13.7756 27.5725 14.5625 26.6016 14.5625C25.6306 14.5625 24.8438 13.7756 24.8438 12.8047C24.8438 11.8338 25.6306 11.0469 26.6016 11.0469C27.5725 11.0469 28.3594 11.8338 28.3594 12.8047Z" fill="#FFBD86"/>
<path d="M14.1797 12.8047C14.1797 13.7756 13.3928 14.5625 12.4219 14.5625C11.451 14.5625 10.6641 13.7756 10.6641 12.8047C10.6641 11.8338 11.451 11.0469 12.4219 11.0469C13.3928 11.0469 14.1797 11.8338 14.1797 12.8047Z" fill="#FED2A4"/>
<path d="M59.1563 35.8673C56.9765 29.4334 50.9647 25.1094 44.1797 25.1094C37.3947 25.1094 31.3829 29.4334 29.203 35.832C28.6757 37.4141 28.922 39.1014 29.9062 40.4376C30.8904 41.8438 32.5429 42.6875 34.2302 42.6875H54.1287C55.8165 42.6875 57.4686 41.8438 58.4532 40.4376C59.4374 39.1014 59.6837 37.4141 59.1563 35.8673Z" fill="#FF8597"/>
<path d="M58.4532 40.4376C57.469 41.8438 55.8165 42.6875 54.1292 42.6875H44.1797V25.1094C50.9647 25.1094 56.9765 29.4334 59.1563 35.8673C59.6837 37.4141 59.4374 39.1014 58.4532 40.4376Z" fill="#FF4949"/>
<path d="M49.4531 33.8984C49.4531 34.8694 48.6662 35.6562 47.6953 35.6562C46.7244 35.6562 45.9375 34.8694 45.9375 33.8984C45.9375 32.9275 46.7244 32.1406 47.6953 32.1406C48.6662 32.1406 49.4531 32.9275 49.4531 33.8984Z" fill="#FFBD86"/>
<path d="M42.4219 33.8984C42.4219 34.8694 41.635 35.6562 40.6641 35.6562C39.6931 35.6562 38.9062 34.8694 38.9062 33.8984C38.9062 32.9275 39.6931 32.1406 40.6641 32.1406C41.635 32.1406 42.4219 32.9275 42.4219 33.8984Z" fill="#FED2A4"/>
<path d="M21.2109 9.28906C21.2109 10.2733 20.4378 11.0469 19.4531 11.0469V7.53125C20.4378 7.53125 21.2109 8.30441 21.2109 9.28906Z" fill="#FFBD86"/>
<path d="M60 58.7422C60 59.7136 59.2136 60.5 58.2422 60.5H1.75781C0.786438 60.5 0 59.7136 0 58.7422C0 57.7708 0.786438 56.9844 1.75781 56.9844H58.2422C59.2136 56.9844 60 57.7708 60 58.7422Z" fill="#99503D"/>
</g>
<defs>
<clipPath id="clip0_1_185">
<rect width="60" height="60" fill="white" transform="translate(0 0.5)"/>
</clipPath>
</defs>
</svg>
