<svg width="60" height="61" viewBox="0 0 60 61" fill="none" xmlns="http://www.w3.org/2000/svg">
<g clip-path="url(#clip0_1_160)">
<path d="M23.4768 39.5088L36.8659 56.7234C38.9968 59.4627 43.0457 59.7149 45.4998 57.2609C47.7529 55.0078 47.7529 51.3548 45.4998 49.1021L40.8009 39.431L29.6919 33.2942L23.4768 39.5088Z" fill="#D2C5C2"/>
<path d="M20.9912 37.0231L3.77652 23.634C1.03726 21.5031 0.785036 17.4542 3.23911 15.0001C5.49222 12.747 9.14517 12.747 11.3978 15.0001L21.069 19.6991L27.2058 30.8081L20.9912 37.0231Z" fill="#DFD7D5"/>
<path d="M47.0933 20.8645C45.0302 22.9276 41.699 22.9276 39.6354 20.8645C37.5718 18.8009 37.5723 15.4697 39.6354 13.4066C40.3317 12.7103 41.4253 12.7103 42.1215 13.4066C42.8173 14.1029 42.8173 15.1964 42.1215 15.8922C41.4253 16.5885 41.4253 17.6821 42.1215 18.3784C42.8173 19.0746 43.9114 19.0742 44.6072 18.3784C45.3034 17.6821 46.397 17.6821 47.0933 18.3784C47.7896 19.0746 47.7896 20.1682 47.0933 20.8645Z" fill="#725D57"/>
<path d="M39.6355 20.8645L42.1216 18.3784C42.8174 19.0747 43.9115 19.0747 44.6073 18.3784C45.3035 17.6826 46.3971 17.6826 47.0934 18.3784C47.7892 19.0747 47.7892 20.1683 47.0934 20.8645C45.0302 22.9277 41.6991 22.9277 39.6355 20.8645Z" fill="#68544F"/>
<path d="M42.1216 18.3784C40.058 16.3153 36.7273 16.3153 34.6637 18.3784C32.6005 20.4416 32.6005 23.7727 34.6637 25.8363C36.7268 27.8994 40.0584 27.8994 42.1216 25.8363C44.1847 23.7727 44.1847 20.442 42.1216 18.3784Z" fill="#73BCFF"/>
<path d="M22.234 40.7521L3.00796 59.9782C2.31216 60.674 1.21811 60.674 0.521851 59.9782C-0.17395 59.2819 -0.17395 58.1878 0.521851 57.492L19.7484 38.266C20.4442 37.5697 21.5378 37.5697 22.234 38.266C22.9303 38.9622 22.9303 40.0558 22.234 40.7521Z" fill="#73BCFF"/>
<path d="M27.2058 30.808L8.32077 11.923C5.70786 9.31009 5.70786 5.07349 8.32077 2.46057C11.5187 -0.736908 16.902 0.0925593 18.988 4.10486L30.9348 27.0791L27.2058 30.808Z" fill="#EDE9E8"/>
<path d="M29.6919 33.2941L48.5769 52.1792C51.1898 54.7921 55.4265 54.7921 58.0394 52.1792C61.2368 48.9812 60.4074 43.5979 56.3951 41.5119L33.4208 29.5652L29.6919 33.2941Z" fill="#DFD7D5"/>
<path d="M42.1216 25.8363C40.0584 27.8994 36.7273 27.8994 34.6637 25.8363L42.1216 18.3784C44.1847 20.442 44.1847 23.7727 42.1216 25.8363Z" fill="#3AAAFF"/>
<path d="M22.234 40.7521L3.00796 59.9782C2.31216 60.674 1.21811 60.674 0.521851 59.9782L22.234 38.266C22.9303 38.9622 22.9303 40.0558 22.234 40.7521Z" fill="#3AAAFF"/>
<path d="M37.1498 23.3502C35.0862 21.2871 31.7555 21.2871 29.6919 23.3502L19.7484 33.2942C17.6848 35.3574 17.6848 38.6885 19.7484 40.7521C21.8115 42.8152 25.1427 42.8152 27.2058 40.7521L37.1498 30.8081C39.213 28.745 39.213 25.4138 37.1498 23.3502Z" fill="#9ED0FF"/>
<path d="M37.1498 30.808L27.2058 40.752C25.1427 42.8152 21.8116 42.8152 19.7484 40.752L37.1494 23.3506C39.213 25.4137 39.213 28.7449 37.1498 30.808Z" fill="#73BCFF"/>
</g>
<defs>
<clipPath id="clip0_1_160">
<rect width="60" height="60" fill="white" transform="translate(0 0.5)"/>
</clipPath>
</defs>
</svg>
