<svg width="60" height="61" viewBox="0 0 60 61" fill="none" xmlns="http://www.w3.org/2000/svg">
<g clip-path="url(#clip0_1_201)">
<path d="M38.8164 53.353C38.8279 26.1115 48.981 8.72927 49.0868 8.55303C49.5262 7.81787 49.372 6.87075 48.7197 6.31411C48.0706 5.75656 47.1111 5.74786 46.4519 6.29901C45.5464 7.05477 24.7827 24.7698 24.7832 53.353H38.8164Z" fill="#49A520"/>
<path d="M55.1646 23.379C55.0703 23.4115 45.8193 27.2261 45.8193 53.3529H31.7568C31.7568 24.0776 54.0934 20.0163 54.32 19.9783C55.2163 19.8085 56.0934 20.3971 56.3149 21.2884C56.536 22.1792 56.0352 23.0893 55.1646 23.379Z" fill="#70DA40"/>
<path d="M35.2029 53.3529H21.2109C21.1756 26.1068 11.0156 8.73972 10.9103 8.56394C10.4882 7.82557 10.6287 6.87617 11.2966 6.31403C11.9297 5.75144 12.8786 5.75144 13.547 6.31403C13.7228 6.41932 23.6366 14.9273 29.9999 29.3414C32.9882 36.1264 35.1676 44.2123 35.2029 53.3529Z" fill="#70DA40"/>
<path d="M35.2029 53.3529H30V29.3409C32.9883 36.1264 35.1677 44.2123 35.2029 53.3529Z" fill="#56C225"/>
<path d="M4.83451 23.379C4.92881 23.412 14.1798 27.2261 14.1798 53.353H28.2423C28.2423 24.0781 5.90568 20.0163 5.67909 19.9788C4.78324 19.8085 3.90571 20.3976 3.68461 21.2884C3.46305 22.1793 3.9643 23.0893 4.83451 23.379Z" fill="#90E36A"/>
<path d="M60 53.3529C60 54.3371 59.2268 55.1107 58.2422 55.1107H1.75781C0.773163 55.1107 0 54.3371 0 53.3529C0 52.3683 0.773163 51.5951 1.75781 51.5951H58.2422C59.2268 51.5951 60 52.3683 60 53.3529Z" fill="#B35F49"/>
<path d="M60 53.3529C60 54.3371 59.2268 55.1107 58.2422 55.1107H30V51.5951H58.2422C59.2268 51.5951 60 52.3683 60 53.3529Z" fill="#99503D"/>
</g>
<defs>
<clipPath id="clip0_1_201">
<rect width="60" height="60" fill="white" transform="translate(0 0.5)"/>
</clipPath>
</defs>
</svg>
