<svg width="60" height="61" viewBox="0 0 60 61" fill="none" xmlns="http://www.w3.org/2000/svg">
<g clip-path="url(#clip0_1_243)">
<path d="M22.9688 25.2266C22.6529 25.2266 22.337 25.1424 22.0537 24.9693L3.37509 13.5376C1.2616 12.2504 0 10.005 0 7.53127C0 4.40703 2.0961 1.62611 5.09857 0.769638C8.06992 -0.0836336 11.526 1.19856 13.1548 3.87511L24.4693 22.5537C24.8914 23.2458 24.7847 24.1385 24.2116 24.7116C23.8733 25.0517 23.4219 25.2266 22.9688 25.2266Z" fill="#53433F"/>
<path d="M6.06674 4.1497C6.06491 4.1497 6.06491 4.15107 6.06308 4.15107C4.56299 4.57862 3.51562 5.96931 3.51562 7.5312C3.51562 8.76899 4.14734 9.89143 5.20477 10.5369L17.6971 18.0799L10.1541 5.70472C9.29352 4.29481 7.52426 3.72855 6.06674 4.1497Z" fill="#C6715A"/>
<path d="M37.0312 25.2265C36.578 25.2265 36.1266 25.0516 35.7883 24.7115C35.2152 24.138 35.1086 23.2471 35.5311 22.5536L46.8452 3.87458C48.8877 0.51872 53.6823 -0.478747 56.8908 1.77528C56.8926 1.77528 56.8926 1.77528 56.8926 1.77711C58.7653 3.09364 59.8827 5.24467 59.8827 7.5312C59.8827 10.005 58.6211 12.2503 56.5076 13.5375L37.9462 24.9692C37.6629 25.1423 37.3452 25.2265 37.0312 25.2265Z" fill="#3E322E"/>
<path d="M49.8458 5.70474L42.3027 18.0799L54.6779 10.5369C55.7354 9.89145 56.3671 8.76901 56.3671 7.53122C56.3671 6.38773 55.8077 5.31152 54.8702 4.65097C53.2396 3.51022 50.9293 3.92908 49.8458 5.70474Z" fill="#B35F49"/>
<path d="M52.8516 25.2266C52.8516 11.6562 42.5862 0.5 30 0.5C17.4138 0.5 7.14844 11.6562 7.14844 25.2266C7.14844 36.5118 14.3202 46.3318 24.3398 49.1095L22.9688 58.7422H37.0312L35.6602 49.1095C45.6798 46.3318 52.8516 36.5118 52.8516 25.2266Z" fill="#725D57"/>
<path d="M35.6602 49.1095L37.0312 58.7422H30V0.5C42.5862 0.5 52.8516 11.6562 52.8516 25.2266C52.8516 36.5118 45.6798 46.3318 35.6602 49.1095Z" fill="#68544F"/>
<path d="M42.3047 23.4688C42.3047 24.4397 41.5178 25.2266 40.5469 25.2266C39.576 25.2266 38.7891 24.4397 38.7891 23.4688C38.7891 22.4978 39.576 21.7109 40.5469 21.7109C41.5178 21.7109 42.3047 22.4978 42.3047 23.4688Z" fill="#3E322E"/>
<path d="M21.2109 23.4688C21.2109 24.4397 20.424 25.2266 19.4531 25.2266C18.4822 25.2266 17.6953 24.4397 17.6953 23.4688C17.6953 22.4978 18.4822 21.7109 19.4531 21.7109C20.424 21.7109 21.2109 22.4978 21.2109 23.4688Z" fill="#53433F"/>
<path d="M42.3047 30.5V31.0974C42.3047 34.5077 41.6368 37.8123 40.3358 40.9763C39.2111 43.6483 37.6639 46.2264 35.7303 48.4063C37.1718 50.6915 38.7891 54.3124 38.7891 55.2265C38.7891 58.1443 36.4339 60.5 33.5156 60.5C32.1799 60.5 30.9494 59.9726 30 59.1642C29.0506 59.9726 27.8201 60.5 26.4844 60.5C23.5661 60.5 21.2109 58.1443 21.2109 55.2265C21.2109 54.3124 21.4572 53.3982 21.9141 52.5898L24.3045 48.4416C22.3361 46.2617 20.7889 43.6836 19.6642 40.9763C18.3632 37.8123 17.6953 34.5077 17.6953 31.0974C17.6953 30.1479 18.4685 29.0585 19.4531 29.0585C20.4378 29.0585 21.2109 29.5153 21.2109 30.5V30.8163C21.2109 34.0508 21.7735 36.8981 22.8983 39.6053C24.0234 42.3474 25.6407 44.8907 27.7148 46.9644C28.2774 47.5274 28.418 48.3711 27.9959 49.0742C26.6602 51.3941 25.7813 52.9409 25.1486 53.9256C25.1134 54.0661 25.0429 54.2066 24.9728 54.3476C24.7971 54.6287 24.7266 54.9098 24.7266 55.2265C24.7266 56.2107 25.4997 56.9843 26.4844 56.9843C27.469 56.9843 28.2422 56.2107 28.2422 55.2265C28.2422 54.2419 29.0154 53.4687 30 53.4687C30.9846 53.4687 31.7578 54.2419 31.7578 55.2265C31.7578 56.2107 32.531 56.9843 33.5156 56.9843C34.5003 56.9843 35.2734 56.2107 35.2734 55.2265C35.1329 54.3476 32.883 50.4452 32.1094 49.25C32.0741 49.1795 32.0389 49.1442 32.0041 49.0742C31.6173 48.4411 31.6873 47.5974 32.1446 47.0349C32.2499 46.9644 32.3552 46.8591 32.4257 46.7886C34.4298 44.7497 36.0118 42.2421 37.1017 39.6053C38.2265 36.8981 38.7891 34.0508 38.7891 31.0974C38.7891 30.1479 39.5622 29.0585 40.5469 29.0585C41.5315 29.0585 42.3047 29.5153 42.3047 30.5Z" fill="#68544F"/>
<path d="M35.2734 30.5C35.2734 31.4842 34.5003 32.2578 33.5156 32.2578H26.4844C25.4997 32.2578 24.7266 31.4842 24.7266 30.5C24.7266 29.5154 25.4997 28.7422 26.4844 28.7422H33.5156C34.5003 28.7422 35.2734 29.5154 35.2734 30.5Z" fill="#53433F"/>
<path d="M35.2734 37.5312C35.2734 38.5154 34.5003 39.2891 33.5156 39.2891H26.4844C25.4997 39.2891 24.7266 38.5154 24.7266 37.5312C24.7266 36.5466 25.4997 35.7734 26.4844 35.7734H33.5156C34.5003 35.7734 35.2734 36.5466 35.2734 37.5312Z" fill="#53433F"/>
<path d="M33.5156 39.2891H30V35.7734H33.5156C34.5003 35.7734 35.2734 36.5466 35.2734 37.5312C35.2734 38.5154 34.5003 39.2891 33.5156 39.2891Z" fill="#3E322E"/>
<path d="M33.5156 32.2578H30V28.7422H33.5156C34.5003 28.7422 35.2734 29.5154 35.2734 30.5C35.2734 31.4842 34.5003 32.2578 33.5156 32.2578Z" fill="#3E322E"/>
<path d="M42.3047 30.5V31.0974C42.3047 34.5077 41.6368 37.8123 40.3358 40.9763C39.2111 43.6483 37.6639 46.2264 35.7303 48.4063C37.1718 50.6915 38.7891 54.3124 38.7891 55.2265C38.7891 58.1443 36.4339 60.5 33.5156 60.5C32.1799 60.5 30.9494 59.9726 30 59.1642V53.4687C30.9846 53.4687 31.7578 54.2419 31.7578 55.2265C31.7578 56.2107 32.531 56.9843 33.5156 56.9843C34.5003 56.9843 35.2734 56.2107 35.2734 55.2265C35.1329 54.3476 32.883 50.4452 32.1094 49.25C32.0741 49.1795 32.0389 49.1442 32.0041 49.0742C31.6173 48.4416 31.6873 47.5974 32.1446 47.0349C32.2499 46.9644 32.3552 46.8591 32.4257 46.789C34.4298 44.7497 36.0118 42.2421 37.1017 39.6053C38.2265 36.8986 38.7891 34.0508 38.7891 31.0978C38.7891 30.1484 39.5622 29.0585 40.5469 29.0585C41.5315 29.0585 42.3047 29.5153 42.3047 30.5Z" fill="#53433F"/>
</g>
<defs>
<clipPath id="clip0_1_243">
<rect width="60" height="60" fill="white" transform="translate(0 0.5)"/>
</clipPath>
</defs>
</svg>
