<svg width="60" height="61" viewBox="0 0 60 61" fill="none" xmlns="http://www.w3.org/2000/svg">
<g clip-path="url(#clip0_1_209)">
<path d="M15.8372 25.075C12.2154 25.075 8.71353 23.8665 5.87585 21.5764C2.14233 18.5624 0 14.0837 0 9.28906V5.77344C0 4.80206 0.786438 4.01562 1.75781 4.01562H5.27344C10.0681 4.01562 14.545 6.15613 17.5575 9.89011C20.5806 13.6374 21.7168 18.545 20.6767 23.3548C20.5307 24.0277 20.0038 24.555 19.3291 24.7006C18.1654 24.9514 16.9945 25.075 15.8372 25.075Z" fill="#725D57"/>
<path d="M3.51562 7.53125V9.28906C3.51562 13.0157 5.18097 16.497 8.08365 18.8403C10.6998 20.9533 14.0488 21.8771 17.4371 21.4601C17.8596 18.0749 16.9345 14.7172 14.821 12.0974C12.4796 9.19476 9.00009 7.53125 5.27344 7.53125H3.51562Z" fill="#53433F"/>
<path d="M44.0093 25.1094C42.8558 25.1094 41.6885 24.9858 40.5281 24.7368C39.8551 24.5926 39.3283 24.0675 39.1804 23.3946C38.1266 18.5931 39.2541 13.6836 42.2753 9.92764C45.2984 6.16986 49.7923 4.01562 54.6093 4.01562H58.2421C59.2135 4.01562 59.9999 4.80206 59.9999 5.77344V9.28906C59.9999 14.0905 57.7386 18.5757 54 21.597C51.1555 23.8958 47.6417 25.1094 44.0093 25.1094Z" fill="#68544F"/>
<path d="M42.4146 21.494C45.8103 21.9146 49.1694 20.9826 51.791 18.8627C54.6987 16.5126 56.4844 13.0226 56.4844 9.28906V7.53125H54.6094C50.8635 7.53125 47.3671 9.2085 45.0152 12.1299C42.9039 14.7566 41.982 18.1143 42.4146 21.494Z" fill="#3E322E"/>
<path d="M52.6053 40.1913C51.0232 49.5782 41.4963 56.8672 30 56.8672C18.5037 56.8672 8.85955 49.5782 7.27751 40.1913C5.27342 24.0899 14.3907 4.01562 30 4.01562C45.6798 4.01562 54.6094 24.16 52.6053 40.1913Z" fill="#725D57"/>
<path d="M52.6053 40.1913C51.0233 49.5782 41.4963 56.8672 30 56.8672V4.01562C45.6798 4.01562 54.6094 24.16 52.6053 40.1913Z" fill="#68544F"/>
<path d="M21.0938 19.8359C21.0938 20.8069 20.3069 21.5938 19.3359 21.5938C18.365 21.5938 17.5781 20.8069 17.5781 19.8359C17.5781 18.865 18.365 18.0781 19.3359 18.0781C20.3069 18.0781 21.0938 18.865 21.0938 19.8359Z" fill="#53433F"/>
<path d="M42.3047 19.8359C42.3047 20.8069 41.5178 21.5938 40.5469 21.5938C39.576 21.5938 38.7891 20.8069 38.7891 19.8359C38.7891 18.865 39.576 18.0781 40.5469 18.0781C41.5178 18.0781 42.3047 18.865 42.3047 19.8359Z" fill="#3E322E"/>
<path d="M60 33.8984V37.414C60 42.2654 55.9451 46.2031 51.0938 46.2031H8.78906C3.93768 46.2031 0 42.2654 0 37.414V33.8984C0 33.0895 0.562591 32.3869 1.371 32.1758C2.14462 32 2.95303 32.3869 3.33984 33.1248L3.93768 34.3204C5.41397 37.3083 8.47275 39.1718 11.7773 39.1718H48.1055C51.4101 39.1718 54.586 37.3083 56.0623 34.3204L56.6597 33.1248C57.0465 32.3869 57.8554 32 58.6285 32.1758C59.4374 32.3869 60 33.0895 60 33.8984Z" fill="#EDE9E8"/>
<path d="M60 33.8984V37.414C60 42.2654 55.9451 46.2031 51.0938 46.2031H30V39.1718H48.1055C51.4101 39.1718 54.586 37.3083 56.0623 34.3204L56.6602 33.1248C57.047 32.3869 57.8554 32 58.629 32.1758C59.4374 32.3869 60 33.0895 60 33.8984Z" fill="#DFD7D5"/>
<path d="M30 25.1094C21.2814 25.1094 14.0625 30.6291 14.0625 37.4141C14.0625 46.2031 25.2539 46.2031 30 46.2031C34.7461 46.2031 45.8203 46.2031 45.8203 37.4141C45.8203 30.6291 38.7186 25.1094 30 25.1094Z" fill="#FED2A4"/>
<path d="M45.8203 37.4141C45.8203 46.2031 34.7461 46.2031 30 46.2031V25.1094C38.7186 25.1094 45.8203 30.6291 45.8203 37.4141Z" fill="#FFBD86"/>
<path d="M26.4844 39.1719C25.513 39.1719 24.7266 38.3854 24.7266 37.4141V33.8984C24.7266 32.9271 25.513 32.1406 26.4844 32.1406C27.4557 32.1406 28.2422 32.9271 28.2422 33.8984V37.4141C28.2422 38.3854 27.4557 39.1719 26.4844 39.1719Z" fill="#725D57"/>
<path d="M33.5156 39.1719C32.5443 39.1719 31.7578 38.3854 31.7578 37.4141V33.8984C31.7578 32.9271 32.5443 32.1406 33.5156 32.1406C34.487 32.1406 35.2734 32.9271 35.2734 33.8984V37.4141C35.2734 38.3854 34.487 39.1719 33.5156 39.1719Z" fill="#53433F"/>
</g>
<defs>
<clipPath id="clip0_1_209">
<rect width="60" height="60" fill="white" transform="translate(0 0.5)"/>
</clipPath>
</defs>
</svg>
