<svg width="60" height="61" viewBox="0 0 60 61" fill="none" xmlns="http://www.w3.org/2000/svg">
<g clip-path="url(#clip0_1_258)">
<path d="M0.170669 52.7341C-0.0664529 51.7943 0.505295 50.8389 1.44783 50.6036C4.10103 49.9362 4.5469 48.6334 5.06829 46.0319C6.02731 41.2336 7.70455 39.4346 12.6626 38.4449C16.0903 37.7578 17.0283 36.8858 17.7323 33.3779C18.6859 28.608 20.3393 26.7848 25.3266 25.7891C26.5864 25.5369 27.675 25.319 28.5058 24.6516C29.2611 24.0359 30.3685 24.1609 30.9759 24.9175C31.5852 25.6724 31.4666 26.7788 30.71 27.3863C29.2094 28.5957 27.5116 28.9349 26.0151 29.2333C22.5869 29.9205 21.8829 30.5581 21.1793 34.066C20.2198 38.8652 18.31 40.8995 13.3524 41.8892C9.88534 42.5831 9.21289 43.2446 8.51525 46.7218C7.73522 50.6233 6.36422 52.9959 2.30248 54.0103C1.35536 54.247 0.404129 53.6702 0.170669 52.7341Z" fill="#76E2F8"/>
<path d="M0.438483 35.0209C-0.121363 34.228 0.0695248 33.1322 0.862373 32.5728C2.2732 31.578 3.83052 31.2658 5.20564 30.9912C8.63338 30.3041 9.57134 29.432 10.2754 25.9242C11.2426 21.0865 12.9496 19.3191 17.8679 18.3372C19.1194 18.0868 20.1993 17.8703 21.0264 17.2152C21.7849 16.6059 22.8904 16.7364 23.4947 17.5C24.0989 18.2598 23.9721 19.3644 23.21 19.9669C21.7199 21.1488 20.039 21.4848 18.5577 21.7814C15.1295 22.4685 14.4259 23.1062 13.7219 26.614C12.7546 31.4517 10.8137 33.4535 5.89549 34.4359C4.71263 34.6725 3.69319 34.8767 2.88798 35.4443C2.0933 36.0032 0.998786 35.8133 0.438483 35.0209Z" fill="#76E2F8"/>
<path d="M10.2763 59.7571C9.71688 58.9647 9.90548 57.8683 10.6988 57.3076C11.9576 56.4227 12.2195 55.0174 12.5266 53.4857C13.5012 48.6119 15.2371 46.8705 20.1214 45.8964C23.5871 45.202 24.4949 44.302 25.1911 40.8281C26.163 35.9716 27.8846 34.2207 32.7836 33.2424C34.1707 32.9646 35.3686 32.7261 36.2356 31.8595C36.4572 31.6366 36.6407 31.3949 36.7968 31.1221C37.2725 30.2766 38.3455 29.9781 39.1932 30.4634C40.0378 30.9422 40.3331 32.0143 39.8524 32.8584C39.5453 33.3985 39.1658 33.898 38.7249 34.3402C37.1026 35.9616 35.175 36.3475 33.4735 36.6871C30.0311 37.3765 29.3389 38.0238 28.6377 41.5179C27.691 46.259 25.8178 48.3404 20.8113 49.3411C17.3323 50.0374 16.6685 50.7116 15.9736 54.1751C15.493 56.5816 14.9166 58.6323 12.7276 60.1791C11.9306 60.7367 10.8384 60.5495 10.2763 59.7571Z" fill="#25D9F8"/>
<path d="M21.7177 60.3682C20.8201 59.9974 20.3925 58.9715 20.7615 58.0743C22.0917 54.8604 24.6222 53.9403 27.578 53.3502C31.0062 52.6636 31.9442 51.7915 32.6478 48.2837C33.6091 43.4753 35.2909 41.6832 40.2389 40.6944C41.1485 40.5127 42.0086 40.341 42.7177 39.9963C43.6016 39.5774 44.6435 39.9377 45.0678 40.8075C45.4917 41.6809 45.1278 42.7324 44.2558 43.1562C43.1397 43.6982 42.0155 43.923 40.9287 44.1391C37.4342 44.8394 36.7855 45.5293 36.0947 48.9712C35.1353 53.7704 33.2255 55.8047 28.2683 56.7949C26.31 57.1867 24.7953 57.5181 24.013 59.4124C23.6417 60.3105 22.6149 60.7353 21.7177 60.3682Z" fill="#25D9F8"/>
<path d="M52.3828 8.2706C42.7149 -1.42622 27.4571 -2.12889 16.9102 6.61899C15.293 7.95429 14.5898 9.9918 15.0467 11.9593C15.5388 14.3836 15.8203 16.4563 17.5781 18.2128C19.1954 19.8287 21.1285 20.215 22.8516 20.5314C24.2226 20.8124 25.4178 21.0582 26.2967 21.9367C27.1756 22.7799 27.3866 23.9742 27.6677 25.3795C28.0193 27.0659 28.4061 28.9982 30.0233 30.6145C31.6406 32.2304 33.5742 32.6168 35.2615 32.9684C36.6678 33.2494 37.863 33.4952 38.7067 34.3384C39.5856 35.2169 39.8319 36.4112 40.1129 37.7813C40.9918 42.1726 43.1365 45.2644 48.1636 45.2644C50.9061 45.2644 53.0155 44.2458 54.668 42.5942C56.3201 40.9431 57.5153 38.6245 58.4647 36.0949C62.0508 26.4686 59.6599 15.5426 52.3828 8.2706Z" fill="#A8EBFA"/>
<path d="M58.4647 36.0948C57.5157 38.6244 56.32 40.943 54.668 42.5941C53.0154 44.2453 50.9061 45.2643 48.1641 45.2643C43.1364 45.2643 40.9923 42.1725 40.1134 37.7812C39.8318 36.4111 39.5856 35.2168 38.7066 34.3384C37.863 33.4952 36.6678 33.2493 35.2615 32.9683C33.5742 32.6167 31.6406 32.2303 30.0233 30.6144L52.3828 8.27051C59.6599 15.5426 62.0508 26.4685 58.4647 36.0948Z" fill="#76E2F8"/>
<path d="M52.9454 24.642C53.0507 25.6258 52.3828 26.5038 51.3986 26.609H51.1876C50.3087 26.609 49.5703 25.9416 49.4645 25.0632C49.0429 21.515 47.4257 18.2127 44.9295 15.7184C42.3632 13.1183 39.0939 11.5729 35.4725 11.186C34.5231 11.0812 33.8204 10.2028 33.9257 9.25428C34.031 8.27054 34.9099 7.56787 35.8593 7.67316C40.2539 8.16526 44.2616 10.0622 47.4257 13.224C50.4844 16.2805 52.4528 20.356 52.9454 24.642Z" fill="#76E2F8"/>
<path d="M52.9455 24.642C53.0508 25.6257 52.3829 26.5037 51.3987 26.609H51.1877C50.3088 26.609 49.5704 25.9416 49.4646 25.0632C49.043 21.515 47.4258 18.2127 44.9296 15.7184L47.4258 13.224C50.4845 16.2805 52.4529 20.356 52.9455 24.642Z" fill="#25D9F8"/>
</g>
<defs>
<clipPath id="clip0_1_258">
<rect width="60" height="60" fill="white" transform="translate(0 0.5)"/>
</clipPath>
</defs>
</svg>
