<svg width="60" height="61" viewBox="0 0 60 61" fill="none" xmlns="http://www.w3.org/2000/svg">
<g clip-path="url(#clip0_1_13)">
<path d="M52.4294 44.9141C46.9454 51.1369 38.9295 55.1094 29.9999 55.1094C21.0351 55.1094 13.0192 51.1369 7.53516 44.8788L29.9999 44.5625L52.4294 44.9141Z" fill="#C6715A"/>
<path d="M30 44.5625L52.4295 44.9141C46.9455 51.1369 38.9296 55.1094 30 55.1094V44.5625Z" fill="#99503D"/>
<path d="M57.3986 37.3906C57.0118 38.199 56.5078 39.0079 56.0858 39.7458C55.0663 41.6094 53.8358 43.3319 52.4296 44.914C45.9609 46.9176 38.1918 48.078 30.0001 48.078C21.8437 48.078 14.074 46.9176 7.53534 44.8787C6.16434 43.3319 4.85193 41.6094 3.83203 39.8163C2.70731 37.8475 1.8284 35.7381 1.19531 33.5234L30.0001 37.1091L33.5157 37.5312L57.3986 37.3906Z" fill="#B35F49"/>
<path d="M57.3985 37.3907C57.0117 38.1991 56.5077 39.0079 56.0857 39.7458C55.0662 41.6094 53.8358 43.332 52.4295 44.914C45.9608 46.9176 38.1917 48.0781 30 48.0781V37.1091L33.5156 37.5312L57.3985 37.3907Z" fill="#804231"/>
<path d="M60 23.4688V25.2266C60 27.969 59.6132 30.6057 58.9101 33.1015C58.4885 34.5782 57.9959 36.0197 57.3985 37.3907C50.6483 39.7111 42.3047 41.0469 33.5156 41.0469C32.3204 41.0469 31.1604 41.0116 30 40.9411C18.3984 40.5195 7.9454 37.7423 1.19522 33.5235C0.738373 31.871 0.38681 30.1837 0.175781 28.4607C0.0704955 27.4064 0 26.3165 0 25.2266V23.4688C0 22.4841 0.773163 21.7109 1.75781 21.7109H58.2422C59.2268 21.7109 60 22.4841 60 23.4688Z" fill="#C6715A"/>
<path d="M60 23.4688V25.2266C60 27.969 59.6132 30.6057 58.9101 33.1015C58.4885 34.5782 57.9959 36.0197 57.3985 37.3907C50.6483 39.7111 42.3047 41.0469 33.5156 41.0469C32.3204 41.0469 31.1604 41.0116 30 40.9411V21.7109H58.2422C59.2268 21.7109 60 22.4841 60 23.4688Z" fill="#99503D"/>
<path d="M0 23.4686C0 25.3189 3.17917 26.9975 8.14636 28.2532V18.6841C3.17917 19.9397 0 21.6183 0 23.4686Z" fill="#68544F"/>
<path d="M51.8535 18.6841V28.2532C56.8207 26.9975 59.9999 25.3189 59.9999 23.4686C59.9999 21.6183 56.8207 19.9397 51.8535 18.6841Z" fill="#53433F"/>
<path d="M19.0608 13.6401C18.0872 13.1938 17.0416 12.9219 15.9375 12.9219C10.7565 12.9219 7.14844 18.2077 7.14844 23.4688C7.14844 25.2009 7.52975 26.8113 8.14636 28.2533C11.7668 29.1684 16.3971 29.8568 21.6371 30.2157L19.0608 13.6401Z" fill="#F6A96C"/>
<path d="M44.0624 12.9219C42.9583 12.9219 41.9128 13.1938 40.9391 13.6401L38.3628 30.2157C43.6028 29.8568 48.2331 29.1684 51.8535 28.2533C52.4702 26.8113 52.8515 25.2009 52.8515 23.4688C52.8515 18.2045 49.2402 12.9219 44.0624 12.9219Z" fill="#EA9B58"/>
<path d="M42.3047 19.9531C42.3047 24.0313 40.7579 27.6523 38.367 30.2185C35.8008 30.3943 32.8125 30.5 30 30.5C27.1875 30.5 24.1992 30.3943 21.633 30.2185C19.2421 27.6523 17.6953 24.0313 17.6953 19.9531C17.6953 12.7461 22.8983 5.89062 30 5.89062C37.1017 5.89062 42.3047 12.7461 42.3047 19.9531Z" fill="#FED2A4"/>
<path d="M38.367 30.2185C35.8008 30.3943 32.8125 30.5 30 30.5V5.89062C37.1017 5.89062 42.3047 12.7461 42.3047 19.9531C42.3047 24.0313 40.7579 27.6523 38.367 30.2185Z" fill="#FFBD86"/>
</g>
<defs>
<clipPath id="clip0_1_13">
<rect width="60" height="60" fill="white" transform="translate(0 0.5)"/>
</clipPath>
</defs>
</svg>
