<svg width="60" height="61" viewBox="0 0 60 61" fill="none" xmlns="http://www.w3.org/2000/svg">
<g clip-path="url(#clip0_1_267)">
<path d="M20.6255 25.227H19.7004C16.7546 25.227 14.0218 23.7645 12.3876 21.3132L7.9656 14.6802H5.39068C4.41931 14.6802 3.63287 13.8937 3.63287 12.9224C3.63287 11.951 4.41931 11.1646 5.39068 11.1646H8.9063C9.49316 11.1646 10.0425 11.458 10.3689 11.9473L15.3127 19.3631C16.2928 20.8343 17.9338 21.7114 19.7004 21.7114H20.6255C21.5973 21.7114 22.3833 22.4974 22.3833 23.4692C22.3833 24.4406 21.5973 25.227 20.6255 25.227Z" fill="#53433F"/>
<path d="M12.4201 60.5C12.156 60.5 11.8882 60.44 11.6355 60.3146C10.7671 59.8802 10.4151 58.7074 10.8495 57.839L14.0387 51.4583L12.2983 46.2315C11.754 44.6042 12.0182 42.872 13.0211 41.4799C14.0236 40.0874 15.5837 39.2896 17.2989 39.2896H19.4532C20.4245 39.2896 21.211 40.0755 21.211 41.0474C21.211 42.0187 20.4245 42.8052 19.4532 42.8052H17.2989C16.7272 42.8052 16.2072 43.0711 15.8739 43.5348C15.5393 43.9999 15.4514 44.5767 15.6318 45.1192L17.6043 51.038C17.7521 51.4807 17.7178 51.9632 17.51 52.3802L13.9943 59.5286C13.6853 60.1448 13.0655 60.5 12.4201 60.5Z" fill="#53433F"/>
<path d="M16.1834 28.7427C13.2303 28.7427 10.5236 30.219 8.87105 32.6446L4.44128 39.2895H1.75787C0.773223 39.2895 6.10352e-05 40.0627 6.10352e-05 41.0473C6.10352e-05 42.0315 0.773223 42.8052 1.75787 42.8052H5.39068C5.98806 42.8052 6.51586 42.5236 6.86696 42.0315L11.7888 34.6135C12.7735 33.1372 14.4255 32.2583 16.1834 32.2583H17.6953L21.211 30.5005L17.6953 28.7427H16.1834Z" fill="#53433F"/>
<path d="M40.2997 25.227H39.3741C38.4027 25.227 37.6163 24.4406 37.6163 23.4692C37.6163 22.4974 38.4027 21.7114 39.3741 21.7114H40.2997C42.0657 21.7114 43.7068 20.8343 44.6869 19.3631L49.6307 11.9473C49.9571 11.458 50.5064 11.1646 51.0933 11.1646H54.6089C55.5807 11.1646 56.3667 11.951 56.3667 12.9224C56.3667 13.8937 55.5807 14.6802 54.6089 14.6802H52.034L47.612 21.3132C45.9778 23.7645 43.2449 25.227 40.2997 25.227Z" fill="#3E322E"/>
<path d="M47.5795 60.5C46.934 60.5 46.3142 60.1447 46.0052 59.5286L42.4896 52.3802C42.2822 51.9627 42.2479 51.4807 42.3953 51.0375L44.3678 45.1187C44.5477 44.5762 44.4603 43.9994 44.1256 43.5344C43.7928 43.0711 43.2724 42.8047 42.7011 42.8047H40.5464C39.575 42.8047 38.7886 42.0187 38.7886 41.0469C38.7886 40.0755 39.575 39.2891 40.5464 39.2891H42.7011C44.4159 39.2891 45.9764 40.0874 46.9789 41.4795C47.9814 42.8715 48.2455 44.6037 47.7012 46.231L45.9608 51.4582L49.15 57.8385C49.5845 58.7074 49.2324 59.8802 48.3641 60.3146C48.1118 60.44 47.844 60.5 47.5795 60.5Z" fill="#3E322E"/>
<path d="M43.8162 32.2582C45.574 32.2582 47.2265 33.1371 48.2107 34.6134L53.1326 42.0314C53.4841 42.5235 54.0115 42.805 54.6089 42.805H58.2417C59.2263 42.805 59.9995 42.0314 59.9995 41.0472C59.9995 40.0626 59.2263 39.2894 58.2417 39.2894H55.5583L51.1285 32.6445C49.476 30.2188 46.7692 28.7426 43.8162 28.7426H42.3042L38.7886 30.5004L42.3042 32.2582H43.8162Z" fill="#3E322E"/>
<path d="M40.7222 13.9418L39.3512 20.9025C39.1754 21.7114 38.4375 22.3088 37.6286 22.3088C37.4881 22.3088 37.3824 22.2735 37.2771 22.2735H22.7225C21.7736 22.4493 20.8594 21.8519 20.6484 20.9025L19.2774 13.9418C18.2227 8.63311 20.8594 3.10196 25.7112 0.676272C26.3791 0.359958 27.1875 0.465243 27.7149 1.02783C28.2775 1.55518 28.3827 2.36359 28.0664 3.03192C26.1681 6.82861 26.4492 11.4456 28.8048 14.9612L30 16.7895L31.1957 14.9612C33.5509 11.4456 33.832 6.82861 31.9336 3.03192C31.6173 2.36359 31.7226 1.55518 32.2852 1.02783C32.8125 0.465243 33.6214 0.359958 34.2888 0.676272C39.1402 3.10196 41.7769 8.63311 40.7222 13.9418Z" fill="#53433F"/>
<path d="M37.2771 22.2735H30V16.7895L31.1952 14.9612C33.5504 11.4456 33.8319 6.82861 31.9336 3.03146C31.6173 2.36359 31.7226 1.55518 32.2852 1.02783C32.8125 0.465243 33.6209 0.359958 34.2888 0.676272C39.1402 3.10196 41.7769 8.63311 40.7222 13.9418L39.3512 20.9025C39.1754 21.7114 38.4375 22.3088 37.6286 22.3088C37.4881 22.3088 37.3823 22.2735 37.2771 22.2735Z" fill="#3E322E"/>
<path d="M40.687 25.1213L39.457 28.7427L35.7656 32.2583H24.234L20.5426 28.7427L19.3126 25.1213C18.7848 23.5045 19.0664 21.7815 20.0505 20.3752C21.0704 19.0042 22.6172 18.1958 24.3398 18.1958H28.2422L30 21.7114L31.7578 18.1958H35.6598C37.3824 18.1958 38.9296 19.0042 39.949 20.3752C40.9332 21.7815 41.2148 23.5045 40.687 25.1213Z" fill="#68544F"/>
<path d="M40.6869 25.1213L39.4569 28.7427L35.7655 32.2583H30V21.7114L31.7578 18.1958H35.6598C37.3823 18.1958 38.9296 19.0042 39.949 20.3752C40.9332 21.7815 41.2147 23.5045 40.6869 25.1213Z" fill="#53433F"/>
<path d="M42.3042 28.7426V41.0472C42.3042 47.8322 36.7849 53.3514 30 53.3514C23.2146 53.3514 17.6953 47.8322 17.6953 41.0472V28.7426H26.4844C26.6249 28.7426 26.7302 28.7426 26.8355 28.7778C28.0664 28.8478 29.1559 29.3399 30 30.1136C30.8436 29.3399 31.9336 28.8478 33.164 28.7778C33.2693 28.7426 33.4099 28.7426 33.5156 28.7426H42.3042Z" fill="#90E36A"/>
<path d="M42.3042 28.7426V41.0472C42.3042 47.8322 36.785 53.3514 30 53.3514V30.1136C30.8437 29.3399 31.9336 28.8478 33.1641 28.7778C33.2693 28.7426 33.4099 28.7426 33.5156 28.7426H42.3042Z" fill="#56C225"/>
<path d="M31.7578 18.1958V23.4692C31.7578 24.4534 30.9842 25.227 30 25.227C29.0153 25.227 28.2422 24.4534 28.2422 23.4692V18.1958H31.7578Z" fill="#53433F"/>
<path d="M31.7578 18.1958V23.4692C31.7578 24.4534 30.9842 25.227 30 25.227V18.1958H31.7578Z" fill="#3E322E"/>
</g>
<defs>
<clipPath id="clip0_1_267">
<rect width="60" height="60" fill="white" transform="translate(0 0.5)"/>
</clipPath>
</defs>
</svg>
