<svg width="60" height="61" viewBox="0 0 60 61" fill="none" xmlns="http://www.w3.org/2000/svg">
<g clip-path="url(#clip0_1_633)">
<path d="M24.7266 41.0469H28.2422V58.7422H24.7266V41.0469Z" fill="#68544F"/>
<path d="M26.4844 41.0469H28.2422V58.7422H26.4844V41.0469Z" fill="#53433F"/>
<path d="M35.2734 48.0781V51.5937C35.2734 52.5779 34.5003 53.3515 33.5156 53.3515C32.531 53.3515 31.7578 52.5779 31.7578 51.5937V49.8359H19.4531C18.8557 49.8359 18.2927 49.5196 17.9416 48.9922C17.6248 48.5001 17.6248 47.8318 17.8711 47.3045L21.3867 40.2732C21.8436 39.3943 22.8983 39.0427 23.7419 39.4648C24.6208 39.9216 24.9724 40.9763 24.5508 41.82L22.3009 46.3203H33.5156C34.5003 46.3203 35.2734 47.0934 35.2734 48.0781Z" fill="#725D57"/>
<path d="M35.2734 48.0781V51.5938C35.2734 52.5779 34.5003 53.3516 33.5156 53.3516C32.531 53.3516 31.7578 52.5779 31.7578 51.5938V49.8359H26.4844V46.3203H33.5156C34.5003 46.3203 35.2734 47.0935 35.2734 48.0781Z" fill="#68544F"/>
<path d="M47.5781 4.01562H47.2778L38.7891 12.8047C38.7891 13.7761 39.5755 14.5625 40.5469 14.5625H54.6094C55.5807 14.5625 56.3672 13.7761 56.3672 12.8047C56.3672 7.9588 52.424 4.01562 47.5781 4.01562Z" fill="#53433F"/>
<path d="M49.3359 7.53125C49.3359 11.3984 46.1719 14.5625 42.3047 14.5625V34.0156C42.3047 38.867 38.367 42.8047 33.5156 42.8047H17.6953L15.9375 39.2891L14.1797 42.8047H8.90625C7.9216 42.8047 7.14844 42.0311 7.14844 41.0469V37.5312C7.14844 28.8122 14.2502 21.7109 22.9688 21.7109H31.7578V9.28906C31.7578 4.43768 35.6955 0.5 40.5469 0.5H42.3047C46.1719 0.5 49.3359 3.66406 49.3359 7.53125Z" fill="#FF9AC9"/>
<path d="M49.3359 7.53125C49.3359 11.3984 46.1719 14.5625 42.3047 14.5625V34.0156C42.3047 38.867 38.367 42.8047 33.5156 42.8047H26.4844V21.7109H31.7578V9.28906C31.7578 4.43768 35.6955 0.5 40.5469 0.5H42.3047C46.1719 0.5 49.3359 3.66406 49.3359 7.53125Z" fill="#FF7CB9"/>
<path d="M60 58.7422C60 59.7264 59.2268 60.5 58.2422 60.5H1.7578C0.773153 60.5 -9.53674e-06 59.7264 -9.53674e-06 58.7422C-9.53674e-06 57.7575 0.773153 56.9844 1.7578 56.9844H58.2422C59.2268 56.9844 60 57.7575 60 58.7422Z" fill="#76E2F8"/>
<path d="M42.3047 51.5938C42.3047 52.5647 41.5178 53.3516 40.5469 53.3516C39.576 53.3516 38.7891 52.5647 38.7891 51.5938C38.7891 50.6228 39.576 49.8359 40.5469 49.8359C41.5178 49.8359 42.3047 50.6228 42.3047 51.5938Z" fill="#73BCFF"/>
<path d="M14.1797 51.5938C14.1797 52.5647 13.3928 53.3516 12.4219 53.3516C11.451 53.3516 10.6641 52.5647 10.6641 51.5938C10.6641 50.6228 11.451 49.8359 12.4219 49.8359C13.3928 49.8359 14.1797 50.6228 14.1797 51.5938Z" fill="#9ED0FF"/>
<path d="M28.2422 30.5C28.2422 31.4842 27.469 32.2578 26.4844 32.2578H22.9688C20.0505 32.2578 17.6953 34.613 17.6953 37.5312V42.8047H14.1797V37.5312C14.1797 32.6799 18.1174 28.7422 22.9688 28.7422H26.4844C27.469 28.7422 28.2422 29.5154 28.2422 30.5Z" fill="#FF7CB9"/>
<path d="M26.4844 32.2578V28.7422C27.469 28.7422 28.2422 29.5154 28.2422 30.5C28.2422 31.4842 27.469 32.2578 26.4844 32.2578Z" fill="#FF5CA8"/>
</g>
<defs>
<clipPath id="clip0_1_633">
<rect width="60" height="60" fill="white" transform="translate(0 0.5)"/>
</clipPath>
</defs>
</svg>
