<svg width="60" height="61" viewBox="0 0 60 61" fill="none" xmlns="http://www.w3.org/2000/svg">
<g clip-path="url(#clip0_1_383)">
<path d="M59.9405 16.2C58.6153 12.1108 54.5517 8.74985 50.018 7.84028C47.5378 7.32163 44.9236 7.45713 42.4567 8.23304C41.1333 8.64503 39.8405 9.25294 38.6151 10.0389L50.0629 20.4517C50.1434 20.2196 50.3325 20.0053 50.6291 19.8131C51.4 19.3031 52.9729 19.1846 54.5128 20.2576C55.1202 20.6714 55.8206 20.8843 56.5297 20.8843C56.9005 20.8843 57.2745 20.8257 57.6384 20.7076C58.5484 20.4137 59.2882 19.7838 59.724 18.9324C60.1584 18.0795 60.2357 17.1095 59.9405 16.2Z" fill="#56C225"/>
<path d="M17.6655 8.23488C15.1955 7.4608 12.5775 7.3253 10.1143 7.83663C5.56548 8.74986 1.6191 12.1108 0.293872 16.2C-0.00184317 17.1095 0.0755189 18.0795 0.509937 18.9324C0.946185 19.7838 1.68593 20.4141 2.5923 20.7076C2.94432 20.8206 3.30458 20.8806 3.66851 20.8806C4.40505 20.8788 5.15853 20.6403 5.89324 20.1358C7.26149 19.1882 8.71352 19.3013 9.5082 19.8268C9.95635 20.1152 10.0625 20.4256 10.0868 20.5853L21.6824 10.1557C20.4053 9.31475 19.0526 8.66747 17.6655 8.23488Z" fill="#70DA40"/>
<path d="M15.0362 52.1215L7.86438 38.818C7.19833 39.5371 6.60964 40.3011 6.11709 41.0803C4.72503 43.2656 3.91479 45.7581 3.77746 48.2726C3.4822 52.9006 5.70693 57.5836 9.3132 59.9214C9.90051 60.3027 10.5698 60.5 11.2546 60.5C11.5054 60.5 11.7577 60.4725 12.0085 60.4194C12.9423 60.2203 13.7439 59.6691 14.2657 58.8644C14.8732 57.9237 15.0073 56.7802 14.566 55.5305C14.0149 54.0011 14.4749 52.7395 15.0362 52.1215Z" fill="#70DA40"/>
<path d="M54.1191 41.0871C53.6229 40.3011 53.0342 39.5371 52.3682 38.818L45.1964 52.1215C45.7576 52.739 46.2177 54.0011 45.5965 55.726C45.2257 56.7802 45.3594 57.9232 45.9691 58.8658C46.4891 59.6691 47.2907 60.2203 48.2245 60.4194C48.4767 60.4725 48.729 60.5 48.978 60.5C49.6628 60.5 50.3325 60.3022 50.918 59.9214C54.5261 57.5836 56.7508 52.9006 56.4556 48.2882C56.3182 45.7581 55.508 43.2656 54.1191 41.0871Z" fill="#56C225"/>
<path d="M38.9053 9.28861V10.4843C38.9053 11.4685 38.1317 12.2421 37.1475 12.2421H23.0854C22.1008 12.2421 21.3276 11.4685 21.3276 10.4843V9.28861C21.3276 4.43723 25.2649 0.5 30.1162 0.5C34.9676 0.5 38.9053 4.43723 38.9053 9.28861Z" fill="#70DA40"/>
<path d="M38.9053 9.28861V10.4843C38.9053 11.4685 38.1317 12.2421 37.1475 12.2421H30.1163V0.5C34.9677 0.5 38.9053 4.43723 38.9053 9.28861Z" fill="#56C225"/>
<path d="M30.1163 7.53125C17.531 7.53125 7.26562 17.7961 7.26562 30.3819V37.6475C7.26562 50.2328 17.5305 60.4982 30.1163 60.4982C42.702 60.4982 52.9674 50.2328 52.9674 37.6475V30.3819C52.9674 17.7961 42.702 7.53125 30.1163 7.53125Z" fill="#725D57"/>
<path d="M52.9674 30.3819V37.6475C52.9674 50.2328 42.702 60.4982 30.1163 60.4982V7.53125C42.702 7.53125 52.9674 17.7961 52.9674 30.3819Z" fill="#53433F"/>
<path d="M30.1163 46.4361L28.8734 42.4055L21.4613 38.3204L18.278 38.5484L16.0579 44.6747L16.0291 44.6962C18.6319 49.873 23.9374 53.4674 30.1163 53.4674L33.6319 50.318L30.1163 46.4361Z" fill="#B35F49"/>
<path d="M30.1162 14.562C23.9309 14.562 18.6195 18.1637 16.0203 23.3492L16.0574 23.3543L15.1689 29.9589L21.4613 29.709C21.5492 29.4979 28.7086 29.3038 28.8734 29.139L30.1162 21.5933L33.6319 18.9309L30.1162 14.562Z" fill="#B35F49"/>
<path d="M21.4613 29.709L16.0579 23.3543L16.0203 23.3492C14.9533 25.4774 14.2964 27.8436 14.2964 30.3819V37.6475C14.2964 40.1922 14.9574 42.5643 16.029 44.6966L16.0579 44.6751L21.4618 38.3204C21.3739 38.1089 24.8433 34.3653 24.8433 34.1319L21.4613 29.709Z" fill="#99503D"/>
<path d="M44.2108 23.3456L44.1751 23.3543L37.5645 23.4783L38.7712 29.709C38.8586 29.92 35.3897 33.8984 35.3897 34.1319L38.7712 38.3199L38.2347 45.3388L44.1751 44.6746L44.2058 44.6925C45.2769 42.5616 45.9361 40.1908 45.9361 37.647V30.3819C45.9361 27.8422 45.2783 25.4746 44.2108 23.3456Z" fill="#804231"/>
<path d="M30.1163 14.562V21.5933L31.3591 29.139C31.5239 29.3038 38.6838 29.4979 38.7712 29.709L44.1751 23.3543L44.2104 23.3456C41.6103 18.1619 36.3002 14.562 30.1163 14.562Z" fill="#99503D"/>
<path d="M44.1751 44.6751L38.7712 38.3204L31.3591 38.8899L30.1163 46.4361V53.4674C36.2965 53.4674 41.6034 49.8712 44.2058 44.693L44.1751 44.6751Z" fill="#99503D"/>
<path d="M38.9053 30.3819V37.6475C38.9053 37.8933 38.8701 38.1043 38.7648 38.3154C38.6943 38.5264 38.5537 38.737 38.378 38.8775L31.3467 45.9088C31.0304 46.2603 30.5735 46.4361 30.1162 46.4361C29.6594 46.4361 29.2025 46.2603 28.8862 45.9088L21.855 38.8775C21.6792 38.737 21.5387 38.5264 21.4682 38.3154C21.3629 38.1043 21.3276 37.8933 21.3276 37.6475V30.3819C21.3276 30.136 21.3629 29.925 21.4682 29.714C21.5387 29.503 21.6792 29.2919 21.855 29.1514L28.8862 22.1206C29.2025 21.769 29.6594 21.5933 30.1162 21.5933C30.5735 21.5933 31.0304 21.769 31.3467 22.1206L38.378 29.1514C38.5537 29.2919 38.6943 29.503 38.7648 29.714C38.8701 29.925 38.9053 30.136 38.9053 30.3819Z" fill="#C6715A"/>
<path d="M38.7648 29.714C38.8701 29.925 38.9053 30.136 38.9053 30.3819V37.6475C38.9053 37.8933 38.8701 38.1043 38.7648 38.3154C38.6943 38.5264 38.5538 38.737 38.378 38.8775L31.3467 45.9088C31.0304 46.2603 30.5736 46.4361 30.1163 46.4361V21.5933C30.5736 21.5933 31.0304 21.769 31.3467 22.1206L38.378 29.1514C38.5538 29.2919 38.6943 29.503 38.7648 29.714Z" fill="#B35F49"/>
</g>
<defs>
<clipPath id="clip0_1_383">
<rect width="60" height="60" fill="white" transform="translate(0 0.5)"/>
</clipPath>
</defs>
</svg>
