<svg width="60" height="61" viewBox="0 0 60 61" fill="none" xmlns="http://www.w3.org/2000/svg">
<g clip-path="url(#clip0_1_400)">
<path d="M24.7266 18.1953V4.01562H10.5469V18.1953L18.0908 21.7109L24.7266 18.1953Z" fill="#68544F"/>
<path d="M35.2734 18.1953V4.01562H49.4531V18.1953L41.792 21.7109L35.2734 18.1953Z" fill="#53433F"/>
<path d="M38.7891 27.547L35.2734 35.7734H24.7266L21.2109 28.0743L24.7266 18.1953H35.2734L38.7891 27.547Z" fill="#53433F"/>
<path d="M38.7891 27.547L35.2734 35.7734H30V18.1953H35.2734L38.7891 27.547Z" fill="#3E322E"/>
<path d="M24.7266 18.1953H8.78906C7.98294 18.1953 7.28027 18.7437 7.08481 19.526L0 49.8359L12.3047 53.3516L24.7266 49.8359V18.1953Z" fill="#90E36A"/>
<path d="M35.2734 18.1953H51.2109C52.0171 18.1953 52.7197 18.7437 52.9152 19.526L60 49.8359L47.6953 53.3516L35.2734 49.8359V18.1953Z" fill="#70DA40"/>
<path d="M58.2422 60.5H37.0312C36.0603 60.5 35.2734 59.7131 35.2734 58.7422V49.8359H60V58.7422C60 59.7131 59.2131 60.5 58.2422 60.5Z" fill="#53433F"/>
<path d="M26.4844 7.53125H8.78906C7.81769 7.53125 7.03125 6.74481 7.03125 5.77344V2.25781C7.03125 1.28644 7.81769 0.5 8.78906 0.5H26.4844C27.4557 0.5 28.2422 1.28644 28.2422 2.25781V5.77344C28.2422 6.74481 27.4557 7.53125 26.4844 7.53125Z" fill="#90E36A"/>
<path d="M1.75781 60.5H22.9688C23.9397 60.5 24.7266 59.7131 24.7266 58.7422V49.8359H0V58.7422C0 59.7131 0.786896 60.5 1.75781 60.5Z" fill="#68544F"/>
<path d="M31.7578 16.4375V37.5312C31.7578 38.5154 30.9846 39.2891 30 39.2891C29.0154 39.2891 28.2422 38.5154 28.2422 37.5312V16.4375C28.2422 15.4529 29.0154 14.6797 30 14.6797C30.9846 14.6797 31.7578 15.4529 31.7578 16.4375Z" fill="#68544F"/>
<path d="M31.7578 5.77344V2.25781C31.7578 1.28644 32.5443 0.5 33.5156 0.5H51.2109C52.1823 0.5 52.9688 1.28644 52.9688 2.25781V5.77344C52.9688 6.74481 52.1823 7.53125 51.2109 7.53125H33.5156C32.5443 7.53125 31.7578 6.74481 31.7578 5.77344Z" fill="#70DA40"/>
<path d="M31.7578 16.4375V37.5312C31.7578 38.5154 30.9846 39.2891 30 39.2891V14.6797C30.9846 14.6797 31.7578 15.4529 31.7578 16.4375Z" fill="#53433F"/>
</g>
<defs>
<clipPath id="clip0_1_400">
<rect width="60" height="60" fill="white" transform="translate(0 0.5)"/>
</clipPath>
</defs>
</svg>
