<svg width="60" height="61" viewBox="0 0 60 61" fill="none" xmlns="http://www.w3.org/2000/svg">
<g clip-path="url(#clip0_1_294)">
<path d="M33.5156 0.5H26.4844C23.5661 0.5 21.2109 2.85519 21.2109 5.77344C21.2109 8.69122 23.5661 11.0469 26.4844 11.0469H33.5156C36.4339 11.0469 38.7891 8.69122 38.7891 5.77344C38.7891 2.85519 36.4339 0.5 33.5156 0.5ZM33.5156 7.53125H26.4844C25.4997 7.53125 24.7266 6.75763 24.7266 5.77344C24.7266 4.78879 25.4997 4.01562 26.4844 4.01562H33.5156C34.5003 4.01562 35.2734 4.78879 35.2734 5.77344C35.2734 6.75763 34.5003 7.53125 33.5156 7.53125Z" fill="#FDBF00"/>
<path d="M38.7891 5.77344C38.7891 8.69122 36.4339 11.0469 33.5156 11.0469H30V7.53125H33.5156C34.5003 7.53125 35.2734 6.75763 35.2734 5.77344C35.2734 4.78879 34.5003 4.01562 33.5156 4.01562H30V0.5H33.5156C36.4339 0.5 38.7891 2.85519 38.7891 5.77344Z" fill="#FF9F00"/>
<path d="M30 7.53125C15.4454 7.53125 3.63281 19.461 3.63281 34.0156C3.63281 48.5702 15.4454 60.5 30 60.5C44.5546 60.5 56.3672 48.5702 56.3672 34.0156C56.3672 19.461 44.5546 7.53125 30 7.53125Z" fill="#B35F49"/>
<path d="M56.3672 34.0156C56.3672 48.5702 44.5546 60.5 30 60.5V7.53125C44.5546 7.53125 56.3672 19.461 56.3672 34.0156Z" fill="#804231"/>
<path d="M30 14.6797C19.3474 14.6797 10.6641 23.363 10.6641 34.0156C10.6641 44.6678 19.3474 53.3516 30 53.3516C40.6526 53.3516 49.3359 44.6678 49.3359 34.0156C49.3359 23.363 40.6526 14.6797 30 14.6797Z" fill="#EDE9E8"/>
<path d="M49.3359 34.0156C49.3359 44.6678 40.6526 53.3516 30 53.3516V14.6797C40.6526 14.6797 49.3359 23.363 49.3359 34.0156Z" fill="#DFD7D5"/>
<path d="M31.7578 16.4375V19.9531C31.7578 20.9373 30.9846 21.7109 30 21.7109C29.0154 21.7109 28.2422 20.9373 28.2422 19.9531V16.4375C28.2422 15.4529 29.0154 14.6797 30 14.6797C30.9846 14.6797 31.7578 15.4529 31.7578 16.4375Z" fill="#68544F"/>
<path d="M31.7578 48.0781V51.5938C31.7578 52.5779 30.9846 53.3516 30 53.3516C29.0154 53.3516 28.2422 52.5779 28.2422 51.5938V48.0781C28.2422 47.0935 29.0154 46.3203 30 46.3203C30.9846 46.3203 31.7578 47.0935 31.7578 48.0781Z" fill="#68544F"/>
<path d="M15.9375 35.7734H12.4219C11.4505 35.7734 10.6641 34.987 10.6641 34.0156C10.6641 33.0443 11.4505 32.2578 12.4219 32.2578H15.9375C16.9089 32.2578 17.6953 33.0443 17.6953 34.0156C17.6953 34.987 16.9089 35.7734 15.9375 35.7734Z" fill="#68544F"/>
<path d="M47.5781 35.7734H44.0625C43.0911 35.7734 42.3047 34.987 42.3047 34.0156C42.3047 33.0443 43.0911 32.2578 44.0625 32.2578H47.5781C48.5495 32.2578 49.3359 33.0443 49.3359 34.0156C49.3359 34.987 48.5495 35.7734 47.5781 35.7734Z" fill="#53433F"/>
<path d="M41.1796 45.1951C40.6175 45.7577 39.7386 45.8982 39.0354 45.4766C38.7892 45.3361 33.5862 42.2068 30.0001 40.0627C28.1017 38.9022 26.625 38.0233 26.625 38.0233C26.4845 37.918 26.3787 37.8475 26.2734 37.7422L26.4845 30.5L30.0001 30.3942L33.7267 30.2889C33.832 30.3942 33.9025 30.5 34.0078 30.6405C34.2188 30.9921 41.4259 43.0509 41.4611 43.0509C41.8827 43.7536 41.7422 44.6325 41.1796 45.1951Z" fill="#FF6C6C"/>
<path d="M30 21.7109V14.6797C30.9846 14.6797 31.7578 15.4529 31.7578 16.4375V19.9531C31.7578 20.9373 30.9846 21.7109 30 21.7109Z" fill="#53433F"/>
<path d="M31.7578 48.0781V51.5938C31.7578 52.5779 30.9846 53.3516 30 53.3516V46.3203C30.9846 46.3203 31.7578 47.0935 31.7578 48.0781Z" fill="#53433F"/>
<path d="M41.1795 45.1951C40.6174 45.7577 39.7385 45.8982 39.0353 45.4766C38.7891 45.3361 33.5861 42.2068 30 40.0627V30.3947L33.7267 30.2889C33.8319 30.3947 33.9024 30.5 34.0077 30.6405C34.2187 30.9921 41.4258 43.0509 41.461 43.0509C41.8826 43.7536 41.7421 44.6325 41.1795 45.1951Z" fill="#FF4949"/>
<path d="M33.7267 30.289L26.2734 37.7423C26.1681 37.6366 26.0976 37.5313 25.9924 37.3907C25.7813 37.0392 18.5743 24.9803 18.5391 24.9803C18.1175 24.2772 18.258 23.3983 18.8206 22.8361C19.3827 22.2736 20.2616 22.1678 20.9652 22.5546C21.211 22.6952 26.4144 25.824 30.0001 27.9686C31.8984 29.129 33.3752 30.0079 33.3752 30.0079C33.5157 30.1132 33.6215 30.1837 33.7267 30.289Z" fill="#73BCFF"/>
<path d="M33.7267 30.2889L30 34.0156V27.9685C31.8983 29.1289 33.3751 30.0078 33.3751 30.0078C33.5156 30.1131 33.6214 30.1836 33.7267 30.2889Z" fill="#3AAAFF"/>
</g>
<defs>
<clipPath id="clip0_1_294">
<rect width="60" height="60" fill="white" transform="translate(0 0.5)"/>
</clipPath>
</defs>
</svg>
