<svg width="60" height="61" viewBox="0 0 60 61" fill="none" xmlns="http://www.w3.org/2000/svg">
<g clip-path="url(#clip0_1_312)">
<path d="M46.5591 11.7546C46.3961 11.7546 46.2295 11.7321 46.0647 11.6841C45.1327 11.4112 44.5985 10.4344 44.8718 9.50237L47.1409 1.76206C47.4137 0.830057 48.3888 0.302714 49.3226 0.568675C50.2546 0.841959 50.7888 1.81837 50.516 2.75083L48.2464 10.4907C48.0217 11.2584 47.3194 11.7546 46.5591 11.7546Z" fill="#F6A96C"/>
<path d="M42.252 11.4419C41.8025 11.4419 41.3525 11.2703 41.0092 10.9269L37.8575 7.77706C37.1709 7.09042 37.1709 5.9776 37.8575 5.29141C38.5442 4.60477 39.6565 4.60477 40.3432 5.29141L43.4949 8.44128C44.1815 9.12792 44.1815 10.2403 43.4949 10.9269C43.1515 11.2703 42.702 11.4419 42.252 11.4419Z" fill="#F6A96C"/>
<path d="M50.5125 15.749C49.7191 15.749 49 15.2084 48.8059 14.4032C48.5779 13.4588 49.1579 12.5099 50.1023 12.2828L57.8302 10.4188C58.7778 10.1854 59.7222 10.769 59.9506 11.7147C60.1786 12.6591 59.5986 13.6085 58.6542 13.8351L50.9263 15.6991C50.7871 15.7334 50.6498 15.749 50.5125 15.749Z" fill="#EA9B58"/>
<path d="M52.7732 22.6923L49.6234 19.5406C48.9367 18.854 48.9367 17.7416 49.6234 17.055C50.3096 16.3683 51.4224 16.3683 52.109 17.055L55.2589 20.2067C55.9455 20.8933 55.9455 22.0062 55.2589 22.6923C54.5723 23.379 53.4599 23.379 52.7732 22.6923Z" fill="#EA9B58"/>
<path d="M18.506 54.4487C15.4476 57.2612 10.1742 60.6363 2.15833 60.4957L2.12354 60.4605C1.49046 60.5658 0.927868 60.3552 0.576764 59.9684C0.435773 59.8979 0.330488 59.7221 0.259992 59.5816C-0.267351 58.5974 -0.65416 49.3863 6.09601 42.0388C6.76389 41.3356 7.85382 41.3004 8.59219 41.9683L13.5841 46.9602L18.6117 51.9525C19.2443 52.6909 19.2091 53.7808 18.506 54.4487Z" fill="#FED2A4"/>
<path d="M18.6118 51.953C19.2445 52.6909 19.2092 53.7808 18.5061 54.4487C15.4478 57.2612 10.1744 60.6363 2.15847 60.4958L2.12368 60.4605C1.4906 60.5658 0.928008 60.3552 0.576904 59.9684L13.5842 46.9606L18.6118 51.953Z" fill="#F6A96C"/>
<path d="M50.2872 22.7029L46.7016 26.2885C46.35 26.6405 45.8927 26.7811 45.4711 26.7811C45.0138 26.7811 44.557 26.6405 44.2054 26.2885L39.2483 21.3319L34.2564 16.3395C33.588 15.6364 33.588 14.5469 34.2564 13.8433L37.842 10.2577C41.2876 6.84734 46.8421 6.84734 50.2872 10.2577C53.6976 13.7028 53.6976 19.2573 50.2872 22.7029Z" fill="#FED2A4"/>
<path d="M50.2872 22.7029L46.7016 26.2885C46.35 26.6405 45.8927 26.7811 45.4711 26.7811C45.0138 26.7811 44.557 26.6405 44.2054 26.2885L39.2483 21.3319L50.2872 10.2577C53.6976 13.7028 53.6976 19.2573 50.2872 22.7029Z" fill="#F6A96C"/>
<path d="M42.5531 17.992C33.6231 9.0272 19.2095 9.06245 10.2795 17.992C1.31467 26.9216 1.34992 41.3356 10.2795 50.2652C19.2091 59.23 33.6231 59.1948 42.5531 50.2652C51.518 41.3356 51.4827 26.9216 42.5531 17.992Z" fill="#99503D"/>
<path d="M42.5532 50.2652C33.6232 59.1948 19.2096 59.2301 10.2795 50.2652L42.5532 17.992C51.4828 26.9216 51.518 41.3356 42.5532 50.2652Z" fill="#804231"/>
<path d="M40.0923 20.453C32.5332 12.8939 20.299 12.8939 12.7405 20.453C5.18189 28.0115 5.18189 40.2457 12.7405 47.8043C20.299 55.3629 32.5332 55.3629 40.0923 47.8043C47.6504 40.2457 47.6504 28.0115 40.0923 20.453Z" fill="#B35F49"/>
<path d="M40.0923 47.8043C32.5332 55.3629 20.2991 55.3629 12.7405 47.8043L40.0923 20.453C47.6504 28.0116 47.6504 40.2457 40.0923 47.8043Z" fill="#99503D"/>
<path d="M42.2365 34.1286C42.2365 38.3474 40.5844 42.3198 37.5962 45.3081C34.6079 48.2964 30.6354 49.9489 26.4162 49.9489C22.1975 49.9489 18.225 48.2964 15.2367 45.3081C12.2485 42.3198 10.5959 38.3474 10.5959 34.1286C10.5959 29.9099 12.2485 25.9374 15.2367 22.9491C15.9046 22.246 17.0298 22.246 17.7329 22.9491C18.4008 23.617 18.4008 24.7417 17.7329 25.4449C15.3773 27.7653 14.1116 30.8593 14.1116 34.1286C14.1116 37.398 15.3773 40.492 17.7329 42.8119C22.3733 47.488 30.4596 47.488 35.1 42.8119C37.4556 40.492 38.7209 37.398 38.7209 34.1286C38.7209 30.8593 37.4556 27.7653 35.1 25.4449C32.7796 23.0897 29.686 21.824 26.4162 21.824C25.432 21.824 24.6584 21.0503 24.6584 20.0662C24.6584 19.0815 25.432 18.3083 26.4162 18.3083C30.635 18.3083 34.6079 19.9604 37.5962 22.9491C40.5844 25.937 42.2365 29.9099 42.2365 34.1286Z" fill="#99503D"/>
<path d="M35.2053 34.1813C35.2053 36.5227 34.2971 38.7241 32.6546 40.3666C31.0122 42.009 28.8103 42.9177 26.4693 42.9177C24.1279 42.9177 21.9265 42.009 20.2836 40.3666C18.6416 38.7241 17.7329 36.5227 17.7329 34.1813C17.7329 33.203 18.5015 32.434 19.4802 32.434C20.4584 32.434 21.2275 33.203 21.2275 34.1813C21.2275 35.5788 21.7864 36.9068 22.7651 37.8855C24.7568 39.8777 28.1813 39.8777 30.1731 37.8855C31.1518 36.9068 31.7107 35.5788 31.7107 34.1813C31.7107 32.7833 31.1518 31.4558 30.1731 30.4771C29.1948 29.4988 27.8669 28.9394 26.4693 28.9394C25.4906 28.9394 24.722 28.1709 24.722 27.1922C24.722 26.2139 25.4906 25.4449 26.4693 25.4449C28.8103 25.4449 31.0117 26.3535 32.6546 27.996C34.2966 29.6385 35.2053 31.8398 35.2053 34.1813Z" fill="#99503D"/>
<path d="M35.2053 34.1286C35.2053 36.4838 34.2916 38.6989 32.639 40.351C30.9865 42.0035 28.7719 42.9177 26.4162 42.9177C24.061 42.9177 21.8459 42.0035 20.1938 40.351L22.69 37.8553C24.6937 39.8589 28.1392 39.8589 30.1429 37.8553C31.1275 36.8706 31.6896 35.5349 31.6896 34.1286C31.6896 32.7224 31.1275 31.3862 30.1429 30.402L32.639 27.9058C34.2916 29.5583 35.2053 31.773 35.2053 34.1286Z" fill="#804231"/>
<path d="M42.2363 34.1286C42.2363 38.3474 40.5843 42.3198 37.596 45.3081C34.6077 48.2964 30.6353 49.9489 26.4161 49.9489C22.1973 49.9489 18.2248 48.2964 15.2366 45.3081L17.7328 42.8119C22.3731 47.488 30.4595 47.488 35.0998 42.8119C37.4555 40.492 38.7207 37.398 38.7207 34.1286C38.7207 30.8593 37.4555 27.7653 35.0998 25.4449L37.596 22.9492C40.5843 25.937 42.2363 29.9099 42.2363 34.1286Z" fill="#804231"/>
<path d="M28.2165 34.1813C28.2165 35.16 27.4474 35.9286 26.4692 35.9286C25.9799 35.9286 25.5605 35.7189 25.2108 35.4392C24.9316 35.0899 24.7219 34.6706 24.7219 34.1813C24.7219 33.203 25.4905 32.434 26.4692 32.434C26.9581 32.434 27.3774 32.6436 27.7271 32.9233C28.0068 33.2726 28.2165 33.6919 28.2165 34.1813Z" fill="#99503D"/>
<path d="M26.4161 35.8864C25.924 35.8864 25.5024 35.6754 25.1509 35.3943L27.6818 32.8629C27.9634 33.2145 28.1739 33.6365 28.1739 34.1286C28.1739 35.1128 27.4008 35.8864 26.4161 35.8864Z" fill="#804231"/>
</g>
<defs>
<clipPath id="clip0_1_312">
<rect width="60" height="60" fill="white" transform="translate(0 0.5)"/>
</clipPath>
</defs>
</svg>
