<svg width="60" height="61" viewBox="0 0 60 61" fill="none" xmlns="http://www.w3.org/2000/svg">
<g clip-path="url(#clip0_1_350)">
<path d="M55.1486 20.4919C53.004 16.3084 49.8985 10.3438 45.6445 1.41415C45.3635 0.816315 44.6951 0.5 44.0625 0.5C43.4299 0.5 42.7615 0.816315 42.4805 1.41415C38.2265 10.3085 35.2734 16.2732 33.0936 20.4571C29.2616 27.91 28.2422 29.9141 28.2422 33.9923C28.2422 42.7108 35.3439 49.8126 44.0625 49.8126C52.7811 49.8126 60 42.7108 60 33.9923C60 29.9141 58.9806 27.91 55.1486 20.4919Z" fill="#9ED0FF"/>
<path d="M60 33.9923C60 42.7108 52.7811 49.8126 44.0625 49.8126V0.5C44.6951 0.5 45.3635 0.816315 45.6445 1.41415C49.8985 10.3438 53.004 16.3084 55.1482 20.4919C58.9806 27.91 60 29.9141 60 33.9923Z" fill="#73BCFF"/>
<path d="M20.2615 36.1717C18.6795 33.0781 16.6406 29.1404 14.0039 23.7265C13.7224 23.1291 13.0898 22.7423 12.4219 22.7423C11.754 22.7423 11.1209 23.1291 10.8398 23.7265C8.20312 29.1057 6.19904 33.0076 4.58221 36.1369C0.960846 43.1682 0 44.8202 0 48.0548C0 54.8398 5.6369 60.4767 12.4219 60.4767C19.2068 60.4767 24.7266 54.8398 24.7266 48.0548C24.7266 44.8202 23.8829 43.1682 20.2615 36.1717Z" fill="#9ED0FF"/>
<path d="M24.7266 48.0548C24.7266 54.8398 19.2068 60.4767 12.4219 60.4767V22.7423C13.0898 22.7423 13.7228 23.1291 14.0039 23.7265C16.6406 29.1404 18.68 33.0781 20.2615 36.1717C23.8829 43.1682 24.7266 44.8202 24.7266 48.0548Z" fill="#73BCFF"/>
</g>
<defs>
<clipPath id="clip0_1_350">
<rect width="60" height="60" fill="white" transform="translate(0 0.5)"/>
</clipPath>
</defs>
</svg>
