<svg width="60" height="61" viewBox="0 0 60 61" fill="none" xmlns="http://www.w3.org/2000/svg">
<g clip-path="url(#clip0_1_355)">
<path d="M60 11.0469C60 16.8719 55.161 21.5938 49.3359 21.5938C43.5109 21.5938 38.7891 16.8719 38.7891 11.0469C38.7891 5.22183 43.5109 0.5 49.3359 0.5C55.161 0.5 60 5.22183 60 11.0469Z" fill="#C4B3AF"/>
<path d="M49.3359 18.0781C45.4582 18.0781 42.3047 14.9246 42.3047 11.0469C42.3047 7.16916 45.4582 4.01562 49.3359 4.01562C53.2137 4.01562 56.4844 7.16916 56.4844 11.0469C56.4844 14.9246 53.2137 18.0781 49.3359 18.0781Z" fill="#68544F"/>
<path d="M21.2109 11.0469C21.2109 16.8719 16.4891 21.5938 10.6641 21.5938C4.83902 21.5938 0 16.8719 0 11.0469C0 5.22183 4.83902 0.5 10.6641 0.5C16.4891 0.5 21.2109 5.22183 21.2109 11.0469Z" fill="#DFD7D5"/>
<path d="M10.6641 18.0781C6.78635 18.0781 3.51562 14.9246 3.51562 11.0469C3.51562 7.16916 6.78635 4.01562 10.6641 4.01562C14.5418 4.01562 17.6953 7.16916 17.6953 11.0469C17.6953 14.9246 14.5418 18.0781 10.6641 18.0781Z" fill="#725D57"/>
<path d="M30 4.01562C12.914 4.01562 0 21.781 0 37.5312C0 52.2616 10.7346 60.5 30 60.5C49.2654 60.5 60 52.2616 60 37.5312C60 21.781 47.086 4.01562 30 4.01562Z" fill="#DFD7D5"/>
<path d="M60 37.5312C60 52.2616 49.2654 60.5 30 60.5V4.01562C47.086 4.01562 60 21.781 60 37.5312Z" fill="#C4B3AF"/>
<path d="M30 28.7422C21.2462 28.7422 14.1797 39.4415 14.1797 48.1953C14.1797 55.9997 19.9452 60.5 30 60.5C40.0548 60.5 45.8203 55.9997 45.8203 48.1953C45.8203 39.4415 38.7538 28.7422 30 28.7422Z" fill="#EDE9E8"/>
<path d="M45.8203 48.1953C45.8203 55.9997 40.0548 60.5 30 60.5V28.7422C38.7538 28.7422 45.8203 39.4415 45.8203 48.1953Z" fill="#D2C5C2"/>
<path d="M42.3047 23.3516C42.3047 24.3225 41.5178 25.1094 40.5469 25.1094C39.576 25.1094 38.7891 24.3225 38.7891 23.3516C38.7891 22.3806 39.576 21.5938 40.5469 21.5938C41.5178 21.5938 42.3047 22.3806 42.3047 23.3516Z" fill="#3E322E"/>
<path d="M21.2109 23.3516C21.2109 24.3225 20.424 25.1094 19.4531 25.1094C18.4822 25.1094 17.6953 24.3225 17.6953 23.3516C17.6953 22.3806 18.4822 21.5938 19.4531 21.5938C20.424 21.5938 21.2109 22.3806 21.2109 23.3516Z" fill="#68544F"/>
<path d="M31.7578 42.8047V48.1953C31.7578 49.1795 30.9846 49.9531 30 49.9531C29.0154 49.9531 28.2422 49.1795 28.2422 48.1953V42.8047C28.2422 41.82 29.0154 41.0469 30 41.0469C30.9846 41.0469 31.7578 41.82 31.7578 42.8047Z" fill="#68544F"/>
<path d="M31.7578 42.8047V48.1953C31.7578 49.1795 30.9846 49.9531 30 49.9531V41.0469C30.9846 41.0469 31.7578 41.82 31.7578 42.8047Z" fill="#3E322E"/>
<path d="M30 35.7734C26.9412 35.7734 24.7266 37.2497 24.7266 39.2891C24.7266 41.0821 26.9412 44.5625 30 44.5625C33.0588 44.5625 35.2734 41.0821 35.2734 39.2891C35.2734 37.2497 33.0588 35.7734 30 35.7734Z" fill="#68544F"/>
<path d="M30 44.5625V35.7734C33.0588 35.7734 35.2734 37.2497 35.2734 39.2891C35.2734 41.0821 33.0588 44.5625 30 44.5625Z" fill="#3E322E"/>
<path d="M35.2734 51.7109C35.2734 52.6951 34.5003 53.4688 33.5156 53.4688C32.531 53.4688 31.7578 52.6951 31.7578 51.7109C31.7578 50.7263 30.9846 49.9531 30 49.9531C29.0154 49.9531 28.2422 50.7263 28.2422 51.7109C28.2422 52.6951 27.469 53.4688 26.4844 53.4688C25.4997 53.4688 24.7266 52.6951 24.7266 51.7109C24.7266 48.7927 27.0818 46.4375 30 46.4375C32.9182 46.4375 35.2734 48.7927 35.2734 51.7109Z" fill="#68544F"/>
<path d="M35.2734 51.7109C35.2734 52.6951 34.5003 53.4688 33.5156 53.4688C32.531 53.4688 31.7578 52.6951 31.7578 51.7109C31.7578 50.7263 30.9846 49.9531 30 49.9531V46.4375C32.9182 46.4375 35.2734 48.7927 35.2734 51.7109Z" fill="#3E322E"/>
</g>
<defs>
<clipPath id="clip0_1_355">
<rect width="60" height="60" fill="white" transform="translate(0 0.5)"/>
</clipPath>
</defs>
</svg>
