<svg width="60" height="61" viewBox="0 0 60 61" fill="none" xmlns="http://www.w3.org/2000/svg">
<g clip-path="url(#clip0_1_372)">
<path d="M10.1491 1.01589C9.64599 0.514635 8.89252 0.363574 8.23334 0.63457C7.57599 0.906023 7.14844 1.54781 7.14844 2.25871V9.2895C7.14844 13.2926 9.85199 16.9085 13.7215 17.9142C13.8707 17.9536 14.0181 17.971 14.166 17.971L18.2703 9.13707L10.1491 1.01589Z" fill="#53433F"/>
<path d="M51.7662 0.63458C51.1089 0.359921 50.3531 0.514645 49.8505 1.0159L41.7293 9.13708C41.0426 9.82372 41.0426 10.9361 41.7293 11.6227L44.1339 16.6563C44.3399 17.4473 45.0522 17.971 45.8336 17.971C45.981 17.971 46.1288 17.9541 46.2781 17.9142C50.1471 16.9085 52.8506 13.2927 52.8506 9.28997V2.25872C52.8511 1.54782 52.4235 0.906033 51.7662 0.63458Z" fill="#3E322E"/>
<path d="M29.9995 4.01654C13.5466 4.01654 10.6641 13.7664 10.6641 34.0161C10.6641 55.4609 14.285 60.5 29.9995 60.5C45.7141 60.5 49.3355 55.4609 49.3355 34.0161C49.3355 13.766 46.4525 4.01654 29.9995 4.01654Z" fill="#725D57"/>
<path d="M49.3354 34.0161C49.3354 55.4609 45.7141 60.5 29.9995 60.5V4.01654C46.4524 4.01654 49.3354 13.766 49.3354 34.0161Z" fill="#68544F"/>
<path d="M42.3042 26.9848C42.3042 27.9557 41.5173 28.7426 40.5464 28.7426C39.5755 28.7426 38.7886 27.9557 38.7886 26.9848C38.7886 26.0139 39.5755 25.227 40.5464 25.227C41.5173 25.227 42.3042 26.0139 42.3042 26.9848Z" fill="#3E322E"/>
<path d="M21.2109 26.9848C21.2109 27.9557 20.4236 28.7426 19.4531 28.7426C18.4822 28.7426 17.6953 27.9557 17.6953 26.9848C17.6953 26.0139 18.4822 25.227 19.4531 25.227C20.4236 25.227 21.2109 26.0139 21.2109 26.9848Z" fill="#53433F"/>
<path d="M31.7221 23.1176C31.5464 22.3092 30.8437 21.7114 29.9996 21.7114C29.1559 21.7114 28.4528 22.3088 28.277 23.1176L24.7614 40.8125C24.6561 41.4103 24.8319 42.0082 25.2535 42.3945C26.5544 43.7303 28.277 44.3634 29.9996 44.3634C31.7221 44.3634 33.4447 43.7303 34.7457 42.3945C35.1673 42.0077 35.3435 41.4103 35.2378 40.8125L31.7221 23.1176Z" fill="#DFD7D5"/>
<path d="M33.5151 53.4687C32.5438 53.4687 31.7573 52.6827 31.7573 51.7109C31.7573 48.8032 34.123 46.4375 37.0308 46.4375C38.0026 46.4375 38.7886 47.2239 38.7886 48.1953C38.7886 49.1671 38.0026 49.9531 37.0308 49.9531C36.0612 49.9531 35.2729 50.7414 35.2729 51.7109C35.2729 52.6827 34.487 53.4687 33.5151 53.4687Z" fill="#3E322E"/>
<path d="M26.4839 53.4687C25.5125 53.4687 24.7266 52.6827 24.7266 51.7109C24.7266 50.7414 23.9383 49.9531 22.9687 49.9531C21.9969 49.9531 21.2109 49.1671 21.2109 48.1953C21.2109 47.2239 21.9969 46.4375 22.9687 46.4375C25.8765 46.4375 28.2417 48.8032 28.2417 51.7109C28.2417 52.6827 27.4557 53.4687 26.4839 53.4687Z" fill="#53433F"/>
<path d="M35.2377 40.8125C35.3435 41.4103 35.1677 42.0082 34.7456 42.3945C33.4451 43.7303 31.7221 44.3634 30 44.3634V21.7114C30.8437 21.7114 31.5468 22.3092 31.7226 23.1176L35.2377 40.8125Z" fill="#C4B3AF"/>
</g>
<defs>
<clipPath id="clip0_1_372">
<rect width="60" height="60" fill="white" transform="translate(0 0.5)"/>
</clipPath>
</defs>
</svg>
