<svg width="60" height="61" viewBox="0 0 60 61" fill="none" xmlns="http://www.w3.org/2000/svg">
<g clip-path="url(#clip0_1_332)">
<path d="M34.6055 2.57431C34.535 3.48846 33.7619 4.15634 32.883 4.15634H32.7072C31.8283 4.0863 30.9141 4.01581 30 4.01581C29.0858 4.01581 28.1717 4.0863 27.2928 4.15634C26.3086 4.22683 25.4649 3.55896 25.3944 2.57431C25.2891 1.62537 25.9923 0.74646 26.9412 0.640717C27.9607 0.535431 28.9805 0.500183 30 0.500183C31.0194 0.500183 32.0393 0.535431 33.0588 0.640717C34.0077 0.74646 34.7108 1.62537 34.6055 2.57431Z" fill="#FFD400"/>
<path d="M34.6055 58.4259C34.7108 59.3753 34.0077 60.2542 33.0588 60.3595C32.0393 60.4652 31.0194 60.5 30 60.5C28.9805 60.5 27.9607 60.4652 26.9412 60.3595C25.9923 60.2542 25.2891 59.3753 25.3944 58.4259C25.4649 57.4765 26.3086 56.7733 27.2928 56.8438C28.1717 56.9143 29.0858 56.9844 30 56.9844C30.9141 56.9844 31.8283 56.9143 32.7072 56.8438C33.7266 56.7733 34.535 57.4765 34.6055 58.4259Z" fill="#FFD400"/>
<path d="M11.8359 8.36532C11.2678 7.57751 11.4482 6.47888 12.236 5.91262C13.916 4.70458 15.6789 3.69018 17.52 2.86392C18.4108 2.46887 19.4458 2.86712 19.8422 3.75106C20.2391 4.63684 19.8422 5.67733 18.9551 6.07375C17.3209 6.80251 15.7201 7.73544 14.2891 8.7654C13.4972 9.3344 12.4008 9.15084 11.8359 8.36532Z" fill="#FFD400"/>
<path d="M40.0406 57.249C39.6441 56.3627 40.0406 55.3227 40.9282 54.9263C42.5619 54.1975 44.1627 53.2646 45.5937 52.2346C46.3852 51.6716 47.4801 51.8483 48.0468 52.6347C48.6149 53.4225 48.4346 54.5211 47.6468 55.0874C45.9668 56.2959 44.2039 57.3098 42.3633 58.1366C41.4551 58.5371 40.431 58.1187 40.0406 57.249Z" fill="#FDBF00"/>
<path d="M3.25104 20.4594C2.36526 20.063 1.96747 19.0225 2.36389 18.1372C3.18191 16.3139 4.19769 14.5424 5.4126 12.8532C5.97748 12.0636 7.07611 11.8832 7.86575 12.4531C8.65356 13.0198 8.83392 14.1185 8.26538 14.9063C7.22763 16.3487 6.29516 17.9559 5.57373 19.5723C5.1828 20.4429 4.15832 20.8595 3.25104 20.4594Z" fill="#FFD400"/>
<path d="M52.0175 48.6641C51.2292 48.0974 51.0489 46.8815 51.6174 46.0937C52.6552 44.6513 53.5881 43.0446 54.3091 41.4282C54.7073 40.542 55.8595 40.1492 56.7489 40.5406C57.6347 40.937 58.033 41.9775 57.6361 42.8633C56.8181 44.6861 55.6851 46.5748 54.4702 48.264C53.9058 49.049 52.8099 49.2331 52.0175 48.6641Z" fill="#FDBF00"/>
<path d="M1.90201 35.1298C1.0112 35.1298 0.247192 34.4551 0.154266 33.5505C-0.0512695 31.5135 -0.0517272 29.4897 0.154266 27.4495C0.254059 26.4863 1.07986 25.8171 2.08237 25.8789C3.04687 25.9787 3.75091 26.8402 3.65295 27.8065C3.46985 29.5895 3.46985 31.4096 3.65295 33.1935C3.75091 34.1598 3.04687 35.0218 2.08237 35.1211C2.0224 35.1262 1.96014 35.1298 1.90201 35.1298Z" fill="#FFD400"/>
<path d="M58.098 35.1298C58.0398 35.1298 57.9794 35.1262 57.9176 35.1211C56.9531 35.0218 56.2491 34.1598 56.347 33.1935C56.5301 31.4105 56.5301 29.5904 56.347 27.8065C56.2491 26.8402 56.9531 25.9787 57.9176 25.8789C58.8981 25.8171 59.7477 26.4868 59.8457 27.4495C60.0512 29.4865 60.0517 31.5103 59.8457 33.5505C59.7528 34.4551 58.9888 35.1298 58.098 35.1298Z" fill="#FDBF00"/>
<path d="M5.4126 48.264C4.20456 46.584 3.19015 44.7039 2.36389 42.8633C1.96747 41.9771 2.36572 40.937 3.25104 40.5406C4.14047 40.1492 5.17731 40.5424 5.57373 41.4282C6.30249 43.062 7.23541 44.6627 8.26538 46.0937C8.83392 46.8815 8.65356 48.0973 7.86529 48.6641C7.07336 49.2331 5.97748 49.049 5.4126 48.264Z" fill="#FFD400"/>
<path d="M54.3091 19.5723C53.5803 17.938 52.6474 16.3372 51.6174 14.9063C51.0489 14.1185 51.2292 13.0198 52.0175 12.4531C52.8067 11.8887 53.9053 12.0654 54.4702 12.8532C55.6787 14.5332 56.8098 16.296 57.6365 18.1372C58.033 19.0229 57.6347 20.063 56.7489 20.4594C55.8407 20.8599 54.6995 20.442 54.3091 19.5723Z" fill="#FDBF00"/>
<path d="M17.52 58.1361C15.6967 57.3181 13.9252 56.3023 12.236 55.0874C11.4482 54.5211 11.2678 53.4225 11.8359 52.6342C12.399 51.8446 13.4976 51.6679 14.2891 52.2346C15.7315 53.2724 17.3387 54.2048 18.9551 54.9263C19.8422 55.3227 20.2391 56.3627 19.8422 57.2485C19.4513 58.1196 18.4268 58.5362 17.52 58.1361Z" fill="#FFD400"/>
<path d="M45.5937 8.7654C44.1513 7.72765 42.5445 6.79473 40.9282 6.07376C40.0406 5.67733 39.6441 4.63684 40.0406 3.75106C40.4388 2.86712 41.472 2.46887 42.3633 2.86392C44.1861 3.68194 45.9576 4.69772 47.6468 5.91262C48.4346 6.47888 48.6149 7.57751 48.0468 8.36578C47.482 9.15038 46.3861 9.33486 45.5937 8.7654Z" fill="#FDBF00"/>
<path d="M30 7.53125C17.4138 7.53125 7.03125 17.9138 7.03125 30.5C7.03125 43.0857 17.4138 53.4687 30 53.4687C42.5862 53.4687 52.8515 43.0857 52.8515 30.5C52.8515 17.9138 42.5862 7.53125 30 7.53125Z" fill="#FFD400"/>
<path d="M32.7072 4.15634C31.8283 4.0863 30.9141 4.01581 30 4.01581V0.500183C31.0194 0.500183 32.0393 0.535431 33.0588 0.640717C34.0077 0.74646 34.7108 1.62537 34.6055 2.57431C34.535 3.48846 33.7619 4.15634 32.883 4.15634H32.7072Z" fill="#FDBF00"/>
<path d="M34.6055 58.4259C34.7108 59.3753 34.0077 60.2542 33.0588 60.3595C32.0393 60.4652 31.0194 60.5 30 60.5V56.9844C30.9141 56.9844 31.8283 56.9143 32.7072 56.8438C33.7266 56.7733 34.535 57.4765 34.6055 58.4259Z" fill="#FDBF00"/>
<path d="M52.8515 30.5C52.8515 43.0857 42.5862 53.4687 30 53.4687V7.53125C42.5862 7.53125 52.8515 17.9138 52.8515 30.5Z" fill="#FDBF00"/>
</g>
<defs>
<clipPath id="clip0_1_332">
<rect width="60" height="60" fill="white" transform="translate(0 0.5)"/>
</clipPath>
</defs>
</svg>
