<svg width="60" height="61" viewBox="0 0 60 61" fill="none" xmlns="http://www.w3.org/2000/svg">
<g clip-path="url(#clip0_1_26)">
<path d="M52.2542 15.5471C50.3206 8.79697 44.0977 4.01562 37.0312 4.01562C34.5703 4.01562 32.1799 4.57822 30 5.66769C28.7695 6.30078 27.5743 7.10919 26.5196 8.05859C20.7541 6.30078 14.426 9.25381 11.8945 14.5625C5.35538 14.844 0 20.3752 0 26.9844C0 33.7693 5.6369 39.4062 12.4219 39.4062H47.5781C54.3631 39.4062 60 33.7693 60 26.9844C60 21.9572 56.8593 17.4102 52.2542 15.5471Z" fill="#EDE9E8"/>
<path d="M37.0312 53.4688C36.0599 53.4688 35.2734 52.6823 35.2734 51.7109V44.6797C35.2734 43.7083 36.0599 42.9219 37.0312 42.9219C38.0026 42.9219 38.7891 43.7083 38.7891 44.6797V51.7109C38.7891 52.6823 38.0026 53.4688 37.0312 53.4688Z" fill="#25D9F8"/>
<path d="M44.0625 56.9844C43.0911 56.9844 42.3047 56.1979 42.3047 55.2266V48.1953C42.3047 47.2239 43.0911 46.4375 44.0625 46.4375C45.0339 46.4375 45.8203 47.2239 45.8203 48.1953V55.2266C45.8203 56.1979 45.0339 56.9844 44.0625 56.9844Z" fill="#25D9F8"/>
<path d="M31.7578 48.1953V55.2266C31.7578 56.2108 30.9846 56.9844 30 56.9844C29.0154 56.9844 28.2422 56.2108 28.2422 55.2266V48.1953C28.2422 47.2107 29.0154 46.4375 30 46.4375C30.9846 46.4375 31.7578 47.2107 31.7578 48.1953Z" fill="#76E2F8"/>
<path d="M22.9688 53.4688C21.9974 53.4688 21.2109 52.6823 21.2109 51.7109V44.6797C21.2109 43.7083 21.9974 42.9219 22.9688 42.9219C23.9401 42.9219 24.7266 43.7083 24.7266 44.6797V51.7109C24.7266 52.6823 23.9401 53.4688 22.9688 53.4688Z" fill="#76E2F8"/>
<path d="M15.9375 56.9844C14.9661 56.9844 14.1797 56.1979 14.1797 55.2266V48.1953C14.1797 47.2239 14.9661 46.4375 15.9375 46.4375C16.9089 46.4375 17.6953 47.2239 17.6953 48.1953V55.2266C17.6953 56.1979 16.9089 56.9844 15.9375 56.9844Z" fill="#76E2F8"/>
<path d="M8.90625 53.4688C7.93488 53.4688 7.14844 52.6823 7.14844 51.7109V44.6797C7.14844 43.7083 7.93488 42.9219 8.90625 42.9219C9.87762 42.9219 10.6641 43.7083 10.6641 44.6797V51.7109C10.6641 52.6823 9.87762 53.4688 8.90625 53.4688Z" fill="#76E2F8"/>
<path d="M51.0938 53.4688C50.1224 53.4688 49.3359 52.6823 49.3359 51.7109V44.6797C49.3359 43.7083 50.1224 42.9219 51.0938 42.9219C52.0651 42.9219 52.8516 43.7083 52.8516 44.6797V51.7109C52.8516 52.6823 52.0651 53.4688 51.0938 53.4688Z" fill="#25D9F8"/>
<path d="M60 26.9844C60 33.7693 54.3631 39.4062 47.5781 39.4062H30V5.66769C32.1799 4.57822 34.5703 4.01562 37.0312 4.01562C44.0977 4.01562 50.3206 8.79697 52.2542 15.5471C56.8593 17.4102 60 21.9572 60 26.9844Z" fill="#DFD7D5"/>
<path d="M31.7578 48.1953V55.2266C31.7578 56.2108 30.9846 56.9844 30 56.9844V46.4375C30.9846 46.4375 31.7578 47.2107 31.7578 48.1953Z" fill="#25D9F8"/>
</g>
<defs>
<clipPath id="clip0_1_26">
<rect width="60" height="60" fill="white" transform="translate(0 0.5)"/>
</clipPath>
</defs>
</svg>
