<svg width="60" height="61" viewBox="0 0 60 61" fill="none" xmlns="http://www.w3.org/2000/svg">
<g clip-path="url(#clip0_1_413)">
<path d="M52.4414 38.7617L48.9258 42.2773C48.6095 42.6289 48.1522 42.8047 47.6953 42.8047C47.2385 42.8047 46.7812 42.6289 46.4648 42.2773L42.9492 38.7617C42.2461 38.0938 42.2461 36.9687 42.9492 36.3008C43.6171 35.5977 44.7423 35.5977 45.4102 36.3008L47.6953 38.5507L49.9809 36.3008C50.6488 35.5977 51.7735 35.5977 52.4414 36.3008C53.1445 36.9687 53.1445 38.0938 52.4414 38.7617Z" fill="#FF9AC9"/>
<path d="M52.4414 38.7617L48.9258 42.2773C48.6095 42.6289 48.1522 42.8047 47.6953 42.8047V38.5507L49.9805 36.3008C50.6483 35.5977 51.7735 35.5977 52.4414 36.3008C53.1445 36.9687 53.1445 38.0938 52.4414 38.7617Z" fill="#FF7CB9"/>
<path d="M60 51.5938C60 54.6173 58.8748 57.6523 56.8712 59.9022H38.5194C36.5158 57.6523 35.3906 54.6173 35.3906 51.5938C35.3906 44.8088 40.9103 39.2891 47.6953 39.2891C54.4803 39.2891 60 44.8088 60 51.5938Z" fill="#70DA40"/>
<path d="M60 51.5938C60 54.6173 58.8748 57.6523 56.8712 59.9022H47.6953V39.2891C54.4803 39.2891 60 44.8088 60 51.5938Z" fill="#49A520"/>
<path d="M52.9688 51.5938C52.9688 54.371 52.6172 57.1602 51.9841 59.2343H43.4065C42.7734 57.1602 42.4219 54.371 42.4219 51.5938C42.4219 45.4767 44.0392 39.2891 47.6953 39.2891C51.3515 39.2891 52.9688 45.4767 52.9688 51.5938Z" fill="#90E36A"/>
<path d="M52.9688 51.5938C52.9688 54.371 52.6172 57.1602 51.9841 59.2343H47.6953V39.2891C51.3515 39.2891 52.9688 45.4767 52.9688 51.5938Z" fill="#56C225"/>
<path d="M7.03125 39.2891C3.15353 39.2891 0 36.1355 0 32.2578V21.7109C0 19.7728 1.57745 18.1953 3.51562 18.1953C5.4538 18.1953 7.03125 19.7728 7.03125 21.7109V32.2578H17.6953V39.2891H7.03125Z" fill="#70DA40"/>
<path d="M38.9062 35.7734C42.784 35.7734 45.9375 32.6199 45.9375 28.7422V14.6797C45.9375 12.7415 44.36 11.1641 42.4219 11.1641C40.4837 11.1641 38.9062 12.7415 38.9062 14.6797V28.7422H28.2422V35.7734H38.9062Z" fill="#49A520"/>
<path d="M31.7578 9.28906V58.7422H14.1797V9.28906C14.1797 4.43768 18.1174 0.5 22.9688 0.5C27.8201 0.5 31.7578 4.43768 31.7578 9.28906Z" fill="#90E36A"/>
<path d="M31.7578 9.28906V58.7422H22.9688V0.5C27.8201 0.5 31.7578 4.43768 31.7578 9.28906Z" fill="#56C225"/>
<path d="M60 58.7422C60 59.7264 59.2268 60.5 58.2422 60.5H1.75781C0.773163 60.5 0 59.7264 0 58.7422C0 57.7575 0.773163 56.9844 1.75781 56.9844H58.2422C59.2268 56.9844 60 57.7575 60 58.7422Z" fill="#FF9F00"/>
<path d="M24.7266 9.28906V12.9219C24.7266 13.9061 23.9534 14.6797 22.9688 14.6797C21.9841 14.6797 21.2109 13.9061 21.2109 12.9219V9.28906C21.2109 8.30441 21.9841 7.53125 22.9688 7.53125C23.9534 7.53125 24.7266 8.30441 24.7266 9.28906Z" fill="#70DA40"/>
<path d="M24.7266 19.9531V23.4688C24.7266 24.4529 23.9534 25.2266 22.9688 25.2266C21.9841 25.2266 21.2109 24.4529 21.2109 23.4688V19.9531C21.2109 18.9685 21.9841 18.1953 22.9688 18.1953C23.9534 18.1953 24.7266 18.9685 24.7266 19.9531Z" fill="#70DA40"/>
<path d="M24.7266 30.5V34.0156C24.7266 34.9998 23.9534 35.7734 22.9688 35.7734C21.9841 35.7734 21.2109 34.9998 21.2109 34.0156V30.5C21.2109 29.5154 21.9841 28.7422 22.9688 28.7422C23.9534 28.7422 24.7266 29.5154 24.7266 30.5Z" fill="#70DA40"/>
<path d="M24.7266 41.0469V44.5625C24.7266 45.5467 23.9534 46.3203 22.9688 46.3203C21.9841 46.3203 21.2109 45.5467 21.2109 44.5625V41.0469C21.2109 40.0622 21.9841 39.2891 22.9688 39.2891C23.9534 39.2891 24.7266 40.0622 24.7266 41.0469Z" fill="#70DA40"/>
<path d="M24.7266 51.5938V55.2266C24.7266 56.2108 23.9534 56.9844 22.9688 56.9844C21.9841 56.9844 21.2109 56.2108 21.2109 55.2266V51.5938C21.2109 50.6091 21.9841 49.8359 22.9688 49.8359C23.9534 49.8359 24.7266 50.6091 24.7266 51.5938Z" fill="#70DA40"/>
<path d="M24.7266 9.28906V12.9219C24.7266 13.9061 23.9534 14.6797 22.9688 14.6797V7.53125C23.9534 7.53125 24.7266 8.30441 24.7266 9.28906Z" fill="#49A520"/>
<path d="M24.7266 19.9531V23.4688C24.7266 24.4529 23.9534 25.2266 22.9688 25.2266V18.1953C23.9534 18.1953 24.7266 18.9685 24.7266 19.9531Z" fill="#49A520"/>
<path d="M24.7266 30.5V34.0156C24.7266 34.9998 23.9534 35.7734 22.9688 35.7734V28.7422C23.9534 28.7422 24.7266 29.5154 24.7266 30.5Z" fill="#49A520"/>
<path d="M24.7266 41.0469V44.5625C24.7266 45.5467 23.9534 46.3203 22.9688 46.3203V39.2891C23.9534 39.2891 24.7266 40.0622 24.7266 41.0469Z" fill="#49A520"/>
<path d="M24.7266 51.5938V55.2266C24.7266 56.2108 23.9534 56.9844 22.9688 56.9844V49.8359C23.9534 49.8359 24.7266 50.6091 24.7266 51.5938Z" fill="#49A520"/>
</g>
<defs>
<clipPath id="clip0_1_413">
<rect width="60" height="60" fill="white" transform="translate(0 0.5)"/>
</clipPath>
</defs>
</svg>
