<svg width="60" height="61" viewBox="0 0 60 61" fill="none" xmlns="http://www.w3.org/2000/svg">
<g clip-path="url(#clip0_1_436)">
<path d="M53.9818 44.3835L50.9519 42.6335C50.1147 42.1496 49.8272 41.0799 50.311 40.2426C50.7931 39.4017 51.8629 39.1197 52.7019 39.6017L55.7319 41.3518C56.5691 41.8352 56.8566 42.905 56.3727 43.7422C55.888 44.5822 54.815 44.8642 53.9818 44.3835Z" fill="#FF9F00"/>
<path d="M44.3743 52.7093L42.6243 49.6794C42.1404 48.8417 42.4279 47.7719 43.2651 47.2885C44.0992 46.8046 45.1704 47.0884 45.656 47.9294L47.4061 50.9593C47.8895 51.7965 47.6025 52.8663 46.7652 53.3502C45.9307 53.8322 44.8582 53.5475 44.3743 52.7093Z" fill="#FF9F00"/>
<path d="M18.9198 39.3614C18.8846 39.3614 18.8507 39.3673 18.815 39.3673H15.4536C15.146 39.3673 14.8453 39.4479 14.5784 39.6017L11.5485 41.3517C10.7112 41.8351 10.4237 42.9049 10.9076 43.7426C11.3924 44.5822 12.4654 44.8646 13.2985 44.3835L15.9215 42.8674H18.815C18.8503 42.8674 18.8841 42.8615 18.9198 42.8615V39.3614Z" fill="#FFD400"/>
<path d="M20.5156 53.3502C19.6779 52.8663 19.3909 51.7965 19.8747 50.9593L21.6243 47.9294C22.1082 47.0884 23.1798 46.8046 24.0152 47.2885C24.8529 47.7719 25.1399 48.8417 24.6561 49.6794L22.9065 52.7093C22.4213 53.5489 21.3483 53.8313 20.5156 53.3502Z" fill="#FFD400"/>
<path d="M35.3906 51.629V55.1094C35.3906 56.094 34.6175 56.8672 33.6328 56.8672C32.6834 56.8672 31.875 56.094 31.875 55.1094V51.629C31.875 50.6443 32.6834 49.8712 33.6328 49.8712C34.6175 49.8712 35.3906 50.6443 35.3906 51.629Z" fill="#FFD400"/>
<path d="M35.3906 51.629V55.1094C35.3906 56.094 34.6175 56.8672 33.6328 56.8672V49.8712C34.6175 49.8712 35.3906 50.6443 35.3906 51.629Z" fill="#FF9F00"/>
<path d="M8.95157 17.9513C8.49564 17.7238 2.17575 14.681 2.54425 14.8651C1.99997 14.5954 1.34949 14.6211 0.834046 14.9424C0.315857 15.2633 0 15.8282 0 16.4375V30.5C0 31.1093 0.315857 31.6742 0.834046 31.9951C1.34949 32.3146 1.99631 32.3402 2.54425 32.0724C2.91229 31.8884 9.21616 28.8543 8.86368 29.0306C8.91449 29.0054 8.9708 29.0237 9.02344 29.0059L12.5391 23.5603L9.02344 17.9042C9.0001 17.9188 8.97446 17.9371 8.95157 17.9513Z" fill="#FFD400"/>
<path d="M21.5635 13.1105L19.8057 10.0672C19.3195 9.22587 19.6079 8.15104 20.4493 7.66535C21.287 7.17646 22.3632 7.46623 22.8507 8.30943L24.6085 11.3526C25.0947 12.194 24.8063 13.2684 23.9649 13.7545C23.1267 14.2384 22.0496 13.9523 21.5635 13.1105Z" fill="#FFD400"/>
<path d="M35.3906 5.89063V9.40625C35.3906 10.3909 34.6175 11.1641 33.6328 11.1641C32.6482 11.1641 31.875 10.3909 31.875 9.40625V5.89063C31.875 4.90598 32.6482 4.13281 33.6328 4.13281C34.6175 4.13281 35.3906 4.90598 35.3906 5.89063Z" fill="#FFD400"/>
<path d="M33.6328 11.1641V4.13281C34.6175 4.13281 35.3906 4.90598 35.3906 5.89063V9.40625C35.3906 10.3909 34.6175 11.1641 33.6328 11.1641Z" fill="#FF9F00"/>
<path d="M44.1381 14.1812C43.841 14.1812 43.5402 14.1056 43.2651 13.9468C42.4274 13.4634 42.1404 12.3936 42.6242 11.5559L44.3738 8.52597C44.8577 7.68688 45.9293 7.39803 46.7647 7.8851C47.6024 8.36895 47.8894 9.43875 47.4056 10.276L45.656 13.3059C45.331 13.8681 44.7432 14.1812 44.1381 14.1812Z" fill="#FF9F00"/>
<path d="M51.8285 21.868C51.2238 21.868 50.6356 21.5548 50.311 20.9927C49.8272 20.1555 50.1147 19.0857 50.9519 18.6018L53.9818 16.8518C54.8122 16.3702 55.8893 16.6554 56.3727 17.4931C56.8566 18.3304 56.5691 19.4002 55.7319 19.8836L52.7019 21.6336C52.4268 21.7929 52.1261 21.868 51.8285 21.868Z" fill="#FF9F00"/>
<path d="M57.0195 35.355L53.4022 31.855C52.7188 31.1715 52.7188 30.0642 53.4022 29.3803L57.0195 25.8807C57.7029 25.1968 58.8038 25.1968 59.4873 25.8807C60.1707 26.5641 60.1707 27.6715 59.4873 28.3549L57.1142 30.6176L59.4873 32.8804C60.1707 33.5638 60.1707 34.6716 59.4873 35.355C58.8038 36.0385 57.7034 36.0385 57.0195 35.355Z" fill="#FF9F00"/>
<path d="M56.3787 32.2578C56.3086 33.453 56.1328 34.6483 55.8518 35.7734C53.4609 45.8282 44.426 53.3516 33.6328 53.3516C25.5469 53.3516 18.4804 49.1328 14.4026 42.8047C13.6995 41.6795 13.0664 40.5195 12.5391 39.2891L18.7267 35.7734C24.8085 35.7734 29.203 37.3555 33.6328 36.2303C34.0196 36.125 34.406 36.0197 34.7933 35.8792C39.7147 34.0861 44.8123 28.7422 52.0546 28.7422L56.3787 32.2578Z" fill="#EDE9E8"/>
<path d="M56.3786 32.2578C56.3086 33.453 56.1328 34.6483 55.8518 35.7734C53.4609 45.8282 44.426 53.3516 33.6328 53.3516V36.2303C34.0196 36.125 34.406 36.0197 34.7932 35.8792C39.7147 34.0861 44.8123 28.7422 52.0546 28.7422L56.3786 32.2578Z" fill="#D2C5C2"/>
<path d="M56.4844 30.5C56.4844 31.0974 56.4492 31.6604 56.3787 32.2578H52.0546C44.8123 32.2578 39.7147 34.0861 34.7933 35.8792C34.4064 36.0197 34.0196 36.1603 33.6328 36.3008C29.203 37.8828 24.8085 39.2891 18.7267 39.2891H12.5391C11.4139 36.5819 10.7813 33.6288 10.7813 30.5C10.7813 30.0432 10.6055 29.5859 10.2539 29.2695C9.93759 28.918 9.4455 28.8479 9.02344 29.0237V17.9143C14.7537 14.3281 22.207 7.64844 33.6328 7.64844C46.219 7.64844 56.4844 17.9138 56.4844 30.5Z" fill="#FFE470"/>
<path d="M56.4844 30.5C56.4844 31.0974 56.4491 31.6604 56.3786 32.2578H52.0546C44.8123 32.2578 39.7147 34.0861 34.7932 35.8792C34.4064 36.0197 34.0196 36.1603 33.6328 36.3008V7.64844C46.219 7.64844 56.4844 17.9138 56.4844 30.5Z" fill="#FDBF00"/>
<path d="M44.1399 28.8676C41.245 28.8676 38.8903 26.5129 38.8903 23.618C38.8903 20.7226 41.245 18.3679 44.1399 18.3679C47.0348 18.3679 49.39 20.7226 49.39 23.618C49.39 26.5129 47.0348 28.8676 44.1399 28.8676Z" fill="#EDE9E8"/>
<path d="M44.1399 25.352C43.1836 25.352 42.4059 24.5743 42.4059 23.618C42.4059 22.6617 43.1836 21.8835 44.1399 21.8835C45.0962 21.8835 45.8744 22.6617 45.8744 23.618C45.8744 24.5743 45.0962 25.352 44.1399 25.352Z" fill="#68544F"/>
<path d="M21.3281 32.2578C21.3281 33.2287 20.5412 34.0156 19.5703 34.0156C18.5994 34.0156 17.8125 33.2287 17.8125 32.2578C17.8125 31.2869 18.5994 30.5 19.5703 30.5C20.5412 30.5 21.3281 31.2869 21.3281 32.2578Z" fill="#FFD400"/>
<path d="M35.3906 23.4688C35.3906 24.4534 34.6175 25.2266 33.6328 25.2266C32.6482 25.2266 31.875 24.4534 31.875 23.4688C31.875 22.4841 32.6482 21.7109 33.6328 21.7109C34.6175 21.7109 35.3906 22.4841 35.3906 23.4688Z" fill="#FFD400"/>
<path d="M17.8125 23.4688C17.8125 24.4397 17.0256 25.2266 16.0547 25.2266C15.0838 25.2266 14.2969 24.4397 14.2969 23.4688C14.2969 22.4978 15.0838 21.7109 16.0547 21.7109C17.0256 21.7109 17.8125 22.4978 17.8125 23.4688Z" fill="#FFD400"/>
<path d="M26.6016 25.2266C26.6016 26.1975 25.8147 26.9844 24.8438 26.9844C23.8728 26.9844 23.0859 26.1975 23.0859 25.2266C23.0859 24.2556 23.8728 23.4688 24.8438 23.4688C25.8147 23.4688 26.6016 24.2556 26.6016 25.2266Z" fill="#FFD400"/>
<path d="M35.3906 16.4375C35.3906 17.4222 34.6175 18.1953 33.6328 18.1953C32.6482 18.1953 31.875 17.4222 31.875 16.4375C31.875 15.4529 32.6482 14.6797 33.6328 14.6797C34.6175 14.6797 35.3906 15.4529 35.3906 16.4375Z" fill="#FFD400"/>
<path d="M24.8438 16.4375C24.8438 17.4084 24.0569 18.1953 23.0859 18.1953C22.115 18.1953 21.3281 17.4084 21.3281 16.4375C21.3281 15.4666 22.115 14.6797 23.0859 14.6797C24.0569 14.6797 24.8438 15.4666 24.8438 16.4375Z" fill="#FFD400"/>
<path d="M33.6328 25.2266V21.7109C34.6175 21.7109 35.3906 22.4841 35.3906 23.4688C35.3906 24.4534 34.6175 25.2266 33.6328 25.2266Z" fill="#FF9F00"/>
<path d="M33.6328 18.1953V14.6797C34.6175 14.6797 35.3906 15.4529 35.3906 16.4375C35.3906 17.4222 34.6175 18.1953 33.6328 18.1953Z" fill="#FF9F00"/>
<path d="M42.2461 34.965C42.0704 34.6135 41.8593 34.2267 41.2967 34.1214C38.0626 32.5041 35.5312 31.3437 33.6328 30.5353C31.5587 29.6211 30.1525 29.1643 29.1678 28.9532C29.1678 28.9532 29.1678 28.918 29.1326 28.9532C27.5157 28.6017 27.1289 28.9885 26.8827 29.5154C24.0001 32.7499 24.1054 39.2538 27.1289 42.2774C27.6563 42.8047 28.4647 42.9452 29.1326 42.6289C29.6599 42.3474 31.5235 41.5742 33.6328 40.6601C37.078 39.1833 41.2262 37.4608 41.4373 37.3555C42.3162 36.8986 42.6682 35.8439 42.2461 34.965Z" fill="#FFD400"/>
<path d="M41.4372 37.3555C41.2267 37.4608 37.0779 39.1833 33.6328 40.6601V30.5352C35.5312 31.3437 38.0626 32.5041 41.2967 34.1214C41.8593 34.2267 42.0703 34.6135 42.2461 34.965C42.6682 35.8439 42.3161 36.8986 41.4372 37.3555Z" fill="#FF9F00"/>
</g>
<defs>
<clipPath id="clip0_1_436">
<rect width="60" height="60" fill="white" transform="translate(0 0.5)"/>
</clipPath>
</defs>
</svg>
