<svg width="60" height="61" viewBox="0 0 60 61" fill="none" xmlns="http://www.w3.org/2000/svg">
<g clip-path="url(#clip0_1_467)">
<path d="M49.3359 26.9844V38.2811C49.3359 47.0001 43.4299 54.5587 34.9919 56.6681C34.6056 56.7733 34.254 56.9491 34.0077 57.2307L31.2305 59.9727C30.9142 60.3242 30.4568 60.5 30 60.5C29.5432 60.5 29.0858 60.3242 28.7695 59.9727L25.9923 57.2307C25.746 56.9491 25.3944 56.7733 25.0081 56.6681C16.5701 54.5587 10.6641 47.0001 10.6641 38.2811V26.9844C10.6641 25.9997 11.4372 25.2266 12.4219 25.2266H47.5781C48.5628 25.2266 49.3359 25.9997 49.3359 26.9844Z" fill="#FFBD86"/>
<path d="M49.3359 26.9844V38.2811C49.3359 47.0001 43.4299 54.5587 34.9919 56.6681C34.6056 56.7733 34.254 56.9491 34.0077 57.2307L31.2305 59.9727C30.9142 60.3242 30.4568 60.5 30 60.5V25.2266H47.5781C48.5628 25.2266 49.3359 25.9997 49.3359 26.9844Z" fill="#F6A96C"/>
<path d="M32.8583 49.9C32.07 49.9 31.3545 49.3676 31.1554 48.5679C30.9187 47.6272 31.4918 46.6728 32.4344 46.4375C36.1761 45.5018 38.7891 42.1547 38.7891 38.2971C38.7891 37.3257 39.5755 36.5393 40.5469 36.5393C41.5182 36.5393 42.3047 37.3257 42.3047 38.2971C42.3047 43.7697 38.5968 48.5199 33.2854 49.8469C33.143 49.8826 32.9988 49.9 32.8583 49.9Z" fill="#FFBD86"/>
<path d="M38.7891 2.25781C38.7891 3.24246 38.0159 4.01562 37.0312 4.01562H33.5156C32.531 4.01562 31.7578 4.78879 31.7578 5.77344V9.28906C31.7578 10.2737 30.9846 11.0469 30 11.0469C29.0154 11.0469 28.2422 10.2737 28.2422 9.28906V5.77344C28.2422 4.22665 28.9101 2.8204 30 1.871C30.9142 1.02734 32.1446 0.5 33.5156 0.5H37.0312C38.0159 0.5 38.7891 1.27316 38.7891 2.25781Z" fill="#99503D"/>
<path d="M38.7891 2.25781C38.7891 3.24246 38.0159 4.01562 37.0312 4.01562H33.5156C32.531 4.01562 31.7578 4.78879 31.7578 5.77344V9.28906C31.7578 10.2737 30.9846 11.0469 30 11.0469V1.871C30.9142 1.02734 32.1446 0.5 33.5156 0.5H37.0312C38.0159 0.5 38.7891 1.27316 38.7891 2.25781Z" fill="#804231"/>
<path d="M30 7.53125C16.1133 7.53125 7.14844 15.2423 7.14844 26.9844C7.14844 27.969 7.9216 28.7422 8.90625 28.7422H51.0938C52.0784 28.7422 52.8516 27.969 52.8516 26.9844C52.8516 15.2423 43.8867 7.53125 30 7.53125Z" fill="#B35F49"/>
<path d="M52.8516 26.9844C52.8516 27.969 52.0784 28.7422 51.0938 28.7422H30V7.53125C43.8867 7.53125 52.8516 15.2423 52.8516 26.9844Z" fill="#99503D"/>
</g>
<defs>
<clipPath id="clip0_1_467">
<rect width="60" height="60" fill="white" transform="translate(0 0.5)"/>
</clipPath>
</defs>
</svg>
