<svg width="60" height="61" viewBox="0 0 60 61" fill="none" xmlns="http://www.w3.org/2000/svg">
<g clip-path="url(#clip0_1_475)">
<path d="M52.8516 35.7734V49.9531L56.3672 53.4688V58.7422C56.3672 59.7264 55.594 60.5 54.6094 60.5H5.39062C4.40598 60.5 3.63281 59.7264 3.63281 58.7422V53.4688L7.14844 49.9531V35.7734L3.63281 32.2578V19.9531C3.63281 18.9685 4.40598 18.1953 5.39062 18.1953C8.30887 18.1953 10.6641 15.8397 10.6641 12.9219V2.25781C10.6641 1.27316 11.4372 0.5 12.4219 0.5H21.2109L24.7266 5.77344H35.2734L38.7891 0.5H47.5781C48.5628 0.5 49.3359 1.27316 49.3359 2.25781V12.9219C49.3359 15.8397 51.6911 18.1953 54.6094 18.1953C55.594 18.1953 56.3672 18.9685 56.3672 19.9531V32.2578L52.8516 35.7734Z" fill="#C6715A"/>
<path d="M52.8516 35.7734V49.9531L56.3672 53.4688V58.7422C56.3672 59.7264 55.594 60.5 54.6094 60.5H30V5.77344H35.2734L38.7891 0.5H47.5781C48.5628 0.5 49.3359 1.27316 49.3359 2.25781V12.9219C49.3359 15.8397 51.6911 18.1953 54.6094 18.1953C55.594 18.1953 56.3672 18.9685 56.3672 19.9531V32.2578L52.8516 35.7734Z" fill="#99503D"/>
<path d="M38.7891 0.5V12.9219C38.7891 17.7733 34.8514 21.7109 30 21.7109C25.1486 21.7109 21.2109 17.7733 21.2109 12.9219V0.5H38.7891Z" fill="#68544F"/>
<path d="M47.5781 28.7422H44.0625C43.0911 28.7422 42.3047 27.9557 42.3047 26.9844C42.3047 26.013 43.0911 25.2266 44.0625 25.2266H47.5781C48.5495 25.2266 49.3359 26.013 49.3359 26.9844C49.3359 27.9557 48.5495 28.7422 47.5781 28.7422Z" fill="#3E322E"/>
<path d="M15.9375 28.7422H12.4219C11.4505 28.7422 10.6641 27.9557 10.6641 26.9844C10.6641 26.013 11.4505 25.2266 12.4219 25.2266H15.9375C16.9089 25.2266 17.6953 26.013 17.6953 26.9844C17.6953 27.9557 16.9089 28.7422 15.9375 28.7422Z" fill="#53433F"/>
<path d="M3.63281 38.6184V53.4688H19.4531C20.424 53.4688 21.2109 52.6819 21.2109 51.7109V38.6175L3.63281 38.6184Z" fill="#53433F"/>
<path d="M19.4531 32.2578H3.63281V38.6184L11.6354 42.6193C11.8826 42.7429 12.1523 42.8047 12.4219 42.8047C12.6915 42.8047 12.9611 42.7429 13.2083 42.6193L21.2109 38.6175V34.0156C21.2109 33.0447 20.424 32.2578 19.4531 32.2578Z" fill="#725D57"/>
<path d="M48.3646 39.1037H46.7917L38.7891 38.618V51.7109C38.7891 52.6823 39.5755 53.4688 40.5469 53.4688H56.3672V38.6175L48.3646 39.1037Z" fill="#3E322E"/>
<path d="M38.7891 0.5V12.9219C38.7891 17.7733 34.8514 21.7109 30 21.7109V0.5H38.7891Z" fill="#53433F"/>
<path d="M40.5469 32.2578C39.5755 32.2578 38.7891 33.0443 38.7891 34.0156V38.618L46.7917 42.6193C47.0389 42.7429 47.3085 42.8047 47.5781 42.8047C47.8477 42.8047 48.1174 42.7429 48.3646 42.6193L56.3672 38.6175V32.2578H40.5469Z" fill="#68544F"/>
</g>
<defs>
<clipPath id="clip0_1_475">
<rect width="60" height="60" fill="white" transform="translate(0 0.5)"/>
</clipPath>
</defs>
</svg>
