<svg width="60" height="61" viewBox="0 0 60 61" fill="none" xmlns="http://www.w3.org/2000/svg">
<g clip-path="url(#clip0_1_486)">
<path d="M35.132 6.62759L31.6169 14.3601C31.3006 14.9575 30.7032 15.3796 30 15.3796C29.2969 15.3796 28.6995 14.9575 28.3828 14.3601L24.868 6.62759C24.4812 5.74868 24.868 4.69445 25.747 4.27239C26.6607 3.88604 27.6801 4.27239 28.1017 5.1513L29.9996 9.36914L31.8979 5.1513C32.3195 4.27239 33.339 3.88604 34.2527 4.27239C35.132 4.69445 35.5184 5.74868 35.132 6.62759Z" fill="#B35F49"/>
<path d="M30 15.38V9.36914L31.8979 5.1513C32.3195 4.27239 33.3389 3.88604 34.2531 4.27239C35.1315 4.69445 35.5184 5.74868 35.1315 6.62759L31.6168 14.3601C31.3005 14.958 30.7031 15.38 30 15.38Z" fill="#99503D"/>
<path d="M59.7831 59.6912C59.4668 60.2533 58.7517 60.6053 58.1191 60.6053H46.6608L31.4763 50.2947C31.16 49.7673 30.5621 49.5215 30 49.5215C29.4379 49.5215 28.84 49.7673 28.5237 50.2947L13.3392 60.6053H1.88045C1.24782 60.6053 0.533246 60.2533 0.216931 59.6912C-0.0993842 59.1286 -0.0645941 58.4612 0.287427 57.8986L28.5237 12.6733C28.84 12.1459 29.4379 11.8997 30 11.8997C30.5626 11.8997 31.16 12.1459 31.4763 12.6733L59.713 57.8986C60.0641 58.4612 60.0994 59.1286 59.7831 59.6912Z" fill="#FFD400"/>
<path d="M59.7831 59.6912C59.4668 60.2533 58.7517 60.6053 58.1191 60.6053H46.6608L31.4763 50.2947C31.16 49.7673 30.5621 49.5215 30 49.5215V11.8997C30.5621 11.8997 31.16 12.1459 31.4763 12.6733L59.7126 57.8986C60.0641 58.4612 60.0994 59.1286 59.7831 59.6912Z" fill="#FF9F00"/>
<path d="M52.847 30.4941C52.847 31.4645 52.0601 32.2514 51.0891 32.2514C50.1187 32.2514 49.3318 31.4645 49.3318 30.4941C49.3318 29.5231 50.1187 28.7367 51.0891 28.7367C52.0601 28.7367 52.847 29.5231 52.847 30.4941Z" fill="#DFD7D5"/>
<path d="M14.1829 23.4641C14.1829 24.4346 13.396 25.2215 12.4251 25.2215C11.4546 25.2215 10.6677 24.4346 10.6677 23.4641C10.6677 22.4932 11.4546 21.7068 12.4251 21.7068C13.396 21.7068 14.1829 22.4932 14.1829 23.4641Z" fill="#EDE9E8"/>
<path d="M55.4481 11.2322C54.2181 9.05283 51.8982 7.64703 49.332 7.64703C46.7662 7.64703 44.4462 9.05283 43.2162 11.2322C40.7205 11.6186 38.7874 13.798 38.7874 16.4343C38.7874 19.3516 41.1421 21.7068 44.0599 21.7068H54.6045C57.5218 21.7068 59.9942 19.3516 59.9942 16.4343C59.9942 13.798 57.9439 11.6186 55.4481 11.2322Z" fill="#DFD7D5"/>
<path d="M42.3021 2.37448C42.3021 3.34495 41.5152 4.13184 40.5447 4.13184C39.5743 4.13184 38.7874 3.34495 38.7874 2.37448C38.7874 1.40402 39.5743 0.617126 40.5447 0.617126C41.5152 0.617126 42.3021 1.40402 42.3021 2.37448Z" fill="#DFD7D5"/>
<path d="M16.7838 4.20234C15.5538 2.02292 13.2334 0.617126 10.6677 0.617126C8.10188 0.617126 5.78193 2.02292 4.55192 4.20234C2.05619 4.58915 0.00585938 6.76811 0.00585938 9.40437C0.00585938 12.3217 2.47779 14.6769 5.39558 14.6769H15.9402C18.8575 14.6769 21.2127 12.3217 21.2127 9.40437C21.2127 6.76811 19.2796 4.58915 16.7838 4.20234Z" fill="#EDE9E8"/>
<path d="M46.661 60.6053H13.3394L28.5239 36.1177C28.8402 35.5908 29.4376 35.3445 30.0002 35.3445C30.5623 35.3445 31.1601 35.5908 31.4764 36.1177L46.661 60.6053Z" fill="#99503D"/>
<path d="M46.6608 60.6053H30V35.3445C30.5621 35.3445 31.16 35.5908 31.4758 36.1177L46.6608 60.6053Z" fill="#53433F"/>
</g>
<defs>
<clipPath id="clip0_1_486">
<rect width="60" height="60" fill="white" transform="translate(0 0.5)"/>
</clipPath>
</defs>
</svg>
