<svg width="60" height="61" viewBox="0 0 60 61" fill="none" xmlns="http://www.w3.org/2000/svg">
<g clip-path="url(#clip0_1_498)">
<path d="M33.5156 41.0469L38.7891 44.5625L40.5469 41.0469C51.226 41.0469 60 32.3901 60 21.7109V16.4375C60 15.4666 59.2131 14.6797 58.2422 14.6797C44.6507 14.6797 33.5156 25.6976 33.5156 39.289V41.0469Z" fill="#FF7CB9"/>
<path d="M43.1836 60.5C48.5229 60.5 52.8516 56.0542 52.8516 50.7148C52.8516 45.3755 48.5229 41.0468 43.1836 41.0468H33.5156V50.7148C33.5156 56.0542 37.8442 60.5 43.1836 60.5Z" fill="#FF5CA8"/>
<path d="M42.3047 30.5C42.3047 27.5923 44.6704 25.2266 47.5781 25.2266C50.4858 25.2266 52.8516 27.5923 52.8516 30.5C52.8516 33.4077 50.4858 35.7734 47.5781 35.7734C44.6704 35.7734 42.3047 33.4077 42.3047 30.5Z" fill="#53433F"/>
<path d="M47.5781 32.2578C46.609 32.2578 45.8203 31.4691 45.8203 30.5C45.8203 29.5309 46.609 28.7422 47.5781 28.7422C48.5472 28.7422 49.3359 29.5309 49.3359 30.5C49.3359 31.4691 48.5472 32.2578 47.5781 32.2578Z" fill="#DFD7D5"/>
<path d="M40.5469 35.7734C42.4045 35.7734 44.1898 35.3701 45.8528 34.5736C46.7285 34.1529 47.0993 33.1042 46.6804 32.2285C46.2616 31.3532 45.211 30.9843 44.3353 31.4013C43.1493 31.9694 41.8739 32.2578 40.5469 32.2578C39.5755 32.2578 38.7891 33.0442 38.7891 34.0156C38.7891 34.9874 39.5755 35.7734 40.5469 35.7734Z" fill="#53433F"/>
<path d="M50.0638 29.774C50.7198 29.774 51.3497 29.4064 51.6518 28.7747C52.4483 27.1116 52.8516 25.3264 52.8516 23.4687C52.8516 22.4974 52.0656 21.7109 51.0938 21.7109C50.1224 21.7109 49.336 22.4974 49.336 23.4687C49.336 24.7958 49.0476 26.0711 48.4795 27.2572C48.0607 28.1329 48.4314 29.1816 49.3067 29.6023C49.5507 29.7191 49.8098 29.774 50.0638 29.774Z" fill="#53433F"/>
<path d="M44.0625 49.8359C44.0625 50.8068 43.2756 51.5937 42.3047 51.5937C41.3338 51.5937 40.5469 50.8068 40.5469 49.8359C40.5469 48.865 41.3338 48.0781 42.3047 48.0781C43.2756 48.0781 44.0625 48.865 44.0625 49.8359Z" fill="#53433F"/>
<path d="M26.4845 41.0469L21.211 44.5625L19.4532 41.0469C8.77453 41.0469 0.00012207 32.3901 0.00012207 21.7109V16.4375C0.00012207 15.4666 0.787017 14.6797 1.75793 14.6797C15.3494 14.6797 26.4845 25.6976 26.4845 39.289V41.0469Z" fill="#FF9AC9"/>
<path d="M16.8164 60.5C11.477 60.5 7.14844 56.0542 7.14844 50.7148C7.14844 45.3755 11.477 41.0468 16.8164 41.0468H26.4844V50.7148C26.4844 56.0542 22.1558 60.5 16.8164 60.5Z" fill="#FF7CB9"/>
<path d="M30 28.7422C27.0818 28.7422 24.7266 31.0974 24.7266 34.0156C24.7266 36.9334 27.0818 39.2891 30 39.2891C32.9182 39.2891 35.2734 36.9334 35.2734 34.0156C35.2734 31.0974 32.9182 28.7422 30 28.7422Z" fill="#68544F"/>
<path d="M41.7773 3.48828C35.3087 9.95693 31.7578 18.6874 31.7578 27.828V30.5C31.7578 31.4842 30.9846 32.2578 30 32.2578C29.0153 32.2578 28.2422 31.4842 28.2422 30.5V27.828C28.2422 18.6879 24.6913 9.95693 18.2227 3.48828C17.5195 2.8204 17.5195 1.69522 18.2227 1.02734C18.8905 0.324219 20.0157 0.324219 20.6836 1.02734C25.0429 5.38662 28.2069 10.742 30 16.4375C31.7931 10.742 34.9571 5.38662 39.3164 1.02734C39.9843 0.324219 41.1095 0.324219 41.7773 1.02734C42.4805 1.69522 42.4805 2.8204 41.7773 3.48828Z" fill="#725D57"/>
<path d="M12.4219 35.7734C9.51416 35.7734 7.14844 33.4077 7.14844 30.5C7.14844 27.5923 9.51416 25.2266 12.4219 25.2266C15.3296 25.2266 17.6953 27.5923 17.6953 30.5C17.6953 33.4077 15.3296 35.7734 12.4219 35.7734Z" fill="#68544F"/>
<path d="M12.4219 32.2578C11.4528 32.2578 10.6641 31.4691 10.6641 30.5C10.6641 29.5309 11.4528 28.7422 12.4219 28.7422C13.391 28.7422 14.1797 29.5309 14.1797 30.5C14.1797 31.4691 13.391 32.2578 12.4219 32.2578Z" fill="#EDE9E8"/>
<path d="M19.4532 35.7734C17.5955 35.7734 15.8107 35.3701 14.1472 34.5736C13.2715 34.1529 12.9007 33.1042 13.3196 32.2285C13.7384 31.3532 14.789 30.9843 15.6647 31.4013C16.8508 31.9694 18.1261 32.2578 19.4532 32.2578C20.425 32.2578 21.211 33.0442 21.211 34.0156C21.211 34.9874 20.425 35.7734 19.4532 35.7734Z" fill="#68544F"/>
<path d="M9.93622 29.774C9.28024 29.774 8.65036 29.4064 8.34824 28.7747C7.55173 27.1116 7.14844 25.3264 7.14844 23.4687C7.14844 22.4974 7.93488 21.7109 8.90625 21.7109C9.87808 21.7109 10.6641 22.4974 10.6641 23.4687C10.6641 24.7958 10.9525 26.0711 11.5205 27.2572C11.9394 28.1329 11.5686 29.1816 10.6934 29.6023C10.4494 29.7191 10.1903 29.774 9.93622 29.774Z" fill="#68544F"/>
<path d="M19.4531 49.8359C19.4531 50.8068 18.6662 51.5937 17.6953 51.5937C16.7244 51.5937 15.9375 50.8068 15.9375 49.8359C15.9375 48.865 16.7244 48.0781 17.6953 48.0781C18.6662 48.0781 19.4531 48.865 19.4531 49.8359Z" fill="#68544F"/>
<path d="M41.7773 3.48828C35.3087 9.95693 31.7578 18.6874 31.7578 27.828V30.5C31.7578 31.4842 30.9846 32.2578 30 32.2578V16.4375C31.7931 10.742 34.9571 5.38662 39.3164 1.02734C39.9843 0.324219 41.1095 0.324219 41.7773 1.02734C42.4805 1.69522 42.4805 2.8204 41.7773 3.48828Z" fill="#68544F"/>
<path d="M35.2734 34.0156C35.2734 36.9334 32.9182 39.2891 30 39.2891V28.7422C32.9182 28.7422 35.2734 31.0974 35.2734 34.0156Z" fill="#53433F"/>
<path d="M30.211 35.7734H29.789C26.9765 35.7734 24.7266 38.0233 24.7266 40.8358V48.2891C24.7266 51.1016 26.9765 53.3515 29.789 53.3515H30.211C33.0235 53.3515 35.2734 51.1016 35.2734 48.2891V40.8358C35.2734 38.0233 33.0235 35.7734 30.211 35.7734Z" fill="#725D57"/>
<path d="M35.2734 40.8358V48.2891C35.2734 51.1016 33.0235 53.3515 30.211 53.3515H30V35.7734H30.211C33.0235 35.7734 35.2734 38.0233 35.2734 40.8358Z" fill="#53433F"/>
</g>
<defs>
<clipPath id="clip0_1_498">
<rect width="60" height="60" fill="white" transform="translate(0 0.5)"/>
</clipPath>
</defs>
</svg>
