<svg width="60" height="61" viewBox="0 0 60 61" fill="none" xmlns="http://www.w3.org/2000/svg">
<g clip-path="url(#clip0_1_173)">
<path d="M20.8141 50.7244L18.3531 43.2715C18.2478 43.0257 18.1073 42.7794 17.9315 42.5684C17.7205 42.3926 17.4742 42.2521 17.2284 42.1468L9.77602 39.6859C9.14293 39.4753 8.43981 39.6154 7.98296 40.1079L0.530575 47.5603C-0.418825 48.4744 -0.0320158 50.0565 1.19845 50.4781L7.84242 52.6575L10.0218 59.3015C10.4439 60.5319 12.0255 60.9187 12.9396 59.9698L20.3925 52.517C20.8841 52.0601 21.0251 51.357 20.8141 50.7244Z" fill="#FF6C6C"/>
<path d="M20.814 50.7244C21.0251 51.3571 20.8845 52.0602 20.392 52.517L12.9396 59.9694C12.0254 60.9188 10.4434 60.532 10.0218 59.3016L7.84241 52.6576L17.9315 42.5685C18.1068 42.7795 18.2478 43.0258 18.3531 43.2716L20.814 50.7244Z" fill="#FF6C6C"/>
<path d="M47.4101 52.3563C47.0585 52.6726 46.6369 52.8484 46.1796 52.8484C45.7228 52.8484 45.2659 52.6726 44.9492 52.3563L8.1441 15.5508C7.47622 14.8829 7.47622 13.7577 8.1441 13.0898C8.84722 12.3867 9.97194 12.3867 10.6398 13.0898L47.4101 49.8601C48.1132 50.528 48.1132 51.6527 47.4101 52.3563Z" fill="#EDE9E8"/>
<path d="M47.4101 52.3563C47.0586 52.6726 46.637 52.8484 46.1797 52.8484C45.7228 52.8484 45.266 52.6726 44.9492 52.3563L26.5645 33.9707L29.025 31.475L47.4101 49.8601C48.1133 50.528 48.1133 51.6527 47.4101 52.3563Z" fill="#DFD7D5"/>
<path d="M20.814 50.7244C21.0251 51.3571 20.8845 52.0602 20.392 52.517L12.9396 59.9694C12.0254 60.9188 10.4434 60.532 10.0218 59.3016L7.84241 52.6576L17.9315 42.5685C18.1068 42.7795 18.2478 43.0258 18.3531 43.2716L20.814 50.7244Z" fill="#FF4949"/>
<path d="M52.0152 10.9452L5.48726 57.5089C4.81939 58.1767 3.6942 58.1767 2.99108 57.5089C2.3232 56.8057 2.3232 55.6806 2.99108 55.0127L49.5547 8.48474C50.2222 7.78162 51.3473 7.78162 52.0152 8.48474C52.7183 9.15262 52.7183 10.2778 52.0152 10.9452Z" fill="#B35F49"/>
<path d="M49.953 57.5122C50.6209 58.18 50.6209 59.3048 49.953 60.0079C49.6014 60.3242 49.1446 60.5 48.6873 60.5C48.2657 60.5 47.8084 60.3242 47.4573 60.0079L46.7422 59.1056C43.8245 56.2231 43.3324 51.7233 45.547 48.2434C50.3984 40.5095 47.9375 30.5257 38.9735 21.5265C29.9744 12.5273 19.9906 10.1016 12.2567 14.953C8.77674 17.1677 4.27693 16.6756 1.3944 13.7578L0.500846 12.8757C-0.16703 12.1726 -0.16703 11.0831 0.500846 10.38C1.20397 9.71208 2.32915 9.71208 2.99703 10.38L3.85533 11.2616C5.61314 13.0194 8.28465 13.3009 10.394 12C19.6042 6.16442 31.2396 8.80113 41.4693 19.0308C51.6989 29.2604 54.3356 40.861 48.5 50.1065C47.1991 52.2154 47.4806 54.8869 49.2384 56.6447L49.953 57.5122Z" fill="#68544F"/>
<path d="M52.0152 10.9452L5.48727 57.5089C4.81939 58.1767 3.69421 58.1767 2.99109 57.5089L52.0152 8.48474C52.7183 9.15262 52.7183 10.2778 52.0152 10.9452Z" fill="#99503D"/>
<path d="M49.953 57.5122C50.6208 58.18 50.6208 59.3048 49.953 60.0079C49.6014 60.3242 49.1445 60.5 48.6872 60.5C48.2656 60.5 47.8083 60.3242 47.4572 60.0079L46.7422 59.1056C43.8244 56.2231 43.3323 51.7233 45.547 48.2434C50.3984 40.5095 47.9374 30.5257 38.9735 21.5265L41.4692 19.0308C51.6989 29.2604 54.3356 40.861 48.5 50.1065C47.1991 52.2154 47.4806 54.8869 49.2379 56.6447L49.953 57.5122Z" fill="#53433F"/>
<path d="M59.4676 1.03244C59.0107 0.540342 58.3076 0.364561 57.675 0.61038L42.7697 5.56704C42.0671 5.81332 41.5745 6.48119 41.5745 7.21911C41.5745 7.99273 42.0671 8.6606 42.7697 8.90688L49.3785 11.1215L51.5931 17.7303C51.8394 18.4329 52.5073 18.925 53.2809 18.925C54.0188 18.925 54.6867 18.4329 54.933 17.7303L59.8892 2.82504C60.1007 2.19241 59.9601 1.48929 59.4676 1.03244Z" fill="#EDE9E8"/>
<path d="M59.8897 2.82495L54.933 17.7302C54.6867 18.4333 54.0189 18.9254 53.2809 18.9254C52.5073 18.9254 51.8394 18.4333 51.5936 17.7302L49.379 11.1214L59.4676 1.03235C59.9602 1.4892 60.1007 2.19232 59.8897 2.82495Z" fill="#DFD7D5"/>
</g>
<defs>
<clipPath id="clip0_1_173">
<rect width="60" height="60" fill="white" transform="translate(0 0.5)"/>
</clipPath>
</defs>
</svg>
