<svg width="60" height="61" viewBox="0 0 60 61" fill="none" xmlns="http://www.w3.org/2000/svg">
<g clip-path="url(#clip0_1_531)">
<path d="M60 12.8253C60 18.6618 55.2686 23.3928 49.4325 23.3928C43.596 23.3928 38.865 18.6618 38.865 12.8253C38.865 6.98926 43.596 2.25781 49.4325 2.25781C55.2686 2.25781 60 6.98926 60 12.8253Z" fill="#3E322E"/>
<path d="M21.2526 12.8253C21.2526 18.6618 16.5211 23.3928 10.6851 23.3928C4.84862 23.3928 -9.53674e-06 18.6618 -9.53674e-06 12.8253C-9.53674e-06 6.9888 4.84862 2.25781 10.6851 2.25781C16.5211 2.25781 21.2526 6.9888 21.2526 12.8253Z" fill="#68544F"/>
<path d="M30.0586 5.7803C13.5384 5.7803 -9.53674e-06 19.201 -9.53674e-06 35.7217C-9.53674e-06 50.4809 10.7556 58.7353 30.0586 58.7353C49.362 58.7353 60 50.4809 60 35.7217C60 19.201 46.5793 5.7803 30.0586 5.7803Z" fill="#EDE9E8"/>
<path d="M60 35.7217C60 50.4809 49.362 58.7353 30.0586 58.7353V5.7803C46.5793 5.7803 60 19.201 60 35.7217Z" fill="#D2C5C2"/>
<path d="M31.8201 41.0052V49.8117C31.8201 50.7977 31.0451 51.5727 30.0586 51.5727C29.0721 51.5727 28.2976 50.7977 28.2976 49.8117V41.0052C28.2976 40.0187 29.0721 39.2442 30.0586 39.2442C31.0451 39.2442 31.8201 40.0187 31.8201 41.0052Z" fill="#68544F"/>
<path d="M31.8201 41.0052V49.8117C31.8201 50.7977 31.0451 51.5727 30.0586 51.5727V39.2442C31.0451 39.2442 31.8201 40.0187 31.8201 41.0052Z" fill="#3E322E"/>
<path d="M38.8651 46.2892C38.8651 49.2125 36.5048 51.5727 33.5811 51.5727H26.5361C23.6124 51.5727 21.2526 49.2125 21.2526 46.2892C21.2526 45.3027 22.0271 44.5277 23.0136 44.5277C24.0001 44.5277 24.7751 45.3027 24.7751 46.2892C24.7751 47.2752 25.5496 48.0502 26.5361 48.0502H33.5811C34.5676 48.0502 35.3426 47.2752 35.3426 46.2892C35.3426 45.3027 36.1171 44.5277 37.1036 44.5277C38.0901 44.5277 38.8651 45.3027 38.8651 46.2892Z" fill="#68544F"/>
<path d="M30.0586 33.9602C26.9943 33.9602 24.7751 35.4397 24.7751 37.4827C24.7751 39.2794 26.9943 42.7667 30.0586 42.7667C33.1233 42.7667 35.3426 39.2794 35.3426 37.4827C35.3426 35.4397 33.1233 33.9602 30.0586 33.9602Z" fill="#68544F"/>
<path d="M30.0586 42.7667V33.9602C33.1233 33.9602 35.3426 35.4397 35.3426 37.4827C35.3426 39.2794 33.1233 42.7667 30.0586 42.7667Z" fill="#3E322E"/>
<path d="M38.8651 46.2892C38.8651 49.2125 36.5048 51.5727 33.5811 51.5727H30.0586V48.0502H33.5811C34.5676 48.0502 35.3426 47.2752 35.3426 46.2892C35.3426 45.3027 36.1171 44.5277 37.1036 44.5277C38.0901 44.5277 38.8651 45.3027 38.8651 46.2892Z" fill="#3E322E"/>
<path d="M14.7835 40.7631C13.8016 40.7631 12.8261 40.5791 11.8922 40.1886C7.41165 38.3136 5.5957 32.4158 7.84378 27.0407C10.0932 21.6661 15.5644 18.8124 20.045 20.6874C24.5256 22.5619 26.342 28.4598 24.0939 33.8348C22.3137 38.0902 18.5124 40.7631 14.7835 40.7631Z" fill="#725D57"/>
<path d="M45.3337 40.763C41.6048 40.763 37.804 38.0902 36.0237 33.8348C33.7756 28.4597 35.592 22.5619 40.0722 20.6874C44.539 18.8192 50.0258 21.6624 52.2739 27.0407C54.5219 32.4157 52.7055 38.3136 48.2249 40.1886C47.2929 40.5772 46.3161 40.763 45.3337 40.763Z" fill="#53433F"/>
<path d="M17.7301 32.1992C17.7301 33.172 16.9414 33.9602 15.9686 33.9602C14.9959 33.9602 14.2076 33.172 14.2076 32.1992C14.2076 31.2265 14.9959 30.4377 15.9686 30.4377C16.9414 30.4377 17.7301 31.2265 17.7301 32.1992Z" fill="#53433F"/>
<path d="M45.91 32.1992C45.91 33.172 45.1213 33.9602 44.1486 33.9602C43.1758 33.9602 42.3875 33.172 42.3875 32.1992C42.3875 31.2265 43.1758 30.4377 44.1486 30.4377C45.1213 30.4377 45.91 31.2265 45.91 32.1992Z" fill="#3E322E"/>
</g>
<defs>
<clipPath id="clip0_1_531">
<rect width="60" height="60" fill="white" transform="translate(0 0.5)"/>
</clipPath>
</defs>
</svg>
