<svg width="60" height="61" viewBox="0 0 60 61" fill="none" xmlns="http://www.w3.org/2000/svg">
<g clip-path="url(#clip0_1_546)">
<path d="M8.90625 32.2578C4.06036 32.2578 0 28.3146 0 23.4688C0 18.6229 4.06036 14.6797 8.90625 14.6797C13.7521 14.6797 17.6953 18.6229 17.6953 23.4688C17.6953 28.3146 13.7521 32.2578 8.90625 32.2578Z" fill="#68544F"/>
<path d="M8.90625 28.7422C5.98434 28.7422 3.51562 26.3275 3.51562 23.4688C3.51562 20.61 5.98434 18.1953 8.90625 18.1953C11.814 18.1953 14.1797 20.561 14.1797 23.4688C14.1797 26.3765 11.814 28.7422 8.90625 28.7422Z" fill="#FFBD86"/>
<path d="M51.0938 32.2578C46.2479 32.2578 42.3047 28.3146 42.3047 23.4688C42.3047 18.6229 46.2479 14.6797 51.0938 14.6797C55.9396 14.6797 60 18.6229 60 23.4688C60 28.3146 55.9396 32.2578 51.0938 32.2578Z" fill="#3E322E"/>
<path d="M51.0938 28.7422C48.186 28.7422 45.8203 26.3765 45.8203 23.4688C45.8203 20.561 48.186 18.1953 51.0938 18.1953C54.0157 18.1953 56.4844 20.61 56.4844 23.4688C56.4844 26.3275 54.0157 28.7422 51.0938 28.7422Z" fill="#F6A96C"/>
<path d="M30 0.5C14.7771 0.5 3.51562 27.1954 3.51562 41.0469C3.51562 53.8789 12.4924 60.5 30 60.5C47.5076 60.5 56.4844 53.8789 56.4844 41.0469C56.4844 27.1954 45.2229 0.5 30 0.5Z" fill="#725D57"/>
<path d="M56.4844 41.0469C56.4844 53.8789 47.5076 60.5 30 60.5V0.5C45.2229 0.5 56.4844 27.1954 56.4844 41.0469Z" fill="#53433F"/>
<path d="M44.4141 33.9451C45.3282 36.3708 45.8203 38.797 45.8203 41.0469C45.8203 42.5937 45.5388 43.9647 45.0819 45.2656H30L14.9181 45.2304C14.4612 43.9647 14.1797 42.5937 14.1797 41.0469C14.1797 38.797 14.6718 36.3708 15.5859 33.9451C14.6718 32.3631 14.1797 30.57 14.1797 28.7422C14.1797 22.9414 18.9258 18.1953 24.7266 18.1953C26.5901 18.1953 28.3827 18.6874 30 19.6368C31.6173 18.6874 33.4099 18.1953 35.2734 18.1953C41.0742 18.1953 45.8203 22.9414 45.8203 28.7422C45.8203 30.57 45.3282 32.3631 44.4141 33.9451Z" fill="#FED2A4"/>
<path d="M44.4141 33.9451C45.3282 36.3708 45.8203 38.797 45.8203 41.0469C45.8203 42.5937 45.5388 43.9647 45.0819 45.2656H30V19.6368C31.6173 18.6874 33.4099 18.1953 35.2734 18.1953C41.0742 18.1953 45.8203 22.9414 45.8203 28.7422C45.8203 30.57 45.3282 32.3631 44.4141 33.9451Z" fill="#FFBD86"/>
<path d="M28.2422 37.5312C28.2422 38.5022 27.4553 39.2891 26.4844 39.2891C25.5135 39.2891 24.7266 38.5022 24.7266 37.5312C24.7266 36.5603 25.5135 35.7734 26.4844 35.7734C27.4553 35.7734 28.2422 36.5603 28.2422 37.5312Z" fill="#68544F"/>
<path d="M26.4844 28.7422C26.4844 29.7131 25.6975 30.5 24.7266 30.5C23.7556 30.5 22.9688 29.7131 22.9688 28.7422C22.9688 27.7713 23.7556 26.9844 24.7266 26.9844C25.6975 26.9844 26.4844 27.7713 26.4844 28.7422Z" fill="#68544F"/>
<path d="M37.0312 28.7422C37.0312 29.7131 36.2444 30.5 35.2734 30.5C34.3025 30.5 33.5156 29.7131 33.5156 28.7422C33.5156 27.7713 34.3025 26.9844 35.2734 26.9844C36.2444 26.9844 37.0312 27.7713 37.0312 28.7422Z" fill="#3E322E"/>
<path d="M35.2734 37.5312C35.2734 38.5022 34.4865 39.2891 33.5156 39.2891C32.5447 39.2891 31.7578 38.5022 31.7578 37.5312C31.7578 36.5603 32.5447 35.7734 33.5156 35.7734C34.4865 35.7734 35.2734 36.5603 35.2734 37.5312Z" fill="#3E322E"/>
<path d="M45.082 45.2656C42.9373 51.4528 36.5392 53.3516 30 53.3516C23.4256 53.3516 17.0275 51.4532 14.9181 45.2304C18.68 43.5779 24.4451 42.8047 30 42.8047C35.4492 42.8047 41.2853 43.5779 45.082 45.2656Z" fill="#FFBD86"/>
<path d="M45.0819 45.2656C42.9373 51.4528 36.5392 53.3516 30 53.3516V42.8047C35.4492 42.8047 41.2852 43.5779 45.0819 45.2656Z" fill="#F6A96C"/>
</g>
<defs>
<clipPath id="clip0_1_546">
<rect width="60" height="60" fill="white" transform="translate(0 0.5)"/>
</clipPath>
</defs>
</svg>
