<svg width="60" height="61" viewBox="0 0 60 61" fill="none" xmlns="http://www.w3.org/2000/svg">
<g clip-path="url(#clip0_1_561)">
<path d="M54.0467 31.3084C49.8985 35.4571 48.1054 41.3984 49.2301 47.1992L49.8985 50.3985L46.6992 49.7302C45.5387 49.5196 44.3788 49.4139 43.2188 49.4139C38.5427 49.4139 34.1129 51.2422 30.8083 54.5468L29.9999 55.3557L29.1915 54.5468C25.8869 51.2422 21.4572 49.4139 16.7811 49.4139C15.6211 49.4139 14.4612 49.5196 13.3007 49.7302L10.1014 50.3985L10.7697 47.1992C11.8945 41.3984 10.1014 35.4571 5.95316 31.3084L5.14429 30.5L5.95316 29.6911C10.1014 25.5429 11.8945 19.6016 10.7697 13.8008L10.1014 10.6015L13.3007 11.2693C14.4612 11.4804 15.6211 11.5861 16.7811 11.5861C21.4572 11.5861 25.8869 9.75781 29.1915 6.45322L29.9999 5.64435L30.8083 6.45322C34.1129 9.75781 38.5427 11.5861 43.2188 11.5861C44.3788 11.5861 45.5387 11.4804 46.6992 11.2693L49.8985 10.6015L49.2301 13.8008C48.1054 19.6016 49.8985 25.5429 54.0467 29.6911L54.8556 30.5L54.0467 31.3084Z" fill="#D2C5C2"/>
<path d="M54.0468 31.3084C49.8985 35.4571 48.1055 41.3984 49.2302 47.1992L49.8985 50.3985L46.6992 49.7302C45.5388 49.5196 44.3788 49.4139 43.2188 49.4139C38.5428 49.4139 34.113 51.2422 30.8084 54.5468L30 55.3557V5.64435L30.8084 6.45322C34.113 9.75781 38.5428 11.5861 43.2188 11.5861C44.3788 11.5861 45.5388 11.4804 46.6992 11.2693L49.8985 10.6015L49.2302 13.8008C48.1055 19.6016 49.8985 25.5429 54.0468 29.6911L54.8557 30.5L54.0468 31.3084Z" fill="#C4B3AF"/>
<path d="M58.2422 28.7422H55.594L55.3125 28.4607C51.5506 24.6992 49.9333 19.3553 50.9532 14.1523L51.5154 11.4804L53.6247 9.371C54.2931 8.66788 54.2931 7.57794 53.6247 6.87482C52.9221 6.20694 51.8321 6.20694 51.129 6.87482L49.0196 8.98419L46.3477 9.54678C41.1447 10.5662 35.8008 8.9494 32.0393 5.22275L31.7578 4.90598V2.25781C31.7578 1.27316 30.9846 0.5 30 0.5C29.0154 0.5 28.2422 1.27316 28.2422 2.25781V4.90598L27.9607 5.1875C24.1992 8.9494 18.8553 10.5662 13.6523 9.54678L10.9804 8.98419L8.871 6.87482C8.16788 6.20694 7.07794 6.20694 6.37527 6.87482C5.70694 7.57794 5.70694 8.66788 6.37527 9.371L8.48419 11.4804L9.04678 14.1523C10.0662 19.3553 8.4494 24.6992 4.72275 28.4607L4.40598 28.7422H1.75781C0.773163 28.7422 0 29.5154 0 30.5C0 31.4842 0.773163 32.2578 1.75781 32.2578H4.40598L4.6875 32.5389C8.4494 36.3008 10.0667 41.6447 9.04678 46.8477L8.48465 49.5196L6.37527 51.629C5.70694 52.3321 5.70694 53.4216 6.37527 54.1247C7.07794 54.7931 8.16788 54.7931 8.871 54.1247L10.9804 52.0158L13.6523 51.4532C18.8553 50.4338 24.1992 52.0506 27.9607 55.7773L28.2422 56.0936V58.7422C28.2422 59.7264 29.0154 60.5 30 60.5C30.9846 60.5 31.7578 59.7264 31.7578 58.7422V56.0936L32.0393 55.8125C35.8008 52.0506 41.1447 50.4333 46.3477 51.4528L49.0196 52.0154L51.129 54.1247C51.8321 54.7926 52.9221 54.7926 53.6247 54.1247C54.2931 53.4216 54.2931 52.3317 53.6247 51.629L51.5158 49.5196L50.9532 46.8477C49.9338 41.6447 51.5506 36.3008 55.2773 32.5389L55.594 32.2578H58.2422C59.2268 32.2578 60 31.4842 60 30.5C60 29.5154 59.2268 28.7422 58.2422 28.7422ZM12.8087 15.7696L16.2538 19.25C15.9727 22.5898 14.9181 25.8244 13.2303 28.7422H9.08203C11.8245 25.0155 13.1602 20.41 12.8087 15.7696ZM12.8087 45.2304C13.1602 40.59 11.8245 35.9845 9.08203 32.2578H13.2303C14.9181 35.1756 15.9727 38.4102 16.2538 41.75L12.8087 45.2304ZM28.2422 51.5233C24.9023 49.0271 20.9294 47.6561 16.7812 47.6561C16.2538 47.6561 15.7265 47.7618 15.1991 47.7966L18.75 44.2462C22.0898 44.5273 25.3592 45.5819 28.2422 47.2693V51.5233ZM25.746 32.2578L19.3826 38.6564C18.9258 36.4413 18.2227 34.2967 17.238 32.2578H25.746ZM17.2385 28.7422C18.2227 26.7029 18.9258 24.5587 19.3826 22.3436L25.746 28.7422H17.2385ZM28.2422 43.2615C26.2029 42.2773 24.0587 41.5742 21.8436 41.1169L28.2422 34.754V43.2615ZM28.2422 26.246L21.8436 19.8826C24.0587 19.4258 26.2033 18.7222 28.2422 17.738V26.246ZM28.2422 13.7303C25.3592 15.4176 22.0898 16.4727 18.75 16.7538L15.2696 13.3087C19.91 13.6602 24.5155 12.324 28.2422 9.58203V13.7303ZM31.7578 9.58203C35.4845 12.324 40.09 13.6602 44.7304 13.3087L41.25 16.7538C37.9102 16.4727 34.6408 15.4181 31.7578 13.7303V9.58203ZM34.254 28.7422L40.6174 22.3436C41.0742 24.5587 41.7773 26.7033 42.762 28.7422H34.254ZM42.7615 32.2578C41.7773 34.2967 41.0742 36.4413 40.6174 38.6564L34.254 32.2578H42.7615ZM31.7578 17.7385C33.7971 18.7227 35.9413 19.4258 38.1564 19.8826L31.7578 26.246V17.7385ZM31.7578 34.754L38.1564 41.1169C35.9413 41.5742 33.7967 42.2773 31.7578 43.2615V34.754ZM31.7578 51.418V47.2693C34.6408 45.5819 37.9102 44.5273 41.25 44.2457L44.7304 47.6913C40.09 47.3398 35.4845 48.6755 31.7578 51.418ZM47.1913 45.2304L43.7462 41.75C44.0273 38.4102 45.0819 35.1756 46.7697 32.2578H50.918C48.1755 35.9845 46.8398 40.59 47.1913 45.2304ZM46.7697 28.7422C45.0819 25.8239 44.0273 22.5898 43.7462 19.25L47.1913 15.7696C46.8398 20.41 48.176 25.0155 50.918 28.7422H46.7697Z" fill="#EDE9E8"/>
<path d="M58.2422 28.7422H55.594L55.3125 28.4607C51.5506 24.6992 49.9333 19.3553 50.9532 14.1523L51.5154 11.4804L53.6247 9.371C54.2931 8.66788 54.2931 7.57794 53.6247 6.87482C52.9221 6.20694 51.8321 6.20694 51.129 6.87482L49.0196 8.98419L46.3477 9.54678C41.1447 10.5662 35.8008 8.9494 32.0393 5.22275L31.7578 4.90598V2.25781C31.7578 1.27316 30.9846 0.5 30 0.5V60.5C30.9846 60.5 31.7578 59.7264 31.7578 58.7422V56.0936L32.0393 55.8125C35.8008 52.0506 41.1447 50.4333 46.3477 51.4528L49.0196 52.0154L51.129 54.1247C51.8321 54.7926 52.9221 54.7926 53.6247 54.1247C54.2931 53.4216 54.2931 52.3317 53.6247 51.629L51.5158 49.5196L50.9532 46.8477C49.9338 41.6447 51.5506 36.3008 55.2773 32.5389L55.594 32.2578H58.2422C59.2268 32.2578 60 31.4842 60 30.5C60 29.5154 59.2268 28.7422 58.2422 28.7422ZM31.7578 9.58203C35.4845 12.324 40.09 13.6602 44.7304 13.3087L41.25 16.7538C37.9102 16.4727 34.6408 15.4181 31.7578 13.7303V9.58203ZM34.254 28.7422L40.6174 22.3436C41.0742 24.5587 41.7773 26.7033 42.762 28.7422H34.254ZM42.7615 32.2578C41.7773 34.2967 41.0742 36.4413 40.6174 38.6564L34.254 32.2578H42.7615ZM31.7578 17.7385C33.7971 18.7227 35.9413 19.4258 38.1564 19.8826L31.7578 26.246V17.7385ZM31.7578 34.754L38.1564 41.1169C35.9413 41.5742 33.7967 42.2773 31.7578 43.2615V34.754ZM31.7578 51.418V47.2693C34.6408 45.5819 37.9102 44.5273 41.25 44.2457L44.7304 47.6913C40.09 47.3398 35.4845 48.6755 31.7578 51.418ZM47.1913 45.2304L43.7462 41.75C44.0273 38.4102 45.0819 35.1756 46.7697 32.2578H50.918C48.1755 35.9845 46.8398 40.59 47.1913 45.2304ZM46.7697 28.7422C45.0819 25.8239 44.0273 22.5898 43.7462 19.25L47.1913 15.7696C46.8398 20.41 48.176 25.0155 50.918 28.7422H46.7697Z" fill="#DFD7D5"/>
</g>
<defs>
<clipPath id="clip0_1_561">
<rect width="60" height="60" fill="white" transform="translate(0 0.5)"/>
</clipPath>
</defs>
</svg>
