<svg width="60" height="61" viewBox="0 0 60 61" fill="none" xmlns="http://www.w3.org/2000/svg">
<g clip-path="url(#clip0_1_38)">
<path d="M31.7578 2.25781V9.28906C31.7578 10.2733 30.9846 11.0469 30 11.0469C29.0154 11.0469 28.2422 10.2733 28.2422 9.28906V2.25781C28.2422 1.27316 29.0154 0.5 30 0.5C30.9846 0.5 31.7578 1.27316 31.7578 2.25781Z" fill="#68544F"/>
<path d="M30 11.0469V0.5C30.9846 0.5 31.7578 1.27316 31.7578 2.25781V9.28906C31.7578 10.2733 30.9846 11.0469 30 11.0469Z" fill="#3E322E"/>
<path d="M56.3672 34.0156C56.3672 31.5899 54.7151 29.5506 52.4648 28.918C52.711 28.3206 52.8516 27.6523 52.8516 26.9844C52.8516 24.5587 51.1995 22.5193 48.9491 21.8867C49.1954 21.2893 49.3359 20.621 49.3359 19.9531C49.3359 17.5274 47.6839 15.3709 45.4335 14.7383C45.6798 14.1409 45.8203 13.4726 45.8203 12.8047C45.8203 9.88644 43.4651 7.53125 40.5469 7.53125H19.4531C16.5349 7.53125 14.1797 9.88644 14.1797 12.8047C14.1797 13.4726 14.3202 14.1404 14.5665 14.7383C12.3166 15.3709 10.6641 17.5274 10.6641 19.9531C10.6641 20.621 10.8046 21.2889 11.0509 21.8867C8.80096 22.5193 7.14844 24.5587 7.14844 26.9844C7.14844 27.6523 7.28897 28.3201 7.53525 28.918C5.28534 29.5506 3.63281 31.5899 3.63281 34.0156C3.63281 36.4413 5.28488 38.4802 7.53525 39.1133C7.28897 39.7107 7.14844 40.379 7.14844 41.0469C7.14844 43.4726 8.80051 45.5114 11.0509 46.1445C10.8046 46.7419 10.6641 47.4102 10.6641 48.0781C10.6641 50.5038 12.3161 52.6599 14.5665 53.293C14.3202 53.8904 14.1797 54.5587 14.1797 55.2266C14.1797 58.1443 16.5349 60.5 19.4531 60.5H40.5469C43.4651 60.5 45.8203 58.1443 45.8203 55.2266C45.8203 54.5587 45.6798 53.8908 45.4335 53.293C47.6834 52.6599 49.3359 50.5038 49.3359 48.0781C49.3359 47.4102 49.1954 46.7424 48.9491 46.1445C51.199 45.5114 52.8516 43.4726 52.8516 41.0469C52.8516 40.379 52.711 39.7111 52.4648 39.1133C54.7151 38.4802 56.3672 36.4413 56.3672 34.0156Z" fill="#FFD400"/>
<path d="M56.3672 34.0156C56.3672 36.4413 54.7151 38.4802 52.4648 39.1133C52.711 39.7107 52.8516 40.379 52.8516 41.0469C52.8516 43.4726 51.1995 45.5114 48.9491 46.1445C49.1954 46.7419 49.3359 47.4102 49.3359 48.0781C49.3359 50.5038 47.6839 52.6599 45.4335 53.293C45.6798 53.8904 45.8203 54.5587 45.8203 55.2266C45.8203 58.1443 43.4651 60.5 40.5469 60.5H30V7.53125H40.5469C43.4651 7.53125 45.8203 9.88644 45.8203 12.8047C45.8203 13.4726 45.6798 14.1404 45.4335 14.7383C47.6834 15.3709 49.3359 17.5274 49.3359 19.9531C49.3359 20.621 49.1954 21.2889 48.9491 21.8867C51.199 22.5193 52.8516 24.5587 52.8516 26.9844C52.8516 27.6523 52.711 28.3201 52.4648 28.918C54.7151 29.5506 56.3672 31.5899 56.3672 34.0156Z" fill="#FF9F00"/>
<path d="M56.3672 2.25781C56.3672 3.242 55.594 4.01562 54.6094 4.01562H5.39062C4.40598 4.01562 3.63281 3.242 3.63281 2.25781C3.63281 1.27316 4.40598 0.5 5.39062 0.5H54.6094C55.594 0.5 56.3672 1.27316 56.3672 2.25781Z" fill="#B35F49"/>
<path d="M54.6094 4.01562H30V0.5H54.6094C55.594 0.5 56.3672 1.27316 56.3672 2.25781C56.3672 3.242 55.594 4.01562 54.6094 4.01562Z" fill="#99503D"/>
<path d="M30 25.2266C25.1486 25.2266 21.2109 29.1642 21.2109 34.0156C21.2109 38.867 25.1486 42.8047 30 42.8047C34.8514 42.8047 38.7891 38.867 38.7891 34.0156C38.7891 29.1642 34.8514 25.2266 30 25.2266Z" fill="#68544F"/>
<path d="M38.7891 34.0156C38.7891 38.867 34.8514 42.8047 30 42.8047V25.2266C34.8514 25.2266 38.7891 29.1642 38.7891 34.0156Z" fill="#3E322E"/>
</g>
<defs>
<clipPath id="clip0_1_38">
<rect width="60" height="60" fill="white" transform="translate(0 0.5)"/>
</clipPath>
</defs>
</svg>
