<svg width="60" height="61" viewBox="0 0 60 61" fill="none" xmlns="http://www.w3.org/2000/svg">
<g clip-path="url(#clip0_1_566)">
<path d="M8.67769 60.4644C7.72691 60.274 7.10893 59.3489 7.29936 58.3963L10.8145 40.7027C10.9056 40.2459 11.1753 39.8444 11.563 39.5853L19.0296 34.6076C19.838 34.0683 20.9298 34.2881 21.4672 35.0951C22.006 35.9035 21.7881 36.9935 20.9797 37.5323L14.1191 42.1067L10.7463 59.0861C10.5541 60.0515 9.60924 60.6562 8.67769 60.4644Z" fill="#68544F"/>
<path d="M0.821089 45.9684C0.0433463 45.3866 -0.114125 44.2848 0.469068 43.5088L11.1322 29.4477C11.3744 29.1231 11.7196 28.8952 12.1123 28.7972L19.73 26.892C20.6707 26.6567 21.6251 27.2266 21.8604 28.1705C22.0971 29.1112 21.524 30.0657 20.5814 30.3005L13.5698 32.0551L3.28066 45.6169C2.70113 46.3928 1.59975 46.5525 0.821089 45.9684Z" fill="#68544F"/>
<path d="M23.4498 20.6627C23.2662 20.6627 23.079 20.6334 22.8936 20.5716L15.4975 18.107C14.6273 17.8168 14.1261 16.9054 14.349 16.0146L17.8642 1.8362C18.0995 0.892293 19.0489 0.308643 19.9946 0.557667C20.9367 0.792501 21.5103 1.74694 21.2731 2.68765L18.1526 15.2867L24.006 17.2382C24.9261 17.5439 25.4237 18.5396 25.1165 19.4611C24.8712 20.1976 24.1859 20.6627 23.4498 20.6627Z" fill="#725D57"/>
<path d="M23.225 25.2284H19.5688C19.3802 25.2284 19.193 25.1978 19.0127 25.1378L8.46667 21.6222C7.94162 21.4491 7.52963 21.0371 7.35614 20.5116L3.84096 9.96565C3.53334 9.04417 4.03139 8.04853 4.9515 7.74274C5.88351 7.43741 6.86862 7.93363 7.1744 8.85374L10.4131 18.5652L19.8536 21.7133H23.225C24.1964 21.7133 24.9828 22.4992 24.9828 23.4711C24.9828 24.4425 24.1964 25.2284 23.225 25.2284Z" fill="#725D57"/>
<path d="M26.5996 15.8584C25.6278 15.8584 24.8418 15.072 24.8418 14.1006V9.40946C24.8418 8.43808 25.6278 7.6521 26.5996 7.6521C27.571 7.6521 28.357 8.43808 28.357 9.40946V14.1006C28.357 15.072 27.571 15.8584 26.5996 15.8584Z" fill="#725D57"/>
<path d="M33.6301 15.8585C32.6588 15.8585 31.8723 15.072 31.8723 14.1007V9.40949C31.8723 8.43811 32.6588 7.65213 33.6301 7.65213C34.6015 7.65213 35.3879 8.43811 35.3879 9.40949V14.1007C35.3879 15.072 34.6015 15.8585 33.6301 15.8585Z" fill="#53433F"/>
<path d="M36.78 20.6627C36.0434 20.6627 35.3586 20.1976 35.1132 19.4611C34.8061 18.5396 35.3037 17.5439 36.2238 17.2382L42.0768 15.2867L38.9562 2.68719C38.7195 1.74694 39.2926 0.792499 40.2352 0.557208C41.169 0.311846 42.1299 0.891834 42.3652 1.8362L45.8803 16.0146C46.1037 16.9054 45.6025 17.8168 44.7323 18.107L37.3362 20.5716C37.1508 20.6334 36.9635 20.6627 36.78 20.6627Z" fill="#53433F"/>
<path d="M40.6608 25.2284H37.0046C36.0333 25.2284 35.2468 24.4425 35.2468 23.4711C35.2468 22.4992 36.0333 21.7133 37.0046 21.7133H40.3756L49.8166 18.5652L53.0553 8.85374C53.3624 7.93363 54.3512 7.43741 55.2782 7.74274C56.1983 8.04853 56.6959 9.04417 56.3887 9.96565L52.8735 20.5116C52.7 21.0367 52.288 21.4487 51.763 21.6222L41.217 25.1378C41.0366 25.1978 40.8494 25.2284 40.6608 25.2284Z" fill="#53433F"/>
<path d="M38.903 21.7133C38.903 22.9433 38.7272 24.139 38.3756 25.299H21.8535C21.502 24.139 21.3262 22.9438 21.3262 21.7133C21.3262 15.9129 25.2634 11.1673 30.1148 11.1673C34.9657 11.1673 38.903 15.9129 38.903 21.7133Z" fill="#68544F"/>
<path d="M38.3758 25.2985H30.115V11.1673C34.9659 11.1673 38.9032 15.9129 38.9032 21.7133C38.9032 22.9433 38.7274 24.139 38.3758 25.2985Z" fill="#3E322E"/>
<path d="M49.4833 59.0861L46.1105 42.1067L39.25 37.5323C38.4416 36.993 38.2232 35.9035 38.7625 35.0947C39.2976 34.2881 40.388 34.0684 41.1996 34.6071L48.6662 39.5849C49.0544 39.8444 49.3236 40.2459 49.4146 40.7023L52.9303 58.3963C53.1207 59.3489 52.5027 60.274 51.552 60.4645C50.6204 60.6563 49.6756 60.052 49.4833 59.0861Z" fill="#3E322E"/>
<path d="M56.9483 45.6168L46.66 32.0551L39.6479 30.3005C38.7059 30.0657 38.1323 29.1112 38.3694 28.1705C38.6029 27.2266 39.5573 26.653 40.4994 26.892L48.1171 28.7972C48.5103 28.8951 48.8554 29.1231 49.0971 29.4477L59.7598 43.5088C60.3435 44.2847 60.1856 45.3866 59.4083 45.9684C58.6301 46.5521 57.5287 46.3932 56.9483 45.6168Z" fill="#3E322E"/>
<path d="M42.4182 32.2593C42.4182 34.0871 42.1019 35.9855 41.5745 37.8486H18.6547C18.1274 35.9855 17.811 34.0871 17.811 32.2593C17.811 27.4431 19.9552 21.7133 30.1148 21.7133C40.274 21.7133 42.4182 27.4431 42.4182 32.2593Z" fill="#725D57"/>
<path d="M42.4183 32.2593C42.4183 34.0871 42.102 35.9855 41.5747 37.8486H30.115V21.7133C40.2742 21.7133 42.4183 27.4431 42.4183 32.2593Z" fill="#53433F"/>
<path d="M41.5746 37.8486C41.1883 39.1843 40.6962 40.4849 40.0631 41.7506C39.9578 41.9964 39.8525 42.2779 39.7115 42.5237L30.1149 42.559H20.5531C20.4126 42.3127 20.2721 41.9964 20.1663 41.7506C19.5337 40.4849 19.0063 39.1843 18.6548 37.8486C20.4478 34.544 24.9472 32.2593 30.1149 32.2593C35.2474 32.2593 39.782 34.544 41.5746 37.8486Z" fill="#FF8597"/>
<path d="M41.5747 37.8486C41.1883 39.1843 40.6962 40.4849 40.0631 41.7506C39.9578 41.9964 39.8526 42.2779 39.7116 42.5237L30.115 42.559V32.2593C35.2474 32.2593 39.7821 34.544 41.5747 37.8486Z" fill="#FF4949"/>
<path d="M39.7116 42.5237C39.1142 43.6137 38.4463 44.6331 37.708 45.5116C35.6338 48.1135 32.9976 49.8356 30.115 49.8356C27.2325 49.8356 24.5957 48.113 22.4868 45.5116C21.7837 44.5979 21.1158 43.6137 20.5532 42.559C22.8031 40.5553 26.2831 39.2896 30.115 39.2896C33.947 39.2896 37.4269 40.5201 39.7116 42.5237Z" fill="#725D57"/>
<path d="M30.115 39.2901C33.9469 39.2901 37.4269 40.5201 39.7116 42.5237C39.1142 43.6137 38.4463 44.6331 37.7079 45.5116C35.6338 48.1135 32.9975 49.8356 30.115 49.8356V39.2901Z" fill="#53433F"/>
</g>
<defs>
<clipPath id="clip0_1_566">
<rect width="60" height="60" fill="white" transform="translate(0 0.5)"/>
</clipPath>
</defs>
</svg>
