<svg width="60" height="61" viewBox="0 0 60 61" fill="none" xmlns="http://www.w3.org/2000/svg">
<g clip-path="url(#clip0_1_586)">
<path d="M27.9536 38.3474C27.8625 37.8155 27.533 37.3536 27.0592 37.0945C26.5854 36.8368 26.0173 36.813 25.5229 37.0259L20.9068 39.0204L20.5173 31.0965C20.488 30.5197 20.179 29.9942 19.6896 29.6907C19.1985 29.3831 18.5942 29.3419 18.0641 29.5685L13.4494 31.5634L13.0599 23.6377C13.0292 23.0247 12.6822 22.4718 12.1416 22.1783C11.606 21.8868 10.95 21.8968 10.4199 22.204L0.872847 27.6921C0.400894 27.9672 0.0832063 28.4442 0.0145418 28.9848C-0.0559536 29.5254 0.128067 30.0679 0.514419 30.4542L21.8251 51.6464C22.1684 51.9897 22.6184 52.1614 23.0679 52.1614C23.5179 52.1614 23.9674 51.9897 24.3108 51.6464L29.0404 44.7955L27.9536 38.3474Z" fill="#EDE9E8"/>
<path d="M59.127 27.6921L49.5803 22.204C49.0498 21.8968 48.3975 21.8868 47.8582 22.1783C47.3176 22.4718 46.9711 23.0247 46.94 23.6377L46.5504 31.5634L41.9357 29.5685C41.4056 29.3419 40.8027 29.3831 40.3102 29.6907C39.8208 29.9942 39.5119 30.5197 39.483 31.0965L39.093 39.0204L34.4769 37.0259C33.9793 36.813 33.4145 36.8368 32.9407 37.0945C32.4669 37.3536 32.1373 37.8155 32.0462 38.3474L30.9595 44.7955L35.6891 51.6464C36.0324 51.9897 36.4819 52.1618 36.9319 52.1618C37.3814 52.1618 37.8314 51.9897 38.1747 51.6464L59.4859 30.4542C59.8718 30.0679 60.0558 29.5254 59.9853 28.9848C59.9166 28.4442 59.5989 27.9672 59.127 27.6921Z" fill="#DFD7D5"/>
<path d="M49.4069 17.0605L48.4927 13.6854C47.5081 9.99354 43.5356 7.59166 39.8795 8.57585L33.094 10.4042L30 1.89618L29.9648 1.79089C29.719 0.841489 28.7696 0.314147 27.8206 0.560423L17.6249 3.26717C16.7107 3.51299 16.1481 4.49764 16.3944 5.44658L22.2304 24.338C22.5115 25.2874 23.4609 25.8495 24.4103 25.6037L30 24.0917L31.1957 23.7754C31.6525 23.6349 32.0394 23.3534 32.2504 22.967C32.4962 22.5449 32.5667 22.0528 32.4262 21.6308L31.9689 19.9082L39.2816 21.4198C39.5279 21.455 39.809 21.455 40.0905 21.3845L48.1764 19.2051C49.0901 18.9588 49.6527 18.0094 49.4069 17.0605Z" fill="#68544F"/>
<path d="M48.1764 19.2052L40.09 21.3846C39.8085 21.4551 39.5279 21.4551 39.2816 21.4198L31.9688 19.9083L32.4257 21.6309C32.5662 22.0525 32.4962 22.545 32.2499 22.9666C32.0393 23.3534 31.6521 23.6349 31.1952 23.7755L30 24.0918V1.89624L33.0936 10.4042L39.879 8.57592C43.5351 7.59173 47.5081 9.99361 48.4927 13.685L49.4064 17.0606C49.6527 18.0095 49.0901 18.9589 48.1764 19.2052Z" fill="#53433F"/>
<path d="M30 42.7955C25.1482 42.7955 21.2109 46.7332 21.2109 51.5846C21.2109 56.4364 25.1482 60.4913 30 60.4913C34.8518 60.4913 38.789 56.4364 38.789 51.5846C38.789 46.7332 34.8518 42.7955 30 42.7955Z" fill="#D2C5C2"/>
<path d="M38.789 51.5846C38.789 56.4364 34.8518 60.4913 30 60.4913V42.7955C34.8518 42.7955 38.789 46.7332 38.789 51.5846Z" fill="#C4B3AF"/>
<path d="M30 46.3112C27.0818 46.3112 24.7266 48.6663 24.7266 51.5846C24.7266 54.5028 27.0818 56.858 30 56.858C32.9182 56.858 35.2734 54.5028 35.2734 51.5846C35.2734 48.6663 32.9182 46.3112 30 46.3112Z" fill="#EDE9E8"/>
<path d="M35.2734 51.5846C35.2734 54.5028 32.9182 56.858 30 56.858V46.3112C32.9182 46.3112 35.2734 48.6663 35.2734 51.5846Z" fill="#DFD7D5"/>
<path d="M31.7578 51.5846C31.7578 52.5692 30.9846 53.3424 30 53.3424C29.0153 53.3424 28.2422 52.5692 28.2422 51.5846C28.2422 50.6004 29.0153 49.8268 30 49.8268C30.9846 49.8268 31.7578 50.6004 31.7578 51.5846Z" fill="#68544F"/>
<path d="M31.7578 51.5846C31.7578 52.5692 30.9846 53.3424 30 53.3424V49.8268C30.9846 49.8268 31.7578 50.6004 31.7578 51.5846Z" fill="#53433F"/>
</g>
<defs>
<clipPath id="clip0_1_586">
<rect width="60" height="60" fill="white" transform="translate(0 0.5)"/>
</clipPath>
</defs>
</svg>
