<svg width="60" height="61" viewBox="0 0 60 61" fill="none" xmlns="http://www.w3.org/2000/svg">
<g clip-path="url(#clip0_1_597)">
<path d="M35.2734 11.0469H28.2422C27.2708 11.0469 26.4844 10.2604 26.4844 9.28906C26.4844 8.31769 27.2708 7.53125 28.2422 7.53125H35.2734C36.2448 7.53125 37.0312 8.31769 37.0312 9.28906C37.0312 10.2604 36.2448 11.0469 35.2734 11.0469Z" fill="#FF4949"/>
<path d="M57.9845 59.4101C57.7029 60.0779 57.0703 60.5 56.3672 60.5C51.5158 60.4648 47.5781 56.5275 47.5781 51.6757V33.8984C47.5781 32.9138 46.805 32.1406 45.8203 32.1406C44.8357 32.1406 44.0625 32.9138 44.0625 33.8984V53.4688C44.0625 57.3359 40.8984 60.5 37.0312 60.5H33.5156C29.6484 60.5 26.4844 57.3359 26.4844 53.4688V33.8984C26.4844 32.9138 25.7112 32.1406 24.7266 32.1406C23.7419 32.1406 22.9688 32.9138 22.9688 33.8984V53.4688C22.9688 57.3359 19.8047 60.5 15.9375 60.5H10.6641C5.81268 60.5 1.875 56.5623 1.875 51.7109V12.8047C1.875 10.9063 2.29706 9.11328 3.10547 7.53125C5.03906 3.383 9.29306 0.5 14.1797 0.5H21.2109C25.4649 0.5 29.0154 3.52353 29.8242 7.53125C29.9648 8.23438 30.0352 8.97275 30 9.74591C29.8595 12.4884 27.469 14.5625 24.7266 14.5625H14.1797C13.195 14.5625 12.4219 15.3357 12.4219 16.3203V48.1953C12.4219 49.18 13.195 49.9531 14.1797 49.9531C15.1643 49.9531 15.9375 49.18 15.9375 48.1953V28.625C15.9375 24.7578 19.1016 21.5938 22.9688 21.5938H26.4844C30.3516 21.5938 33.5156 24.7578 33.5156 28.625V48.1953C33.5156 49.18 34.2888 49.9531 35.2734 49.9531C36.2581 49.9531 37.0312 49.18 37.0312 48.1953V28.625C37.0312 24.7578 40.1953 21.5938 44.0625 21.5938H47.5781C51.4453 21.5938 54.6094 24.7578 54.6094 28.625V51.0078C54.6094 53.5392 55.9804 55.6839 57.6682 57.5822C58.125 58.0743 58.2655 58.7774 57.9845 59.4101Z" fill="#70DA40"/>
<path d="M57.9845 59.4101C57.7029 60.0779 57.0703 60.5 56.3672 60.5C51.5158 60.4648 47.5781 56.5275 47.5781 51.6757V33.8984C47.5781 32.9138 46.805 32.1406 45.8203 32.1406C44.8357 32.1406 44.0625 32.9138 44.0625 33.8984V53.4688C44.0625 57.3359 40.8984 60.5 37.0312 60.5H33.5156C29.6484 60.5 26.4844 57.3359 26.4844 53.4688V33.8984C26.4844 32.9138 25.7112 32.1406 24.7266 32.1406C23.7419 32.1406 22.9688 32.9138 22.9688 33.8984V53.4688C22.9688 57.3359 19.8047 60.5 15.9375 60.5H10.6641C5.81268 60.5 1.875 56.5623 1.875 51.7109V12.8047C1.875 10.9063 2.29706 9.11328 3.10547 7.53125H29.8242C29.9648 8.23438 30.0352 8.97275 30 9.74591C29.8595 12.4884 27.469 14.5625 24.7266 14.5625H14.1797C13.195 14.5625 12.4219 15.3357 12.4219 16.3203V48.1953C12.4219 49.18 13.195 49.9531 14.1797 49.9531C15.1643 49.9531 15.9375 49.18 15.9375 48.1953V28.625C15.9375 24.7578 19.1016 21.5938 22.9688 21.5938H26.4844C30.3516 21.5938 33.5156 24.7578 33.5156 28.625V48.1953C33.5156 49.18 34.2888 49.9531 35.2734 49.9531C36.2581 49.9531 37.0312 49.18 37.0312 48.1953V28.625C37.0312 24.7578 40.1953 21.5938 44.0625 21.5938H47.5781C51.4453 21.5938 54.6094 24.7578 54.6094 28.625V51.0078C54.6094 53.5392 55.9804 55.6839 57.6682 57.5822C58.125 58.0743 58.2655 58.7774 57.9845 59.4101Z" fill="#56C225"/>
<path d="M22.9688 7.53125C22.9688 8.5159 22.1956 9.28906 21.2109 9.28906C20.2263 9.28906 19.4531 8.5159 19.4531 7.53125C19.4531 6.5466 20.2263 5.77344 21.2109 5.77344C22.1956 5.77344 22.9688 6.5466 22.9688 7.53125Z" fill="#68544F"/>
<path d="M22.9688 7.53125C22.9688 8.5159 22.1956 9.28906 21.2109 9.28906C20.2263 9.28906 19.4531 8.5159 19.4531 7.53125H22.9688Z" fill="#53433F"/>
</g>
<defs>
<clipPath id="clip0_1_597">
<rect width="60" height="60" fill="white" transform="translate(0 0.5)"/>
</clipPath>
</defs>
</svg>
