<svg width="60" height="61" viewBox="0 0 60 61" fill="none" xmlns="http://www.w3.org/2000/svg">
<g clip-path="url(#clip0_1_603)">
<path d="M19.9668 52.9477L16.4516 49.4325C15.765 48.7459 15.765 47.6335 16.4516 46.9469C17.1383 46.2607 18.2502 46.2607 18.9368 46.9469L22.452 50.4621C23.1386 51.1487 23.1386 52.2611 22.452 52.9477C21.7653 53.6343 20.6534 53.6343 19.9668 52.9477Z" fill="#D2C5C2"/>
<path d="M17.6939 60.4931H10.6636C9.69223 60.4931 8.90625 59.7071 8.90625 58.7357C8.90625 57.7639 9.69223 56.9779 10.6636 56.9779H17.6939C18.6658 56.9779 19.4517 57.7639 19.4517 58.7357C19.4517 59.7071 18.6658 60.4931 17.6939 60.4931Z" fill="#D2C5C2"/>
<path d="M46.1672 19.6931L40.5431 23.5012L42.9331 24.1338C42.0547 25.5048 41.3515 26.8053 40.9647 28.0005L37.0628 30.4967L40.789 31.5862C41.2463 33.2383 42.3357 34.1991 43.7067 35.1133C45.4293 36.3085 47.5735 37.7848 47.5735 41.1594C47.5735 41.1946 47.5735 41.2647 47.5382 41.2999L40.5431 44.4635L46.1672 45.0966C43.0389 49.9828 35.2349 54.939 29.9972 57.9268C27.9936 59.0515 26.3415 59.8952 25.4979 60.3172C24.7595 60.704 23.8105 60.4577 23.2832 59.7551C22.7911 59.052 22.8611 58.103 23.4942 57.5052C23.529 57.4351 29.9972 50.8965 29.9972 44.6745C29.9972 42.4251 28.4857 40.9484 25.7437 39.261L29.9972 37.4332L18.7838 35.2185C16.7802 33.9885 14.7766 32.3946 12.9487 30.532L15.9366 28.7037L9.36309 25.8916C8.51943 24.5206 7.78106 23.0091 7.18368 21.2513L8.76525 19.1305L6.30478 16.67C6.23428 16.5995 6.129 16.5995 6.02325 16.5647C5.6369 14.3853 5.39062 11.9949 5.39062 9.28811C5.39062 8.30392 6.16379 7.53076 7.14843 7.53076L29.9972 9.92074L53.268 12.3817C51.6508 13.8227 48.7687 16.6347 46.1672 19.6931Z" fill="#EDE9E8"/>
<path d="M46.1673 19.6931L40.5433 23.5012L42.9332 24.1339C42.0548 25.5049 41.3517 26.8054 40.9649 28.0006L37.0629 30.4968L40.7891 31.5862C41.2464 33.2383 42.3359 34.1991 43.7069 35.1133C45.4294 36.3085 47.5736 37.7848 47.5736 41.1594C47.5736 41.1947 47.5736 41.2647 47.5383 41.3L40.5433 44.4636L46.1673 45.0966C43.039 49.9828 35.235 54.939 29.9973 57.9268V9.92078L53.2681 12.3813C51.6509 13.8227 48.7688 16.6348 46.1673 19.6931Z" fill="#DFD7D5"/>
<path d="M54.6038 9.28813C54.6038 10.3076 54.2174 11.2918 53.4438 12.2059C53.3033 12.3817 53.0218 12.557 52.8112 12.768L47.6087 11.8191L49.6476 14.7717C45.2183 16.8105 38.047 18.0763 29.9972 18.0763C22.5453 18.0763 15.0224 16.9511 10.312 14.7717L12.4214 12.768H7.18368C6.0585 11.7486 5.39062 10.5886 5.39062 9.28813C5.39062 8.97136 5.42587 8.6555 5.49637 8.33873C6.83212 2.96047 19.1354 0.5 29.9972 0.5C42.2305 0.5 54.6038 3.52307 54.6038 9.28813Z" fill="#DFD7D5"/>
<path d="M54.6039 9.28813C54.6039 10.3076 54.2175 11.2918 53.4439 12.2059C53.3034 12.3817 53.0219 12.557 52.8113 12.768L47.6088 11.8191L49.6477 14.7717C45.2184 16.8105 38.0471 18.0763 29.9973 18.0763V0.5C42.2306 0.5 54.6039 3.52307 54.6039 9.28813Z" fill="#D2C5C2"/>
<path d="M12.4214 51.7049C12.4214 52.6758 11.6345 53.4627 10.6636 53.4627C9.69314 53.4627 8.90625 52.6758 8.90625 51.7049C8.90625 50.7344 9.69314 49.9475 10.6636 49.9475C11.6345 49.9475 12.4214 50.7344 12.4214 51.7049Z" fill="#D2C5C2"/>
<path d="M40.5432 58.7357C40.5432 59.7062 39.7563 60.4931 38.7854 60.4931C37.815 60.4931 37.0281 59.7062 37.0281 58.7357C37.0281 57.7648 37.815 56.9779 38.7854 56.9779C39.7563 56.9779 40.5432 57.7648 40.5432 58.7357Z" fill="#C4B3AF"/>
<path d="M38.6344 42.5583C37.6662 42.6407 36.9507 43.4935 37.0349 44.4598C37.1137 45.3763 37.8809 46.0666 38.784 46.0666C38.8335 46.0666 38.8852 46.0647 38.9365 46.0597C41.4469 45.8432 43.8469 45.509 46.1769 45.1071C47.0059 43.8144 47.5227 42.5299 47.5552 41.2903C44.7359 41.857 41.7627 42.2882 38.6344 42.5583Z" fill="#D2C5C2"/>
<path d="M37.0281 37.4332C37.0629 38.3821 36.3249 39.2258 35.376 39.261C33.5125 39.3668 31.7199 39.4015 29.9973 39.4015C28.521 39.4015 27.15 39.3315 25.7438 39.261C24.9001 38.7337 23.9159 38.1711 22.8264 37.5737C21.5607 36.8706 20.1549 36.0974 18.7839 35.2185C22.2638 35.6758 25.99 35.8864 29.9973 35.8864C31.6494 35.8864 33.4072 35.8516 35.1645 35.7458C36.1139 35.6754 36.9576 36.449 37.0281 37.4332Z" fill="#DFD7D5"/>
<path d="M30.0489 30.5137C30.0677 31.4732 30.8505 32.2372 31.8063 32.2372H31.8406C34.9832 32.1754 37.9682 31.9529 40.799 31.5926C40.6782 31.1289 40.5876 30.6286 40.5876 30.0056C40.5876 29.3945 40.7258 28.7216 40.962 28.0093C38.0575 28.4048 34.9745 28.6588 31.772 28.7216C30.8006 28.7408 30.0297 29.5442 30.0489 30.5137Z" fill="#D2C5C2"/>
<path d="M37.0281 37.4332C37.0629 38.3822 36.325 39.2258 35.376 39.2611C33.5125 39.3668 31.7199 39.4016 29.9973 39.4016V35.8865C31.6494 35.8865 33.4072 35.8512 35.1645 35.7459C36.1139 35.6754 36.9576 36.449 37.0281 37.4332Z" fill="#D2C5C2"/>
<path d="M24.7261 32.1168C25.653 32.1168 26.4289 31.3908 26.4807 30.4537C26.5319 29.4856 25.789 28.6565 24.819 28.6053C18.8415 28.2807 13.6899 27.3538 9.35303 25.9091C10.4169 27.692 11.6309 29.2228 12.9401 30.5425C16.4722 31.3358 20.3494 31.8838 24.6304 32.1154C24.6629 32.1168 24.6936 32.1168 24.7261 32.1168Z" fill="#DFD7D5"/>
<path d="M29.9973 23.4852C30.0215 24.441 30.8025 25.2013 31.7551 25.2013H31.7963C34.3016 25.1414 38.5167 24.9093 42.941 24.1316C43.8702 22.7006 44.9968 21.1181 46.1829 19.7091C40.7492 21.1405 34.8404 21.6125 31.7139 21.6862C30.7425 21.7104 29.9753 22.5152 29.9973 23.4852Z" fill="#D2C5C2"/>
<path d="M17.5635 24.2318C18.4049 24.2318 19.1497 23.6257 19.2957 22.7692C19.4568 21.8116 18.8132 20.9034 17.8574 20.7404C12.9072 19.8995 9.02258 18.4539 6.31079 16.6755C6.22061 16.6169 6.11899 16.6013 6.02332 16.561C6.32223 18.2172 6.70996 19.8688 7.19427 21.2645C9.94405 22.5417 13.3059 23.5341 17.2669 24.2075C17.3662 24.2231 17.466 24.2318 17.5635 24.2318Z" fill="#DFD7D5"/>
<path d="M29.9972 9.26749C29.9753 8.29612 29.1376 7.48039 28.1987 7.55088C19.7356 7.74909 10.8829 9.44419 7.18372 12.7804C7.9935 13.5137 9.04452 14.1743 10.3052 14.7579C12.9378 13.0665 19.2188 11.2789 28.2811 11.066C29.2506 11.0422 30.0197 10.237 29.9972 9.26749Z" fill="#D2C5C2"/>
<path d="M42.6407 8.66829C41.6675 8.47786 40.7629 9.10087 40.5757 10.0535C40.3885 11.0061 41.0083 11.9294 41.9609 12.1184C45.7851 12.871 48.2556 13.8653 49.6628 14.7744C50.9816 14.1715 52.0253 13.4954 52.819 12.7671C50.4304 10.5959 46.0963 9.3499 42.6407 8.66829Z" fill="#C4B3AF"/>
</g>
<defs>
<clipPath id="clip0_1_603">
<rect width="60" height="60" fill="white" transform="translate(0 0.5)"/>
</clipPath>
</defs>
</svg>
