<svg width="60" height="61" viewBox="0 0 60 61" fill="none" xmlns="http://www.w3.org/2000/svg">
<g clip-path="url(#clip0_1_621)">
<path d="M58.9101 7.78897L41.2148 0.640533C41.0037 0.535248 40.7932 0.5 40.5469 0.5C40.3711 0.5 40.1601 0.535248 39.9843 0.605286L19.5236 7.54269L2.42569 0.640533C1.86356 0.429504 1.26572 0.464752 0.773163 0.816315C0.281525 1.13263 0 1.65997 0 2.25781V51.5938C0 52.2969 0.422058 52.9648 1.08994 53.211L18.7852 60.3595C19.1721 60.5352 19.6289 60.5352 20.0157 60.3943L40.4764 53.4568L40.5469 53.4921L57.5743 60.359C57.7853 60.4648 58.0312 60.5 58.2422 60.5C58.5938 60.5 58.9453 60.3943 59.2268 60.1832C59.7185 59.8674 60 59.3396 60 58.7422V9.40625C60 8.70312 59.5779 8.03525 58.9101 7.78897Z" fill="#EDE9E8"/>
<path d="M60 9.40625V58.7422C60 59.3396 59.7185 59.8674 59.2268 60.1837C58.9453 60.3943 58.5938 60.5 58.2422 60.5C58.0312 60.5 57.7853 60.4648 57.5743 60.3595L40.5469 53.4921V0.5C40.7932 0.5 41.0037 0.535248 41.2148 0.640533L58.9101 7.78897C59.5779 8.03525 60 8.70312 60 9.40625Z" fill="#DFD7D5"/>
<path d="M40.5469 4.1561L40.4764 4.12085L21.2109 10.6531L20.0157 11.0587C19.6289 11.1992 19.1721 11.1992 18.7852 11.0235L17.6953 10.584L3.51562 4.85922V50.3985L17.6953 56.1384L19.5236 56.879L21.2109 56.3068L38.7891 50.3467L39.9843 49.9412C40.1601 49.8711 40.3711 49.8359 40.5469 49.8359C40.7932 49.8359 41.0037 49.8711 41.2148 49.9764L42.3047 50.4076L56.4844 56.0235V10.6014L40.5469 4.1561Z" fill="#90E36A"/>
<path d="M56.4844 10.6014V56.0235L41.2148 49.9764C41.0037 49.8712 40.7932 49.8359 40.5469 49.8359V4.15613L56.4844 10.6014Z" fill="#56C225"/>
<path d="M21.2109 10.6532V41.0469C21.2109 42.0183 20.4245 42.8047 19.4531 42.8047C18.4818 42.8047 17.6953 42.0183 17.6953 41.0469V10.5841L18.7852 11.0236C19.1721 11.1993 19.6289 11.1993 20.0157 11.0588L21.2109 10.6532Z" fill="#70DA40"/>
<path d="M21.2109 55.1094V56.3069L19.5236 56.8791L17.6953 56.1384V55.1094C17.6953 54.138 18.4818 53.3516 19.4531 53.3516C20.4245 53.3516 21.2109 54.138 21.2109 55.1094Z" fill="#70DA40"/>
<path d="M42.3047 48.0781V50.4077L41.2148 49.9765C41.0037 49.8712 40.7932 49.8359 40.5469 49.8359C40.3711 49.8359 40.1601 49.8712 39.9843 49.9412L38.7891 50.3468V48.0781C38.7891 47.0939 39.5627 46.3203 40.5469 46.3203C41.5311 46.3203 42.3047 47.0939 42.3047 48.0781Z" fill="#56C225"/>
<path d="M18.8008 49.7106L18.0455 49.4084C17.1446 49.0482 16.7052 48.0251 17.0654 47.1237C17.4243 46.2174 18.4575 45.7816 19.3501 46.1437L19.5081 46.2073L21.4618 45.5564C22.392 45.246 23.3794 45.7472 23.6847 46.6674C23.9918 47.5888 23.4943 48.5845 22.5742 48.8903L20.0093 49.7454C19.6381 49.8722 19.1995 49.8708 18.8008 49.7106ZM11.5155 46.7974L8.2521 45.4914C7.35123 45.1293 6.91315 44.1062 7.27386 43.2048C7.63595 42.3017 8.65906 41.8622 9.56039 42.2261L12.8238 43.5326C13.7247 43.8947 14.1627 44.9178 13.802 45.8191C13.4349 46.7314 12.4036 47.1526 11.5155 46.7974ZM27.0218 45.5564C26.7146 44.6363 27.2104 43.6406 28.1323 43.3335L31.4662 42.2211C32.3845 41.9103 33.382 42.4115 33.6891 43.3316C33.9963 44.2517 33.5001 45.2474 32.5786 45.555L29.2447 46.6674C28.3379 46.9722 27.3322 46.4884 27.0218 45.5564ZM37.0262 42.2211C36.7191 41.2992 37.2166 40.3035 38.1367 39.9982L39.9907 39.3802C40.9227 39.0731 41.9064 39.5706 42.2136 40.4907C42.5212 41.4127 42.0232 42.4083 41.1031 42.7141L39.2491 43.3316C38.3221 43.6406 37.3311 43.1366 37.0262 42.2211Z" fill="#68544F"/>
<path d="M40.5469 7.64844C33.7619 7.64844 28.2422 13.1682 28.2422 19.9531C28.2422 22.0977 28.8048 24.2419 29.8943 26.1055L39.0353 41.9258C39.3517 42.4531 39.9142 42.8047 40.5469 42.8047C41.1795 42.8047 41.7421 42.4531 42.0584 41.9258L51.1995 26.1055C52.289 24.2419 52.8516 22.0977 52.8516 19.9531C52.8516 13.1682 47.3318 7.64844 40.5469 7.64844ZM40.5469 25.2266C37.6286 25.2266 35.2734 22.8709 35.2734 19.9531C35.2734 17.0349 37.6286 14.6797 40.5469 14.6797C43.4651 14.6797 45.8203 17.0349 45.8203 19.9531C45.8203 22.8709 43.4651 25.2266 40.5469 25.2266Z" fill="#FF6C6C"/>
<path d="M52.8516 19.9531C52.8516 22.0977 52.289 24.2419 51.1995 26.1055L42.0584 41.9258C41.7421 42.4531 41.1795 42.8047 40.5469 42.8047V25.2266C43.4651 25.2266 45.8203 22.8709 45.8203 19.9531C45.8203 17.0349 43.4651 14.6797 40.5469 14.6797V7.64844C47.3318 7.64844 52.8516 13.1682 52.8516 19.9531Z" fill="#FF4949"/>
<path d="M42.3047 48.0781V50.4077L41.2148 49.9765C41.0037 49.8712 40.7932 49.8359 40.5469 49.8359V46.3203C41.5311 46.3203 42.3047 47.0939 42.3047 48.0781Z" fill="#49A520"/>
</g>
<defs>
<clipPath id="clip0_1_621">
<rect width="60" height="60" fill="white" transform="translate(0 0.5)"/>
</clipPath>
</defs>
</svg>
