<svg width="60" height="61" viewBox="0 0 60 61" fill="none" xmlns="http://www.w3.org/2000/svg">
<g clip-path="url(#clip0_1_283)">
<path d="M56.2944 0.61857C55.626 0.372751 54.8877 0.513284 54.3956 1.00538L18.0144 37.6095C17.3113 38.3126 17.3113 39.4026 18.0144 40.1062L22.9724 45.0637C23.324 45.4153 23.7813 45.5915 24.2381 45.5915C24.6602 45.5915 25.117 45.4153 25.4691 45.0637C32.2902 38.2421 35.7948 36.027 38.7836 34.3745C41.2097 33.0383 43.4953 31.8078 46.9061 28.3618C54.3956 20.8723 56.5407 10.8862 57.138 5.71714C57.3843 3.71305 57.3843 2.44733 57.3843 2.2711C57.3843 1.53318 56.9623 0.900094 56.2944 0.61857Z" fill="#EDE9E8"/>
<path d="M57.138 5.71716C56.5407 10.8862 54.3956 20.8723 46.9061 28.3618C43.4953 31.8078 41.2097 33.0383 38.7836 34.3745C35.7948 36.027 32.2902 38.2422 25.4691 45.0638C25.117 45.4153 24.6602 45.5916 24.2381 45.5916C23.7813 45.5916 23.324 45.4153 22.9724 45.0638L20.511 42.6024L22.9724 40.1062L57.138 5.71716Z" fill="#DFD7D5"/>
<path d="M30.4266 50.0218C29.7588 50.7249 28.6336 50.7249 27.9652 50.0218C26.348 48.4393 23.9571 48.123 21.9878 49.0371L14.041 41.0904C14.9556 39.1215 14.6388 36.7302 13.0563 35.1129C12.3532 34.445 12.3532 33.3198 13.0563 32.6515C13.7247 31.9484 14.8499 31.9484 15.5177 32.6515L30.4266 47.5604C31.1298 48.2287 31.1298 49.3539 30.4266 50.0218Z" fill="#C6715A"/>
<path d="M16.9945 46.5057L19.2448 51.2875L16.7835 53.7841L11.7906 51.7095L14.2873 56.2455L10.5602 59.9726C9.85704 60.6757 8.76665 60.6757 8.06352 59.9726L5.56688 57.5112L3.10549 55.0146C2.40236 54.3115 2.40236 53.2215 3.10549 52.5179L6.8326 48.7908L12.0722 50.5843L9.29399 46.2946L11.7906 43.8333L16.5729 46.0836C16.9945 45.6616 13.7952 41.6177 14.041 41.0903L18.5417 42.075L19.3506 43.7275L21.9878 49.0371C21.4604 49.3182 17.4165 46.0836 16.9945 46.5057Z" fill="#C6715A"/>
<path d="M30.4266 50.0218C29.7588 50.7249 28.6336 50.7249 27.9652 50.0218C26.348 48.4393 23.9571 48.123 21.9878 49.0372L18.0144 45.0638L22.9724 40.1062L30.4266 47.5604C31.1298 48.2288 31.1298 49.3539 30.4266 50.0218Z" fill="#99503D"/>
<path d="M16.9945 46.5056L19.2449 51.2874L16.7835 53.7841L11.7906 51.7095L14.2873 56.2455L10.5602 59.9726C9.85704 60.6757 8.76665 60.6757 8.06352 59.9726L5.56688 57.5112L19.3506 43.7275L21.9878 49.0371C21.4604 49.3181 17.4165 46.0836 16.9945 46.5056Z" fill="#99503D"/>
<path d="M21.9878 49.0371C21.4604 49.3186 20.9331 49.5997 20.511 50.0218L19.2453 51.2875L11.7906 43.8332L13.0563 42.5675C13.4784 42.1455 13.7952 41.6177 14.041 41.0903L21.9878 49.0371Z" fill="#725D57"/>
<path d="M21.9878 49.0371C21.4604 49.3186 20.9331 49.5997 20.511 50.0218L19.2453 51.2875L15.5177 47.5604L18.0144 45.0637L21.9878 49.0371Z" fill="#53433F"/>
<path d="M16.7839 53.7841L14.2873 56.2455L6.83305 48.7909L9.29399 46.2947L16.7839 53.7841Z" fill="#725D57"/>
<path d="M13.0563 50.057L16.7839 53.7841L14.2873 56.2455L10.5602 52.5179L13.0563 50.057Z" fill="#53433F"/>
</g>
<defs>
<clipPath id="clip0_1_283">
<rect width="60" height="60" fill="white" transform="translate(0 0.5)"/>
</clipPath>
</defs>
</svg>
