<svg width="60" height="61" viewBox="0 0 60 61" fill="none" xmlns="http://www.w3.org/2000/svg">
<g clip-path="url(#clip0_1_646)">
<path d="M56.3672 25.1794C56.3672 32.879 50.0743 39.2419 42.0584 39.945C41.1795 42.828 38.1212 45.2185 33.9024 46.1679H26.0976C21.8788 45.2185 18.8205 42.828 17.9416 39.945C9.92569 39.2419 3.63281 32.879 3.63281 25.1794C3.63281 18.535 8.20312 12.8399 14.9181 10.9764C16.9221 4.754 23.004 0.5 30 0.5C35.2029 0.5 40.0548 2.89044 43.0078 6.93341C43.922 8.16388 44.6251 9.53534 45.0819 10.9764C51.7969 12.8399 56.3672 18.535 56.3672 25.1794Z" fill="#90E36A"/>
<path d="M56.3672 25.1794C56.3672 32.879 50.0743 39.2419 42.0584 39.945C41.1795 42.828 38.1212 45.2185 33.9024 46.1679H30V0.5C35.2029 0.5 40.0548 2.89044 43.0078 6.93341C43.922 8.16388 44.6251 9.53534 45.0819 10.9764C51.7969 12.8399 56.3672 18.535 56.3672 25.1794Z" fill="#56C225"/>
<path d="M28.2422 32.1406H24.7266C21.8188 32.1406 19.4531 29.7749 19.4531 26.8672V23.3516C19.4531 22.3802 20.2396 21.5938 21.2109 21.5938C22.1823 21.5938 22.9688 22.3802 22.9688 23.3516V26.8672C22.9688 27.8372 23.7566 28.625 24.7266 28.625H28.2422C29.2136 28.625 30 29.4114 30 30.3828C30 31.3542 29.2136 32.1406 28.2422 32.1406Z" fill="#68544F"/>
<path d="M35.2734 32.1406H31.7578C30.7864 32.1406 30 31.3542 30 30.3828C30 29.4114 30.7864 28.625 31.7578 28.625H35.2734C36.2434 28.625 37.0312 27.8372 37.0312 26.8672V23.3516C37.0312 22.3802 37.8177 21.5938 38.7891 21.5938C39.7604 21.5938 40.5469 22.3802 40.5469 23.3516V26.8672C40.5469 29.7749 38.1812 32.1406 35.2734 32.1406Z" fill="#53433F"/>
<path d="M26.4844 19.8359H33.5156V58.7422H26.4844V19.8359Z" fill="#725D57"/>
<path d="M30 19.8359H33.5156V58.7422H30V19.8359Z" fill="#53433F"/>
<path d="M38.6833 17.9724C36.3633 20.3281 33.3046 21.5938 30 21.5938C26.6954 21.5938 23.6366 20.3281 21.3167 17.9724C20.6135 17.3045 20.6135 16.1798 21.3167 15.5115C21.9841 14.8088 23.1093 14.8088 23.7771 15.5115C25.4297 17.164 27.7148 18.0077 30 18.0077C32.2851 18.0077 34.5703 17.164 36.2228 15.5115C36.8907 14.8083 38.0159 14.8083 38.6837 15.5115C39.3864 16.1798 39.3864 17.3045 38.6833 17.9724Z" fill="#56C225"/>
<path d="M38.6833 17.9724C36.3634 20.3281 33.3046 21.5938 30 21.5938V18.0077C32.2852 18.0077 34.5703 17.164 36.2228 15.5115C36.8907 14.8083 38.0159 14.8083 38.6838 15.5115C39.3864 16.1798 39.3864 17.3045 38.6833 17.9724Z" fill="#49A520"/>
<path d="M56.3672 58.7422C56.3672 59.7264 55.594 60.5 54.6094 60.5H5.39062C4.40598 60.5 3.63281 59.7264 3.63281 58.7422C3.63281 57.7575 4.40598 56.9844 5.39062 56.9844H54.6094C55.594 56.9844 56.3672 57.7575 56.3672 58.7422Z" fill="#90E36A"/>
<path d="M56.3672 58.7422C56.3672 59.7264 55.594 60.5 54.6094 60.5H30V56.9844H54.6094C55.594 56.9844 56.3672 57.7575 56.3672 58.7422Z" fill="#56C225"/>
</g>
<defs>
<clipPath id="clip0_1_646">
<rect width="60" height="60" fill="white" transform="translate(0 0.5)"/>
</clipPath>
</defs>
</svg>
