<svg width="60" height="61" viewBox="0 0 60 61" fill="none" xmlns="http://www.w3.org/2000/svg">
<g clip-path="url(#clip0_1_657)">
<path d="M24.7266 16.4375C24.7266 23.233 19.2174 28.7422 12.4219 28.7422C5.62637 28.7422 0 23.233 0 16.4375C0 9.642 5.62637 4.13281 12.4219 4.13281C19.2174 4.13281 24.7266 9.642 24.7266 16.4375Z" fill="#D2C5C2"/>
<path d="M21.2109 16.4375C21.2109 21.2916 17.276 25.2266 12.4219 25.2266C7.56775 25.2266 3.51562 21.2916 3.51562 16.4375C3.51562 11.5834 7.56775 7.64844 12.4219 7.64844C17.276 7.64844 21.2109 11.5834 21.2109 16.4375Z" fill="#725D57"/>
<path d="M60 16.4375C60 23.233 54.3736 28.7422 47.5781 28.7422C40.7826 28.7422 35.2734 23.233 35.2734 16.4375C35.2734 9.642 40.7826 4.13281 47.5781 4.13281C54.3736 4.13281 60 9.642 60 16.4375Z" fill="#C4B3AF"/>
<path d="M56.4844 16.4375C56.4844 21.2916 52.4323 25.2266 47.5781 25.2266C42.724 25.2266 38.7891 21.2916 38.7891 16.4375C38.7891 11.5834 42.724 7.64844 47.5781 7.64844C52.4323 7.64844 56.4844 11.5834 56.4844 16.4375Z" fill="#68544F"/>
<path d="M30 11.1641C14.707 11.1641 3.51562 21.4999 3.51562 35.7734C3.51562 49.1681 13.2303 56.8672 30 56.8672C46.7697 56.8672 56.4844 49.1681 56.4844 35.7734C56.4844 21.4999 45.293 11.1641 30 11.1641Z" fill="#D2C5C2"/>
<path d="M56.4844 35.7734C56.4844 49.1681 46.7697 56.8672 30 56.8672V11.1641C45.293 11.1641 56.4844 21.4999 56.4844 35.7734Z" fill="#C4B3AF"/>
<path d="M17.6953 30.5C17.6953 31.4709 16.9084 32.2578 15.9375 32.2578C14.9666 32.2578 14.1797 31.4709 14.1797 30.5C14.1797 29.5291 14.9666 28.7422 15.9375 28.7422C16.9084 28.7422 17.6953 29.5291 17.6953 30.5Z" fill="#68544F"/>
<path d="M45.8203 30.5C45.8203 31.4709 45.0334 32.2578 44.0625 32.2578C43.0916 32.2578 42.3047 31.4709 42.3047 30.5C42.3047 29.5291 43.0916 28.7422 44.0625 28.7422C45.0334 28.7422 45.8203 29.5291 45.8203 30.5Z" fill="#53433F"/>
<path d="M37.0312 34.0156V41.0469C37.0312 44.9141 33.8672 48.0781 30 48.0781C26.1328 48.0781 22.9688 44.9141 22.9688 41.0469V34.0156C22.9688 30.1484 26.1328 26.9844 30 26.9844C31.9336 26.9844 33.6914 27.7575 34.9571 29.0585C36.2581 30.3242 37.0312 32.082 37.0312 34.0156Z" fill="#68544F"/>
<path d="M37.0312 34.0156V41.0469C37.0312 44.9141 33.8672 48.0781 30 48.0781V26.9844C31.9336 26.9844 33.6914 27.7575 34.9571 29.0585C36.2581 30.3242 37.0312 32.082 37.0312 34.0156Z" fill="#53433F"/>
</g>
<defs>
<clipPath id="clip0_1_657">
<rect width="60" height="60" fill="white" transform="translate(0 0.5)"/>
</clipPath>
</defs>
</svg>
