<svg width="60" height="61" viewBox="0 0 60 61" fill="none" xmlns="http://www.w3.org/2000/svg">
<g clip-path="url(#clip0_1_668)">
<path d="M60 37.5312C60 39.5353 59.6484 41.2579 59.0506 42.7694L31.875 46.2851L30 46.074L0.949402 42.7694C0.351562 41.2579 0 39.5353 0 37.5312C0 25.9649 12.1404 14.6797 30 14.6797H30.6445C47.0979 14.8907 60 24.945 60 37.5312Z" fill="#70DA40"/>
<path d="M60 37.5312C60 39.5353 59.6484 41.2579 59.0506 42.7694L31.875 46.2851L30 46.074V14.6797H30.6445C47.0979 14.8907 60 24.945 60 37.5312Z" fill="#56C225"/>
<path d="M59.0507 42.7694C58.5233 44.1057 57.8202 45.2656 56.906 46.2851C54.5156 49.0623 50.9295 50.7148 46.9922 51.7343C43.0193 52.7537 38.6953 53.1405 34.8281 53.2811C33.2813 53.3163 31.6173 53.3516 30.0001 53.3516C19.7695 53.3516 8.33182 52.3674 3.05838 46.2851C2.17947 45.2661 1.47635 44.1057 0.949463 42.7694C8.086 42.91 11.4963 41.2579 15.0468 39.4648C18.6681 37.6718 22.5468 35.7734 30.0001 35.7734C37.4534 35.7734 41.332 37.6718 44.9529 39.4648C48.5038 41.2579 51.9141 42.91 59.0507 42.7694Z" fill="#FED2A4"/>
<path d="M59.0506 42.7694C58.5233 44.1057 57.8201 45.2656 56.906 46.2851C54.5155 49.0623 50.9294 50.7148 46.9922 51.7343C43.0193 52.7537 38.6952 53.1405 34.828 53.2811C33.2812 53.3163 31.6173 53.3516 30 53.3516V35.7734C37.4529 35.7734 41.3319 37.6718 44.9529 39.4648C48.5037 41.2579 51.9141 42.91 59.0506 42.7694Z" fill="#F6A96C"/>
<path d="M12.3047 32.2578C5.52063 32.2578 0 26.7372 0 19.9531C0 13.1691 5.52063 7.64844 12.3047 7.64844C19.0887 7.64844 24.6094 13.1691 24.6094 19.9531C24.6094 26.7372 19.0887 32.2578 12.3047 32.2578Z" fill="#56C225"/>
<path d="M12.3047 11.1641C7.4588 11.1641 3.51562 15.1072 3.51562 19.9531C3.51562 24.799 7.4588 28.7422 12.3047 28.7422C17.1506 28.7422 21.0938 24.799 21.0938 19.9531C21.0938 15.1072 17.1506 11.1641 12.3047 11.1641Z" fill="#EDE9E8"/>
<path d="M14.0625 21.7109H10.5469C9.5755 21.7109 8.78906 20.9245 8.78906 19.9531C8.78906 18.9818 9.5755 18.1953 10.5469 18.1953H14.0625C15.0339 18.1953 15.8203 18.9818 15.8203 19.9531C15.8203 20.9245 15.0339 21.7109 14.0625 21.7109Z" fill="#725D57"/>
<path d="M47.6953 32.2578C40.9113 32.2578 35.3906 26.7372 35.3906 19.9531C35.3906 13.1691 40.9113 7.64844 47.6953 7.64844C54.4794 7.64844 60 13.1691 60 19.9531C60 26.7372 54.4794 32.2578 47.6953 32.2578Z" fill="#49A520"/>
<path d="M47.6953 11.1641C42.8494 11.1641 38.9062 15.1072 38.9062 19.9531C38.9062 24.799 42.8494 28.7422 47.6953 28.7422C52.5412 28.7422 56.4844 24.799 56.4844 19.9531C56.4844 15.1072 52.5412 11.1641 47.6953 11.1641Z" fill="#D2C5C2"/>
<path d="M49.4531 21.7109H45.9375C44.9661 21.7109 44.1797 20.9245 44.1797 19.9531C44.1797 18.9818 44.9661 18.1953 45.9375 18.1953H49.4531C50.4245 18.1953 51.2109 18.9818 51.2109 19.9531C51.2109 20.9245 50.4245 21.7109 49.4531 21.7109Z" fill="#53433F"/>
<path d="M28.2422 30.5C28.2422 31.4709 27.3381 32.2578 26.3672 32.2578C25.3963 32.2578 24.6094 31.4709 24.6094 30.5C24.6094 29.5291 25.3963 28.7422 26.3672 28.7422C27.3381 28.7422 28.2422 29.5291 28.2422 30.5Z" fill="#68544F"/>
<path d="M35.3906 30.5C35.3906 31.4709 34.6037 32.2578 33.6328 32.2578C32.6619 32.2578 31.875 31.4709 31.875 30.5C31.875 29.5291 32.6619 28.7422 33.6328 28.7422C34.6037 28.7422 35.3906 29.5291 35.3906 30.5Z" fill="#53433F"/>
</g>
<defs>
<clipPath id="clip0_1_668">
<rect width="60" height="60" fill="white" transform="translate(0 0.5)"/>
</clipPath>
</defs>
</svg>
