<svg width="60" height="61" viewBox="0 0 60 61" fill="none" xmlns="http://www.w3.org/2000/svg">
<g clip-path="url(#clip0_1_681)">
<path d="M28.2422 32.2578H10.0768C9.69589 32.2578 9.32693 32.3814 9.02298 32.6098L4.33685 36.1255C3.89374 36.4564 3.63281 36.9783 3.63281 37.5312C3.63281 38.0842 3.89374 38.6061 4.33685 38.937L9.02298 42.4527C9.32693 42.6811 9.69589 42.8047 10.0768 42.8047H28.2422V32.2578Z" fill="#B35F49"/>
<path d="M55.6631 29.0942L50.977 25.5786C50.6731 25.3502 50.3041 25.2266 49.9232 25.2266H31.7578V35.7734H49.9232C50.3041 35.7734 50.6731 35.6498 50.977 35.4214L55.6631 31.9058C56.1063 31.5748 56.3672 31.053 56.3672 30.5C56.3672 29.947 56.1063 29.4252 55.6631 29.0942Z" fill="#99503D"/>
<path d="M33.5156 4.01562V58.7422H26.4844V4.01562C26.4844 2.08203 28.0664 0.5 30 0.5C31.9336 0.5 33.5156 2.08203 33.5156 4.01562Z" fill="#68544F"/>
<path d="M33.5156 4.01562V58.7422H30V0.5C31.9336 0.5 33.5156 2.08203 33.5156 4.01562Z" fill="#53433F"/>
<path d="M55.6641 11.3984L50.988 7.88281C50.6717 7.67178 50.3206 7.53125 49.9333 7.53125H10.0667C9.67987 7.53125 9.32831 7.67178 9.01199 7.88281L4.33594 11.3984C3.87909 11.7148 3.63281 12.2421 3.63281 12.8047C3.63281 13.3673 3.87909 13.8946 4.33594 14.2109L9.01199 17.7266C9.32831 17.9376 9.67941 18.0781 10.0667 18.0781H49.9338C50.3206 18.0781 50.6721 17.9376 50.9885 17.7266L55.6641 14.2109C56.1214 13.8946 56.3672 13.3673 56.3672 12.8047C56.3672 12.2421 56.1209 11.7148 55.6641 11.3984Z" fill="#C6715A"/>
<path d="M56.3672 12.8047C56.3672 13.3673 56.1209 13.8946 55.6641 14.2109L50.988 17.7266C50.6717 17.9376 50.3206 18.0781 49.9333 18.0781H30V7.53125H49.9333C50.3201 7.53125 50.6717 7.67178 50.988 7.88281L55.6641 11.3984C56.1209 11.7148 56.3672 12.2421 56.3672 12.8047Z" fill="#B35F49"/>
<path d="M49.3359 58.7422C49.3359 59.7264 48.5628 60.5 47.5781 60.5H12.4219C11.4372 60.5 10.6641 59.7264 10.6641 58.7422C10.6641 57.7575 11.4372 56.9844 12.4219 56.9844H47.5781C48.5628 56.9844 49.3359 57.7575 49.3359 58.7422Z" fill="#90E36A"/>
<path d="M49.3359 58.7422C49.3359 59.7264 48.5628 60.5 47.5781 60.5H30V56.9844H47.5781C48.5628 56.9844 49.3359 57.7575 49.3359 58.7422Z" fill="#56C225"/>
</g>
<defs>
<clipPath id="clip0_1_681">
<rect width="60" height="60" fill="white" transform="translate(0 0.5)"/>
</clipPath>
</defs>
</svg>
