<svg width="60" height="61" viewBox="0 0 60 61" fill="none" xmlns="http://www.w3.org/2000/svg">
<g clip-path="url(#clip0_1_47)">
<path d="M59.731 59.7991C59.3799 60.2912 58.8525 60.608 58.2552 60.608H44.0631L42.3057 57.9012L36.9627 49.6409L35.4159 33.94L36.4706 31.5496L40.7237 36.541H43.8873L48.1056 31.5848L59.8367 58.1471C60.083 58.6744 60.0478 59.3075 59.731 59.7991Z" fill="#B35F49"/>
<path d="M59.731 59.7993C59.3799 60.2914 58.8525 60.6082 58.2552 60.6082H44.0631L42.3057 57.9014V36.5412H43.8873L48.1056 31.585L59.8367 58.1477C60.083 58.6746 60.0478 59.3077 59.731 59.7993Z" fill="#804231"/>
<path d="M47.7037 23.6092C47.5338 22.6548 48.1706 21.7415 49.1264 21.5717C50.1358 21.3918 51.0985 21.0398 51.9861 20.5229C52.832 20.0373 53.9013 20.3257 54.3889 21.1615C54.8764 22.0011 54.5894 23.0773 53.7503 23.5643C52.5061 24.2853 51.157 24.7797 49.7407 25.0319C48.8009 25.2045 47.8744 24.5751 47.7037 23.6092Z" fill="#FDBF00"/>
<path d="M41.463 23.5973C40.2201 22.885 39.1183 21.9667 38.1881 20.8717C37.5601 20.132 37.6507 19.0215 38.3909 18.3934C39.132 17.7635 40.2407 17.8592 40.8692 18.5957C41.5353 19.3817 42.3245 20.0391 43.2135 20.549C44.0548 21.0315 44.3464 22.1059 43.8626 22.9486C43.3819 23.7872 42.3103 24.0816 41.463 23.5973Z" fill="#FFD400"/>
<path d="M47.5782 7.64697C44.6605 7.64697 42.3057 10.0022 42.3057 12.92C42.3057 15.8373 44.6605 18.1925 47.5782 18.1925C50.496 18.1925 52.8508 15.8373 52.8508 12.92C52.8508 10.0022 50.496 7.64697 47.5782 7.64697Z" fill="#FFD400"/>
<path d="M57.0119 18.1738C56.0986 17.8424 55.5113 16.8349 55.8409 15.9216C56.1893 14.9608 56.4831 13.9514 56.4831 12.9201C56.4831 11.9487 57.271 11.1023 58.2405 11.1023C59.2123 11.1023 60.0002 11.8283 60.0002 12.7997C60.0002 14.7521 59.617 16.1446 59.2636 17.1196C58.9372 18.0196 57.942 18.5053 57.0119 18.1738Z" fill="#FDBF00"/>
<path d="M37.0327 14.7086C36.0613 14.7086 35.2754 13.9515 35.2754 12.9801V12.9201C35.2754 11.5006 35.5139 10.1085 35.9858 8.78512C36.3136 7.87051 37.311 7.38986 38.2325 7.71945C39.1476 8.04537 39.6227 9.05108 39.2987 9.96616C38.9604 10.9101 38.7905 11.9039 38.7905 12.9201C38.7905 13.8915 38.0046 14.7086 37.0327 14.7086Z" fill="#FFD400"/>
<path d="M54.2515 7.2026C53.5786 6.41983 52.7871 5.76797 51.8982 5.26488C51.0541 4.78789 50.7551 3.71489 51.234 2.87078C51.7109 2.0262 52.7871 1.73094 53.6285 2.20656C54.8727 2.91014 56.0968 3.81972 57.0357 4.91332C57.6674 5.64941 57.5832 6.75811 56.8471 7.39166C56.1169 8.01971 54.8892 7.94418 54.2515 7.2026Z" fill="#FDBF00"/>
<path d="M40.7214 4.54565C40.2288 3.7084 40.5067 2.63219 41.3426 2.13918C42.5822 1.40813 43.9276 0.906875 45.3439 0.646407C46.296 0.471083 47.2143 1.1028 47.3896 2.05724C47.5645 3.01122 46.9346 3.92766 45.9788 4.10299C44.9713 4.28838 44.0118 4.64727 43.1279 5.16729C42.2943 5.65802 41.2162 5.38519 40.7214 4.54565Z" fill="#FFD400"/>
<path d="M52.8508 12.92C52.8508 15.8373 50.496 18.1925 47.5782 18.1925V7.64697C50.496 7.64697 52.8508 10.0022 52.8508 12.92Z" fill="#FDBF00"/>
<path d="M48.1056 31.585L43.8873 40.0564C43.571 40.6542 42.9736 41.0405 42.3057 41.0405C41.6378 41.0405 41.0404 40.6542 40.7241 40.0564L36.4706 31.5497L38.3337 27.4371L40.6884 22.1999C40.97 21.5668 41.6026 21.1804 42.3057 21.1804C43.0088 21.1804 43.6415 21.5672 43.9225 22.1999L46.2777 27.4371L48.1056 31.585Z" fill="#EDE9E8"/>
<path d="M45.5395 59.8344C45.1884 60.3265 44.6611 60.608 44.0632 60.608H1.76485C1.16747 60.608 0.640126 60.3265 0.28902 59.8344C-0.0277532 59.3075 -0.0977913 58.7096 0.148029 58.1475L13.7281 26.488L17.8759 27.7533H28.0699L32.2177 26.488L35.4165 33.94L45.6805 58.1475C45.9263 58.7096 45.8563 59.3075 45.5395 59.8344Z" fill="#C6715A"/>
<path d="M45.5394 59.8344C45.1883 60.3265 44.6609 60.608 44.0631 60.608H22.9725V27.7533H28.0697L32.2175 26.488L35.4159 33.94L45.6804 58.1471C45.9262 58.7096 45.8561 59.3075 45.5394 59.8344Z" fill="#99503D"/>
<path d="M32.2175 26.4881L28.0697 34.7837C27.7529 35.3815 27.1555 35.7679 26.4876 35.7679C25.8198 35.7679 25.2224 35.3815 24.9061 34.7837L22.9725 30.9174L21.0393 34.7837C20.4419 35.9789 18.4731 35.9789 17.8757 34.7837L13.7279 26.4881L15.5558 22.2698L21.3556 8.70163C21.6367 8.069 22.3046 7.75269 22.9725 7.75269C23.6403 7.75269 24.3082 8.069 24.5898 8.70163L30.3896 22.2345L32.2175 26.4881Z" fill="#EDE9E8"/>
<path d="M32.2175 26.4881L28.0697 34.7837C27.7529 35.3815 27.1555 35.7679 26.4876 35.7679C25.8198 35.7679 25.2224 35.3815 24.9061 34.7837L22.9725 30.9174V7.75269C23.6403 7.75269 24.3082 8.069 24.5898 8.70163L30.3896 22.2345L32.2175 26.4881Z" fill="#D2C5C2"/>
<path d="M48.1056 31.585L43.8873 40.0564C43.571 40.6542 42.9736 41.0405 42.3057 41.0405V21.1804C43.0088 21.1804 43.6415 21.5668 43.9225 22.1999L46.2777 27.4371L48.1056 31.585Z" fill="#D2C5C2"/>
</g>
<defs>
<clipPath id="clip0_1_47">
<rect width="60" height="60" fill="white" transform="translate(0 0.5)"/>
</clipPath>
</defs>
</svg>
