<svg width="60" height="61" viewBox="0 0 60 61" fill="none" xmlns="http://www.w3.org/2000/svg">
<g clip-path="url(#clip0_1_65)">
<path d="M59.7684 23.7498C59.1358 21.7462 57.3779 20.4452 55.2686 20.4452H45.5164C45.5164 20.4452 45.5164 20.4452 45.4816 20.4452C43.3722 20.4452 41.4739 19.2148 40.6302 17.2459L34.8995 3.73456C34.0558 1.73047 32.1922 0.5 30.0481 0.5C30.0128 0.5 30.0128 0.5 29.9776 0.5C27.8682 0.535248 26.0399 1.76572 25.1962 3.73456L19.466 17.2459C18.6218 19.2148 16.7235 20.4452 14.6141 20.4452H4.79371C2.64955 20.4452 0.856486 21.781 0.223399 23.8203C-0.409231 25.8592 0.329142 27.9686 2.08695 29.199L10.5011 34.8945C12.329 36.125 13.1726 38.4102 12.61 40.5548L9.1649 53.8556C8.56752 56.0002 9.37593 58.2148 11.2042 59.5158C13.0321 60.7811 15.3877 60.8163 17.216 59.5506L27.0946 52.8361C27.9735 52.203 28.9929 51.922 29.9776 51.922C31.0323 51.8867 32.087 52.2035 33.0011 52.8361L43.0559 59.5863C43.9696 60.2189 44.9895 60.5 46.0089 60.5C47.0636 60.5 48.1183 60.1837 49.0325 59.5511C50.8255 58.2853 51.6692 56.1055 51.1418 53.9608L47.7315 40.168C47.2046 38.0233 48.0483 35.7382 49.8761 34.5077L57.9053 29.0233C59.6631 27.828 60.3662 25.7539 59.7684 23.7498Z" fill="#FF6C6C"/>
<path d="M57.9052 29.0233L49.8761 34.5077C48.0478 35.7382 47.2041 38.0233 47.7314 40.168L51.1418 53.9608C51.6687 56.1055 50.825 58.2853 49.032 59.5511C48.1183 60.1837 47.0636 60.5 46.0089 60.5C44.9894 60.5 43.9695 60.2189 43.0554 59.5863L33.0006 52.8361C32.0869 52.203 31.0322 51.8867 29.9775 51.922V0.5H30.0476C32.1922 0.5 34.0553 1.73047 34.8994 3.73456L40.6297 17.2459C41.4734 19.2148 43.3717 20.4452 45.4811 20.4452H45.5163H55.2681C57.3774 20.4452 59.1353 21.7462 59.7683 23.7498C60.3662 25.7539 59.6631 27.828 57.9052 29.0233Z" fill="#FF4949"/>
<path d="M31.7354 12.9219V26.9844C31.7354 27.9686 30.9622 28.7422 29.9775 28.7422C28.9929 28.7422 28.2197 27.9686 28.2197 26.9844V12.9219C28.2197 11.9372 28.9929 11.1641 29.9775 11.1641C30.9622 11.1641 31.7354 11.9372 31.7354 12.9219Z" fill="#FDBF00"/>
<path d="M18.3769 49.484C17.5991 48.9022 17.4412 47.8004 18.0249 47.0244L24.3521 38.587C24.9357 37.8092 26.038 37.6549 26.8121 38.2354C27.5898 38.8172 27.7478 39.919 27.1641 40.695L20.8365 49.132C20.2569 49.9084 19.1551 50.0681 18.3769 49.484Z" fill="#FDBF00"/>
<path d="M22.7728 33.2054L12.2241 29.2709C11.3145 28.9326 10.8526 27.9201 11.1928 27.01C11.5306 26.1023 12.5468 25.6436 13.4532 25.9782L24.0019 29.9127C24.9119 30.251 25.3734 31.264 25.0337 32.1736C24.6963 33.0818 23.6842 33.5451 22.7728 33.2054Z" fill="#FDBF00"/>
<path d="M39.1186 49.1319L32.791 40.6948C32.2078 39.9189 32.3652 38.8171 33.143 38.2353C33.9157 37.6498 35.0226 37.8077 35.603 38.5868L41.9302 47.0243C42.5139 47.8002 42.3559 48.9021 41.5787 49.4839C40.8005 50.0675 39.6986 49.9087 39.1186 49.1319Z" fill="#FF9F00"/>
<path d="M34.9127 32.1515C34.5694 31.2433 35.0276 30.2289 35.9358 29.8856L46.2753 25.98C47.1849 25.6367 48.1993 26.0949 48.5413 27.0031C48.8846 27.9113 48.4259 28.9257 47.5182 29.269L37.1786 33.1742C36.2837 33.5129 35.2606 33.0707 34.9127 32.1515Z" fill="#FF9F00"/>
<path d="M31.7354 12.9219V26.9844C31.7354 27.9686 30.9622 28.7422 29.9775 28.7422V11.1641C30.9622 11.1641 31.7354 11.9372 31.7354 12.9219Z" fill="#FF9F00"/>
<path d="M29.9775 25.2266C25.1262 25.2266 21.1885 29.1642 21.1885 34.0156C21.1885 38.867 25.1262 42.8047 29.9775 42.8047C34.8289 42.8047 38.7666 38.867 38.7666 34.0156C38.7666 29.1642 34.8289 25.2266 29.9775 25.2266Z" fill="#FDBF00"/>
<path d="M38.7666 34.0156C38.7666 38.867 34.8289 42.8047 29.9775 42.8047V25.2266C34.8289 25.2266 38.7666 29.1642 38.7666 34.0156Z" fill="#FF9F00"/>
<path d="M31.7354 34.0156C31.7354 34.9998 30.9622 35.7734 29.9775 35.7734C28.9929 35.7734 28.2197 34.9998 28.2197 34.0156C28.2197 33.031 28.9929 32.2578 29.9775 32.2578C30.9622 32.2578 31.7354 33.031 31.7354 34.0156Z" fill="#FFD400"/>
<path d="M31.7354 34.0156C31.7354 34.9998 30.9622 35.7734 29.9775 35.7734V32.2578C30.9622 32.2578 31.7354 33.031 31.7354 34.0156Z" fill="#FDBF00"/>
</g>
<defs>
<clipPath id="clip0_1_65">
<rect width="60" height="60" fill="white" transform="translate(0 0.5)"/>
</clipPath>
</defs>
</svg>
