<svg width="60" height="61" viewBox="0 0 60 61" fill="none" xmlns="http://www.w3.org/2000/svg">
<g clip-path="url(#clip0_1_79)">
<path d="M24.6716 46.1606C24.6185 45.1911 23.7479 44.4046 22.8195 44.5044L15.9375 46.3204C14.9661 46.3204 14.1797 47.1068 14.1797 48.0782C14.1797 54.203 15.8102 60.5 19.4531 60.5C20.0748 60.5 21.0031 60.3009 21.8994 59.3533C23.877 57.2623 24.9911 51.8909 24.6716 46.1606Z" fill="#EDE9E8"/>
<path d="M44.0625 46.3203L37.1805 44.5044C36.1917 44.3941 35.3815 45.1906 35.3284 46.1606C35.0089 51.8909 36.1231 57.2623 38.1006 59.3533C38.9969 60.3009 39.9253 60.5 40.5469 60.5C44.1898 60.5 45.8203 54.203 45.8203 48.0781C45.8203 47.1068 45.0339 46.3203 44.0625 46.3203Z" fill="#DFD7D5"/>
<path d="M52.8516 28.7422C52.8516 31.0974 52.5352 33.3125 51.9374 35.3866C51.6916 36.125 51.0233 36.6523 50.2501 36.6523C50.0743 36.6523 49.9338 36.6171 49.758 36.5466H10.242C9.32831 36.8634 8.34366 36.3008 8.06259 35.3866C7.46475 33.3125 7.14844 31.0974 7.14844 28.7422C7.14844 15.4529 16.9221 0.5 30 0.5C43.0779 0.5 52.8516 15.4529 52.8516 28.7422Z" fill="#C6715A"/>
<path d="M38.5427 48.5703C35.906 49.414 33.0235 49.836 29.9999 49.836C26.9764 49.836 24.0939 49.414 21.4572 48.5703L22.5118 38.1992C24.797 38.9376 27.3985 39.2892 29.9999 39.2892C32.6014 39.2892 35.2029 38.9376 37.488 38.1992L38.5427 48.5703Z" fill="#C6715A"/>
<path d="M37.4881 38.1992L38.5428 48.5703C35.9061 49.414 33.0235 49.836 30 49.836V39.2892C32.6015 39.2892 35.2029 38.9376 37.4881 38.1992Z" fill="#99503D"/>
<path d="M52.8516 28.7422C52.8516 31.0974 52.5352 33.3125 51.9374 35.3866C51.6916 36.125 51.0233 36.6523 50.2501 36.6523C50.0743 36.6523 49.9338 36.6171 49.758 36.5466H30V0.5C43.0779 0.5 52.8516 15.4529 52.8516 28.7422Z" fill="#99503D"/>
<path d="M38.6833 25.2266H21.3167C13.5118 25.2266 7.14844 31.5899 7.14844 39.3943C7.14844 45.1599 11.8245 49.8359 17.5896 49.8359C21.5977 49.8359 25.1486 47.6213 26.9412 44.0704C27.328 43.2968 28.1017 42.8047 28.9806 42.8047H31.0194C31.8983 42.8047 32.672 43.2968 33.0588 44.0704C34.8518 47.6213 38.4027 49.8359 42.4104 49.8359C48.1755 49.8359 52.8516 45.1599 52.8516 39.3943C52.8516 31.5899 46.4882 25.2266 38.6833 25.2266Z" fill="#B35F49"/>
<path d="M52.8516 39.3943C52.8516 45.1599 48.1755 49.8359 42.4104 49.8359C38.4023 49.8359 34.8514 47.6213 33.0588 44.0704C32.672 43.2968 31.8983 42.8047 31.0194 42.8047H30V25.2266H38.6833C46.4882 25.2266 52.8516 31.5899 52.8516 39.3943Z" fill="#804231"/>
<path d="M42.3047 34.0156C42.3047 34.9865 41.5178 35.7734 40.5469 35.7734C39.576 35.7734 38.7891 34.9865 38.7891 34.0156C38.7891 33.0447 39.576 32.2578 40.5469 32.2578C41.5178 32.2578 42.3047 33.0447 42.3047 34.0156Z" fill="#3E322E"/>
<path d="M45.8203 41.0469C45.8203 42.0178 45.0334 42.8047 44.0625 42.8047C43.0916 42.8047 42.3047 42.0178 42.3047 41.0469C42.3047 40.076 43.0916 39.2891 44.0625 39.2891C45.0334 39.2891 45.8203 40.076 45.8203 41.0469Z" fill="#3E322E"/>
<path d="M17.6953 41.0469C17.6953 42.0178 16.9084 42.8047 15.9375 42.8047C14.9666 42.8047 14.1797 42.0178 14.1797 41.0469C14.1797 40.076 14.9666 39.2891 15.9375 39.2891C16.9084 39.2891 17.6953 40.076 17.6953 41.0469Z" fill="#68544F"/>
<path d="M21.2109 34.0156C21.2109 34.9865 20.424 35.7734 19.4531 35.7734C18.4822 35.7734 17.6953 34.9865 17.6953 34.0156C17.6953 33.0447 18.4822 32.2578 19.4531 32.2578C20.424 32.2578 21.2109 33.0447 21.2109 34.0156Z" fill="#68544F"/>
<path d="M31.7578 35.7734V41.0469C31.7578 42.0311 30.9846 42.8047 30 42.8047C29.0154 42.8047 28.2422 42.0311 28.2422 41.0469V35.7734C28.2422 34.7888 29.0154 34.0156 30 34.0156C30.9846 34.0156 31.7578 34.7888 31.7578 35.7734Z" fill="#68544F"/>
<path d="M21.2109 19.9531C21.2109 20.924 20.424 21.7109 19.4531 21.7109C18.4822 21.7109 17.6953 20.924 17.6953 19.9531C17.6953 18.9822 18.4822 18.1953 19.4531 18.1953C20.424 18.1953 21.2109 18.9822 21.2109 19.9531Z" fill="#68544F"/>
<path d="M42.3047 19.9531C42.3047 20.924 41.5178 21.7109 40.5469 21.7109C39.576 21.7109 38.7891 20.924 38.7891 19.9531C38.7891 18.9822 39.576 18.1953 40.5469 18.1953C41.5178 18.1953 42.3047 18.9822 42.3047 19.9531Z" fill="#3E322E"/>
<path d="M30 28.7422C26.9412 28.7422 24.7266 30.2185 24.7266 32.2578C24.7266 34.0509 26.9412 37.5312 30 37.5312C33.0588 37.5312 35.2734 34.0509 35.2734 32.2578C35.2734 30.2185 33.0588 28.7422 30 28.7422Z" fill="#68544F"/>
<path d="M35.2734 32.2578C35.2734 34.0509 33.0588 37.5312 30 37.5312V28.7422C33.0588 28.7422 35.2734 30.2185 35.2734 32.2578Z" fill="#3E322E"/>
<path d="M31.7578 35.7734V41.0469C31.7578 42.0311 30.9846 42.8047 30 42.8047V34.0156C30.9846 34.0156 31.7578 34.7888 31.7578 35.7734Z" fill="#3E322E"/>
</g>
<defs>
<clipPath id="clip0_1_79">
<rect width="60" height="60" fill="white" transform="translate(0 0.5)"/>
</clipPath>
</defs>
</svg>
