<svg width="60" height="61" viewBox="0 0 60 61" fill="none" xmlns="http://www.w3.org/2000/svg">
<g clip-path="url(#clip0_1_99)">
<path d="M24.7293 25.1049C24.4135 25.1049 24.0976 25.0206 23.8143 24.8476L5.25009 13.5317C3.13706 12.244 1.875 9.99866 1.875 7.52444C1.875 4.39975 3.9711 1.61837 6.97403 0.761897C9.94584 -0.0913752 13.2852 1.19128 14.9144 3.86783L26.2299 22.432C26.6524 23.1237 26.5457 24.0168 25.9726 24.5899C25.6343 24.93 25.183 25.1049 24.7293 25.1049Z" fill="#53433F"/>
<path d="M7.94223 4.14249C7.9404 4.14249 7.9404 4.14386 7.93903 4.14386C6.43848 4.57141 5.39111 5.9621 5.39111 7.52445C5.39111 8.76224 6.02283 9.88514 7.08026 10.5306L19.4573 18.0745L11.9133 5.69797C11.0527 4.2876 9.40021 3.72135 7.94223 4.14249Z" fill="#FED2A4"/>
<path d="M35.2775 25.1048C34.8243 25.1048 34.373 24.93 34.0347 24.5899C33.4611 24.0163 33.3549 23.1255 33.7769 22.4315L45.0929 3.86734C47.1359 0.511012 51.931 -0.486456 55.1399 1.76803C55.1417 1.76803 55.1417 1.76803 55.1417 1.76986C57.0144 3.08639 58.1323 5.23788 58.1323 7.52441C58.1323 9.99863 56.8702 12.244 54.7572 13.5317L36.193 24.8476C35.9092 25.0206 35.592 25.1048 35.2775 25.1048Z" fill="#3E322E"/>
<path d="M48.094 5.69798L40.55 18.0745L52.9266 10.5306C53.9845 9.88514 54.6162 8.76225 54.6162 7.52446C54.6162 6.38142 54.0564 5.30476 53.1193 4.64375C51.4883 3.503 49.1775 3.92231 48.094 5.69798Z" fill="#FFBD86"/>
<path d="M47.5842 51.7097C47.5842 56.562 43.6461 60.5002 38.7938 60.5002H21.2133C16.3615 60.5002 12.4233 56.562 12.4233 51.7097C12.4233 50.7255 13.1965 49.9519 14.1812 49.9519H45.8259C46.8106 49.9519 47.5842 50.7255 47.5842 51.7097Z" fill="#68544F"/>
<path d="M47.5841 51.7097C47.5841 56.562 43.6459 60.5002 38.7936 60.5002H30.0037V49.9519H45.8258C46.8105 49.9519 47.5841 50.7255 47.5841 51.7097Z" fill="#53433F"/>
<path d="M51.1003 19.8309V31.4453C51.1003 32.3947 50.3266 33.2036 49.342 33.2036H10.665C9.68039 33.2036 8.90723 32.3947 8.90723 31.4453V19.8309C8.90723 11.111 16.0099 4.0083 24.7294 4.0083H35.2776C43.9976 4.0083 51.1003 11.111 51.1003 19.8309Z" fill="#68544F"/>
<path d="M51.1002 19.8309V31.4453C51.1002 32.3947 50.3266 33.2036 49.3419 33.2036H30.0037V4.0083H35.2776C43.9975 4.0083 51.1002 11.111 51.1002 19.8309Z" fill="#53433F"/>
<path d="M40.552 19.831C40.552 20.8019 39.7646 21.5888 38.7937 21.5888C37.8228 21.5888 37.0359 20.8019 37.0359 19.831C37.0359 18.8601 37.8228 18.0728 38.7937 18.0728C39.7646 18.0728 40.552 18.8601 40.552 19.831Z" fill="#3E322E"/>
<path d="M22.9714 19.831C22.9714 20.8019 22.1841 21.5888 21.2131 21.5888C20.2422 21.5888 19.4553 20.8019 19.4553 19.831C19.4553 18.8601 20.2422 18.0728 21.2131 18.0728C22.1841 18.0728 22.9714 18.8601 22.9714 19.831Z" fill="#53433F"/>
<path d="M42.3098 25.1047H17.6972C10.9113 25.1047 5.39111 30.7421 5.39111 37.5285V44.5602C5.39111 49.4125 9.32926 53.4678 14.1811 53.4678H45.8259C50.6782 53.4678 54.6163 49.4125 54.6163 44.5602V37.5285C54.6163 30.7421 49.0957 25.1047 42.3098 25.1047Z" fill="#725D57"/>
<path d="M54.6163 37.5285V44.5602C54.6163 49.4125 50.6781 53.4678 45.8258 53.4678H30.0037V25.1047H42.3097C49.0956 25.1047 54.6163 30.7421 54.6163 37.5285Z" fill="#68544F"/>
<path d="M19.4555 44.5603C16.5473 44.5603 14.1812 42.1945 14.1812 39.2864C14.1812 36.3782 16.5473 34.0125 19.4555 34.0125C22.3637 34.0125 24.7294 36.3782 24.7294 39.2864C24.7294 42.1945 22.3637 44.5603 19.4555 44.5603Z" fill="#53433F"/>
<path d="M40.5519 44.5603C37.6433 44.5603 35.2776 42.1945 35.2776 39.2864C35.2776 36.3782 37.6433 34.0125 40.5519 34.0125C43.4601 34.0125 45.8258 36.3782 45.8258 39.2864C45.8258 42.1945 43.4601 44.5603 40.5519 44.5603Z" fill="#3E322E"/>
</g>
<defs>
<clipPath id="clip0_1_99">
<rect width="60" height="60" fill="white" transform="translate(0 0.5)"/>
</clipPath>
</defs>
</svg>
