<svg width="60" height="61" viewBox="0 0 60 61" fill="none" xmlns="http://www.w3.org/2000/svg">
<g clip-path="url(#clip0_1_114)">
<path d="M59.9015 49.9531L56.3859 51.7109L59.9015 53.4687C59.9015 57.3359 56.7374 60.4999 52.8703 60.4999H20.9953C13.2256 60.4999 6.93275 54.2071 6.93275 46.4374V35.8906C3.59291 35.8906 0.674664 33.5001 0.0420342 30.2303C-0.133747 29.4567 0.253063 28.6835 0.991436 28.332L2.50297 27.5584C5.0692 26.2579 8.37379 26.82 10.4484 28.8593C12.4877 26.82 15.8276 26.2579 18.429 27.5584L19.9053 28.332C20.6437 28.6835 21.0305 29.4567 20.8547 30.2303C20.2221 33.5001 17.3038 35.8906 13.964 35.8906V41.8671C13.964 44.3981 16.0033 46.4374 18.5343 46.4374C20.0811 46.4374 21.4873 45.6638 22.3663 44.3981L26.0696 39.0194C27.3705 37.0505 29.5499 35.8906 31.9056 35.8906H52.8703C56.7374 35.8906 59.9015 39.0546 59.9015 42.9218V49.9531Z" fill="#73BCFF"/>
<path d="M59.9016 49.9531L56.386 51.7109L59.9016 53.4688C59.9016 57.3359 56.7375 60.5 52.8704 60.5H43.9641V35.8906H52.8704C56.7375 35.8906 59.9016 39.0547 59.9016 42.9219V49.9531Z" fill="#3AAAFF"/>
<path d="M59.9016 49.9531V53.4688H40.4485C39.4638 53.4688 38.6907 52.6951 38.6907 51.7109C38.6907 50.7263 39.4638 49.9531 40.4485 49.9531H59.9016Z" fill="#76E2F8"/>
<path d="M47.4797 28.8594C46.5079 28.8594 45.7219 28.0729 45.7219 27.1016V12.8047C45.7219 9.89697 48.0876 7.53125 50.9954 7.53125C53.9031 7.53125 56.2688 9.89697 56.2688 12.8047C56.2688 13.7761 55.4824 14.5625 54.511 14.5625C53.5392 14.5625 52.7532 13.7761 52.7532 12.8047C52.7532 11.8347 51.9654 11.0469 50.9954 11.0469C50.0254 11.0469 49.2375 11.8347 49.2375 12.8047V27.1016C49.2375 28.0729 48.4511 28.8594 47.4797 28.8594Z" fill="#25D9F8"/>
<path d="M40.4485 28.8594C39.4767 28.8594 38.6907 28.0729 38.6907 27.1016V16.3203C38.6907 15.3503 37.9029 14.5625 36.9329 14.5625C35.9629 14.5625 35.175 15.3503 35.175 16.3203C35.175 17.2917 34.3886 18.0781 33.4172 18.0781C32.4454 18.0781 31.6594 17.2917 31.6594 16.3203C31.6594 13.4126 34.0251 11.0469 36.9329 11.0469C39.8406 11.0469 42.2063 13.4126 42.2063 16.3203V27.1016C42.2063 28.0729 41.4199 28.8594 40.4485 28.8594Z" fill="#76E2F8"/>
<path d="M45.7219 2.25781V5.77344C45.7219 6.75763 44.9488 7.53125 43.9641 7.53125C42.9795 7.53125 42.2063 6.75763 42.2063 5.77344V2.25781C42.2063 1.27316 42.9795 0.5 43.9641 0.5C44.9488 0.5 45.7219 1.27316 45.7219 2.25781Z" fill="#76E2F8"/>
<path d="M42.2063 44.6797C42.2063 45.6506 41.4194 46.4375 40.4485 46.4375C39.4776 46.4375 38.6907 45.6506 38.6907 44.6797C38.6907 43.7088 39.4776 42.9219 40.4485 42.9219C41.4194 42.9219 42.2063 43.7088 42.2063 44.6797Z" fill="#76E2F8"/>
<path d="M43.9641 7.53125V0.5C44.9488 0.5 45.7219 1.27316 45.7219 2.25781V5.77344C45.7219 6.75763 44.9488 7.53125 43.9641 7.53125Z" fill="#25D9F8"/>
<path d="M43.9641 49.9531H59.9016V53.4688H43.9641V49.9531Z" fill="#25D9F8"/>
</g>
<defs>
<clipPath id="clip0_1_114">
<rect width="60" height="60" fill="white" transform="translate(0 0.5)"/>
</clipPath>
</defs>
</svg>
